<svg xmlns="http://www.w3.org/2000/svg" xmlns:xlink="http://www.w3.org/1999/xlink" version="1.1" width="612pt" height="792pt" viewBox="0 0 612 792">
<text fill-opacity="0" xml:space="preserve" transform="matrix(1 0 -0 1 0 792)" font-size="20.006" font-family="Helvetica" font-weight="bold"><tspan y="-517.5195" x="319.0469"> </tspan></text>
<text fill-opacity="0" xml:space="preserve" transform="matrix(1 0 -0 1 0 792)" font-size="12" font-family="Helvetica" font-weight="bold"><tspan y="-501.1982" x="234.5107 293.5147 318.5227">   </tspan></text>
<text fill-opacity="0" xml:space="preserve" transform="matrix(1 0 -0 1 0 792)" font-size="14" font-family="Helvetica" font-weight="bold"><tspan y="-454.0347" x="299.5918"> </tspan></text>
<text fill-opacity="0" xml:space="preserve" transform="matrix(1 0 -0 1 0 792)" font-size="10" font-family="Helvetica" font-weight="bold"><tspan y="-492.002" x="306.5696"> </tspan></text>
<text fill-opacity="0" xml:space="preserve" transform="matrix(1 0 -0 1 0 792)" font-size="8.0024" font-family="Helvetica" font-weight="bold"><tspan y="-412.2666" x="228.1362"> </tspan></text>
<text fill-opacity="0" xml:space="preserve" transform="matrix(1 0 -0 1 0 792)" font-size="8.0024" font-family="Helvetica" font-style="italic"><tspan y="-399.76686" x="228.1362 235.55443 242.97266 250.39089 257.8091">     </tspan></text>
<text fill-opacity="0" xml:space="preserve" transform="matrix(1 0 -0 1 0 792)" font-size="8.0024" font-family="Helvetica"><tspan y="-399.76686" x="272.05339"> </tspan><tspan y="-349.76786" x="228.1362"> </tspan><tspan y="-337.2681" x="228.1362"> </tspan><tspan y="-324.76835" x="228.1362 238.19522">  </tspan></text>
<text fill-opacity="0" xml:space="preserve" transform="matrix(1 0 -0 1 0 792)" font-size="6" font-family="Helvetica"><tspan y="-270.7715" x="227.2051"> </tspan><tspan y="-263.5715" x="229.5391"> </tspan></text>
<text fill-opacity="0" xml:space="preserve" transform="matrix(1 0 -0 1 0 792)" font-size="8.0024" font-family="Helvetica" font-weight="bold"><tspan y="-412.7938" x="228.1357"> </tspan></text>
<text fill-opacity="0" xml:space="preserve" transform="matrix(1 0 -0 1 0 792)" font-size="8.0024" font-family="Helvetica"><tspan y="-352.7758" x="228.1357"> </tspan><tspan y="-340.7722" x="228.1357"> </tspan></text>
<text fill-opacity="0" xml:space="preserve" transform="matrix(1 0 -0 1 0 792)" font-size="8.0024" font-family="Helvetica" font-weight="bold"><tspan y="-340.7722" x="283.56034"> </tspan></text>
<text fill-opacity="0" xml:space="preserve" transform="matrix(1 0 -0 1 0 792)" font-size="8.0024" font-family="Helvetica"><tspan y="-328.7686" x="228.13571 238.19474">  </tspan></text>
<text fill-opacity="0" xml:space="preserve" transform="matrix(1 0 -0 1 0 792)" font-size="8.0024" font-family="Helvetica" font-weight="bold"><tspan y="-412.76179" x="384.3506"> </tspan><tspan y="-388.76258" x="384.3506"> </tspan><tspan y="-376.75898" x="384.3506"> </tspan><tspan y="-352.75178" x="384.3506"> </tspan></text>
<text fill-opacity="0" xml:space="preserve" transform="matrix(1 0 -0 1 0 792)" font-size="8.0024" font-family="Helvetica" font-weight="bold"><tspan y="-297.32716" x="284.60868"> </tspan><tspan y="-273.31996" x="241.92388"> </tspan></text>
<text xml:space="preserve" transform="matrix(1 0 -0 1 0 792)" font-size="11" font-family="Helvetica" font-weight="bold"><tspan y="-696.1074" x="205.7735 210.0525 217.38951 221.66852 229.00553 236.34253 241.22653 247.94753 251.61052 256.4945 263.8315 268.7155 276.05253 283.38954 290.72654 298.06355 301.72654 309.06355 316.40055 320.06355 330.44755 337.78456 345.12156 350.00556 357.34257 364.06358 367.72657 375.06358 379.34257 383.00556 391.56358 398.90058 406.23759">Infants through 12 Months of Age </tspan></text>
<text xml:space="preserve" transform="matrix(1 0 -0 1 0 792)" font-size="10" font-family="Helvetica"><tspan y="-684.1113" x="250.7134 256.2734 261.8334 264.6134 271.8334 277.9434 285.1634 287.9434 293.5034 299.0634 304.62339 307.40339 312.96339 316.29338 318.51338 321.84336 325.17335 330.73335 334.06333 337.3933 339.6133 341.8333 345.1633 348.50529 355.1753 358.50529">21 CFR 101.9(j)(5)(ii)(B) </tspan></text>
<path transform="matrix(1,0,0,-1,227.6662,344.4419)" stroke-width="3" stroke-linecap="butt" stroke-miterlimit="4" stroke-linejoin="miter" fill="none" stroke="#000000" d="M0 0H156.664"/>
<text xml:space="preserve" transform="matrix(1 0 -0 1 0 792)" font-size="16" font-family="Helvetica" font-weight="bold"><tspan y="-454.0347" x="227.5918 240.0398 250.71179 256.0398 266.7118 273.8158 279.1438 289.8158 299.5918">Calories </tspan></text>
<text xml:space="preserve" transform="matrix(1 0 -0 1 0 792)" font-size="22" font-family="Helvetica" font-weight="bold"><tspan y="-454.0347" x="355.0029 369.6769 384.35093">25 </tspan></text>
<text xml:space="preserve" transform="matrix(1 0 -0 1 0 792)" font-size="6" font-family="Helvetica" font-weight="bold"><tspan y="-469.5635" x="227.2031 231.8711 237.8711 241.8731 245.87509 249.87709 252.54109 254.5391 258.5411 262.54313 265.20713 267.2051 270.8711 274.8731 277.5371 281.2031 283.20109 287.2031 291.2051">Amount per serving </tspan></text>
<text xml:space="preserve" transform="matrix(1 0 -0 1 0 792)" font-size="10" font-family="Helvetica" font-weight="bold"><tspan y="-491.002" x="227.1396 234.3596 241.0296 245.4696 251.5796 254.9096 261.57963 268.24964 271.57963 277.6896 281.0196 286.5796 293.2496 296.5796 299.90959 303.23957 306.56956 309.89955 313.22953 316.5595 317.3795 324.0495 327.3795 334.0495 340.7195 347.38954 354.05955 357.38954 361.27955 367.94956 374.61958 381.28959">Serving size        1 pack (70g)</tspan></text>
<text xml:space="preserve" transform="matrix(1 0 -0 1 0 792)" font-size="10" font-family="Helvetica"><tspan y="-502.092" x="227.5896 233.1496 235.9296 240.9296 246.4896 249.8196 254.8196 257.03959 262.59959 268.15959 273.15959 275.93959 281.49958 287.05958 290.38957 293.16957 298.16957 303.72956 309.28956 312.06956 317.62956 319.84956 325.40956 330.96955 334.29954">4 servings per container </tspan></text>
<text xml:space="preserve" transform="matrix(1 0 -0 1 0 792)" font-size="6" font-family="Helvetica" font-weight="bold"><tspan y="-437.3135" x="339.3511 345.3511 347.3491 352.0171 356.0191 358.0171 360.01509 363.68107 365.67906 370.34706 374.34907 376.34706 380.34907 384.35108">% Daily Value </tspan></text>
<path transform="matrix(1,0,0,-1,388.2434,256.36769)" d="M0 0H-.5-163.987-164.487V-.5-278.765-279.265H-163.987-.5 0V-278.765-.5ZM-.5-278.765H-163.987V-.5H-.5Z"/>
<path transform="matrix(1,0,0,-1,227.6662,309.3062)" stroke-width="7" stroke-linecap="butt" stroke-miterlimit="4" stroke-linejoin="miter" fill="none" stroke="#000000" d="M0 0H156.664"/>
<text xml:space="preserve" transform="matrix(1 0 -0 1 0 792)" font-size="8.0024" font-family="Helvetica" font-weight="bold"><tspan y="-424.7974" x="228.1357 233.91344 239.25104 242.80411 248.14171 250.8065 253.4713 258.8089 264.1465 267.6996">Total Fat </tspan></text>
<text xml:space="preserve" transform="matrix(1 0 -0 1 0 792)" font-size="8.0024" font-family="Helvetica"><tspan y="-424.7974" x="270.36439 274.81373 279.26307">0g </tspan><tspan y="-412.7938" x="238.19472 243.53232 247.98166 250.20633 254.65567 257.32048 261.7698 263.99449 268.44383 272.89317 275.11784 280.0073 284.45664 286.6813 288.90599 293.35533">Saturated Fat 0g</tspan></text>
<text xml:space="preserve" transform="matrix(1 0 -0 1 0 792)" font-size="8.0024" font-family="Helvetica" font-style="italic"><tspan y="-400.7902" x="228.1357 238.19472 243.08419 245.74898 250.19832 254.64766"> Trans</tspan></text>
<text xml:space="preserve" transform="matrix(1 0 -0 1 0 792)" font-size="8.0024" font-family="Helvetica"><tspan y="-400.7902" x="258.64888 260.87355 265.763 270.21235 272.437 274.66169 279.11103 283.56037"> Fat 0g </tspan></text>
<text xml:space="preserve" transform="matrix(1 0 -0 1 0 792)" font-size="8.0024" font-family="Helvetica" font-weight="bold"><tspan y="-388.7866" x="228.1357 234.36156 239.69916 245.03676 247.70156 253.03916 257.92863 261.4817 266.8193 270.37239 275.71 278.3748">Cholesterol </tspan></text>
<text xml:space="preserve" transform="matrix(1 0 -0 1 0 792)" font-size="8.0024" font-family="Helvetica"><tspan y="-388.7866" x="281.03959 285.48893 292.1549 296.60426">0mg </tspan></text>
<text xml:space="preserve" transform="matrix(1 0 -0 1 0 792)" font-size="8.0024" font-family="Helvetica" font-weight="bold"><tspan y="-376.783" x="228.1357 233.91344 239.25104 244.58864 247.25344 252.59104 260.59346">Sodium </tspan></text>
<text xml:space="preserve" transform="matrix(1 0 -0 1 0 792)" font-size="8.0024" font-family="Helvetica"><tspan y="-376.783" x="263.25825 267.70759 272.15693 278.8229 283.27226">75mg </tspan></text>
<text xml:space="preserve" transform="matrix(1 0 -0 1 0 792)" font-size="8.0024" font-family="Helvetica" font-weight="bold"><tspan y="-364.7794" x="228.1357 233.91344 239.25104 242.80411 248.14171 250.8065 253.4713 259.69718 265.0348 268.58787 273.92549 279.2631 284.6007 289.49018 294.8278 298.38087 303.71849 307.27156 312.60917">Total Carbohydrate </tspan></text>
<text xml:space="preserve" transform="matrix(1 0 -0 1 0 792)" font-size="8.0024" font-family="Helvetica"><tspan y="-364.7794" x="315.27397 319.7233 324.17265">5g </tspan><tspan y="-352.7758" x="238.19472 243.97246 245.749 250.19834 252.423 256.87236 259.53715 263.53834 265.763 270.65248 272.429 276.87834 281.32768 283.99247 286.21714 290.66648 295.1158">Dietary Fiber 1g </tspan><tspan y="-340.7722" x="238.19472 243.08419 247.53353 249.7582 254.20754 255.98407 258.20875 263.54637 267.9957 272.44505 276.89439 279.55918 283.56037 285.78504 290.23439 294.68373">Total Sugars 3g </tspan><tspan y="-328.7686" x="248.1337 250.35837 254.80771 258.8089 260.58543 265.03477 269.4841 273.93345 277.93464 280.1593 284.60865 289.05799 291.28266 296.62028 301.0696 305.51896 309.9683 314.41764 316.6423 321.97993 326.42927 330.8786 335.32795 337.99275 341.99394">Includes 0g Added Sugars </tspan></text>
<text xml:space="preserve" transform="matrix(1 0 -0 1 0 792)" font-size="8.0024" font-family="Helvetica" font-weight="bold"><tspan y="-316.76499" x="228.1357 233.91344 237.4665 242.80411 246.35718 251.69478 254.35958 259.69718">Protein </tspan></text>
<text xml:space="preserve" transform="matrix(1 0 -0 1 0 792)" font-size="8.0024" font-family="Helvetica"><tspan y="-316.76499" x="262.36198 266.8113 271.26066">0g </tspan></text>
<text xml:space="preserve" transform="matrix(1 0 -0 1 0 792)" font-size="8.0024" font-family="Helvetica" font-weight="bold"><tspan y="-424.76539" x="370.61045 376.34819 384.7507">0% </tspan><tspan y="-364.75538" x="370.61045 376.34819 384.7507">5% </tspan><tspan y="-316.74897" x="370.61045 376.34819 384.7507">0% </tspan></text>
<path transform="matrix(1,0,0,-1,227.6662,358.5034)" stroke-width=".25" stroke-linecap="butt" stroke-miterlimit="4" stroke-linejoin="miter" fill="none" stroke="#000000" d="M0 0H156.664M0 0H156.664"/>
<path transform="matrix(1,0,0,-1,227.6662,370.5059)" stroke-width=".25" stroke-linecap="butt" stroke-miterlimit="4" stroke-linejoin="miter" fill="none" stroke="#000000" d="M0 0H156.664"/>
<path transform="matrix(1,0,0,-1,227.6662,382.5083)" stroke-width=".25" stroke-linecap="butt" stroke-miterlimit="4" stroke-linejoin="miter" fill="none" stroke="#000000" d="M0 0H156.664"/>
<path transform="matrix(1,0,0,-1,227.6662,394.5107)" stroke-width=".25" stroke-linecap="butt" stroke-miterlimit="4" stroke-linejoin="miter" fill="none" stroke="#000000" d="M0 0H156.664"/>
<path transform="matrix(1,0,0,-1,227.6662,406.5132)" stroke-width=".25" stroke-linecap="butt" stroke-miterlimit="4" stroke-linejoin="miter" fill="none" stroke="#000000" d="M0 0H156.664"/>
<path transform="matrix(1,0,0,-1,227.6662,418.5156)" stroke-width=".25" stroke-linecap="butt" stroke-miterlimit="4" stroke-linejoin="miter" fill="none" stroke="#000000" d="M0 0H156.664"/>
<path transform="matrix(1,0,0,-1,227.6662,430.5181)" stroke-width=".25" stroke-linecap="butt" stroke-miterlimit="4" stroke-linejoin="miter" fill="none" stroke="#000000" d="M0 0H156.664"/>
<path transform="matrix(1,0,0,-1,227.6662,442.5205)" stroke-width=".25" stroke-linecap="butt" stroke-miterlimit="4" stroke-linejoin="miter" fill="none" stroke="#000000" d="M0 0H156.664"/>
<path transform="matrix(1,0,0,-1,248.1321,454.5229)" stroke-width=".25" stroke-linecap="butt" stroke-miterlimit="4" stroke-linejoin="miter" fill="none" stroke="#000000" d="M0 0H136.198"/>
<path transform="matrix(1,0,0,-1,227.6662,466.5254)" stroke-width=".25" stroke-linecap="butt" stroke-miterlimit="4" stroke-linejoin="miter" fill="none" stroke="#000000" d="M0 0H156.664"/>
<path transform="matrix(1,0,0,-1,227.6662,521.9917)" stroke-width=".25" stroke-linecap="butt" stroke-miterlimit="4" stroke-linejoin="miter" fill="none" stroke="#000000" d="M0 0H156.664"/>
<path transform="matrix(1,0,0,-1,227.6702,482.5278)" stroke-width="7" stroke-linecap="butt" stroke-miterlimit="4" stroke-linejoin="miter" fill="none" stroke="#000000" d="M0 0H156.664"/>
<path transform="matrix(1,0,0,-1,227.6662,278.71339)" stroke-width=".25" stroke-linecap="butt" stroke-miterlimit="4" stroke-linejoin="miter" fill="none" stroke="#000000" d="M0 0H156.664"/>
<text xml:space="preserve" transform="matrix(1 0 -0 1 0 792)" font-size="8.0024" font-family="Helvetica"><tspan y="-297.3237" x="228.1357 233.4733 235.24983 237.4745 241.92385 248.58985 250.36638 254.81572 257.04039 262.8181 265.0428 269.49214 276.1581 280.1593 284.60865">Vitamin D 0mcg </tspan><tspan y="-285.3201" x="228.1357 233.91344 238.36278 240.13932 244.14052 245.91706 250.3664 257.03239 259.25706 263.7064 268.15574 274.82173 279.27107">Calcium 10mg </tspan><tspan y="-273.3165" x="228.1357 230.36037 233.02516 237.4745 241.92385 244.14852 248.59786 255.26386 259.7132">Iron 1mg </tspan><tspan y="-261.3129" x="228.1357 233.4733 237.92264 240.14731 244.59665 248.59786 252.59906 254.3756 258.82493 265.4909 267.71559 272.16493 276.61427 281.0636 287.72959 292.17893">Potassium 230mg </tspan><tspan y="-297.3157" x="372.38697 377.23643 384.75068">0% </tspan><tspan y="-285.3121" x="372.38697 377.23643 384.75068">4% </tspan><tspan y="-273.3085" x="367.5375 372.38697 377.23643 384.75068">10% </tspan><tspan y="-261.3049" x="367.5375 372.38697 377.23643 384.75068">35% </tspan></text>
<path transform="matrix(1,0,0,-1,227.6662,497.9868)" stroke-width=".25" stroke-linecap="butt" stroke-miterlimit="4" stroke-linejoin="miter" fill="none" stroke="#000000" d="M0 0H156.664"/>
<path transform="matrix(1,0,0,-1,227.6662,509.9893)" stroke-width=".25" stroke-linecap="butt" stroke-miterlimit="4" stroke-linejoin="miter" fill="none" stroke="#000000" d="M0 0H156.664"/>
<text xml:space="preserve" transform="matrix(1 0 -0 1 0 792)" font-size="20" font-family="Helvetica" font-weight="bold"><tspan y="-517.1865" x="226.2881 242.5481 255.5081 264.00813 272.50813 278.7681 287.2681 293.5481 306.5081 319.84809 326.5081 339.34809 352.18809 365.02809 373.40809 385.12809">Nutrition Facts </tspan></text>
<text xml:space="preserve" transform="matrix(1 0 -0 1 0 792)" font-size="11" font-family="Helvetica" font-weight="bold"><tspan y="-68.5464" x="302.3315 309.66853">8 </tspan></text>
</svg>
