<svg xmlns="http://www.w3.org/2000/svg" xmlns:xlink="http://www.w3.org/1999/xlink" version="1.1" width="612pt" height="792pt" viewBox="0 0 612 792">
<text fill-opacity="0" xml:space="preserve" transform="matrix(1 0 -0 1 0 792)" font-size="8.0024" font-family="Helvetica" font-weight="bold" font-style="italic"><tspan y="-503.7711" x="202.6798 204.90447 207.12914 229.80794">    </tspan></text>
<text fill-opacity="0" xml:space="preserve" transform="matrix(1 0 -0 1 0 792)" font-size="8.0024" font-family="Helvetica"><tspan y="-479.87593" x="202.6798 204.90447 207.12914">   </tspan></text>
<text fill-opacity="0" xml:space="preserve" transform="matrix(1 0 -0 1 0 792)" font-size="8.0024" font-family="Helvetica" font-weight="bold"><tspan y="-431.8615" x="234.6974"> </tspan></text>
<text fill-opacity="0" xml:space="preserve" transform="matrix(1 0 -0 1 0 792)" font-size="8.0024" font-family="Helvetica"><tspan y="-419.8579" x="202.6798 204.74442 206.80904 208.87366 210.93828 213.0029">      </tspan></text>
<text fill-opacity="0" xml:space="preserve" transform="matrix(1 0 -0 1 0 792)" font-size="8.0024" font-family="Helvetica" font-weight="bold"><tspan y="-419.8579" x="241.75553"> </tspan></text>
<text fill-opacity="0" xml:space="preserve" transform="matrix(1 0 -0 1 0 792)" font-size="8.0024" font-family="Helvetica"><tspan y="-395.8587" x="228.94368"> </tspan><tspan y="-224.26323" x="241.94759"> </tspan></text>
<text fill-opacity="0" xml:space="preserve" transform="matrix(1 0 -0 1 0 792)" font-size="10" font-family="Helvetica" font-weight="bold"><tspan y="-554.6689" x="274.4971 287.40708 290.73707 294.06706 297.39704">     </tspan><tspan y="-594.14889" x="203.81711"> </tspan></text>
<text xml:space="preserve" transform="matrix(1 0 -0 1 0 792)" font-size="11" font-family="Helvetica" font-weight="bold"><tspan y="-696.1113" x="164.8335 173.3915 180.7285 188.0655 191.7285 195.3915 203.9495 211.2865 214.9495 222.2865 233.2865 240.6235 244.2865 252.8445 256.5075 263.22853 270.56553 274.22853 281.56553 288.28654 291.94953 296.22853 303.56553 308.44953 312.11253 319.44953 323.11253 331.67054 335.33354 339.61253 343.8915 351.22853 356.11253 363.44953 370.78654 375.67054 379.33354 387.89155 396.44956 400.72856 404.39155 413.55455 418.43855 425.77555 433.11256 440.44956 447.17057">Dual Column Display for 2 Different RDI Groups </tspan></text>
<text xml:space="preserve" transform="matrix(1 0 -0 1 0 792)" font-size="10" font-family="Helvetica"><tspan y="-684.1113" x="262.6504 268.2104 273.7704 276.55039 283.7704 289.88038 297.10038 299.88038 305.44038 311.00038 316.56037 319.34037 324.90037 328.23036 333.79035 337.12034 340.45033 346.0103 349.3403">21 CFR 101.9(e)(5) </tspan></text>
<path transform="matrix(1,0,0,-1,202.6838,205.07727)" stroke-width="7" stroke-linecap="butt" stroke-miterlimit="4" stroke-linejoin="miter" fill="none" stroke="#000000" d="M0 0H206.635"/>
<path transform="matrix(1,0,0,-1,202.678,241.89282)" stroke-width="3" stroke-linecap="butt" stroke-miterlimit="4" stroke-linejoin="miter" fill="none" stroke="#000000" d="M0 0H206.523"/>
<path transform="matrix(1,0,0,-1,202.678,255.42499)" stroke-width=".25" stroke-linecap="butt" stroke-miterlimit="4" stroke-linejoin="miter" fill="none" stroke="#000000" d="M0 0H206.523"/>
<path transform="matrix(1,0,0,-1,202.678,267.42689)" stroke-width=".25" stroke-linecap="butt" stroke-miterlimit="4" stroke-linejoin="miter" fill="none" stroke="#000000" d="M0 0H206.523"/>
<path transform="matrix(1,0,0,-1,202.678,279.42988)" stroke-width=".25" stroke-linecap="butt" stroke-miterlimit="4" stroke-linejoin="miter" fill="none" stroke="#000000" d="M0 0H206.523"/>
<path transform="matrix(1,0,0,-1,202.678,291.4318)" stroke-width=".25" stroke-linecap="butt" stroke-miterlimit="4" stroke-linejoin="miter" fill="none" stroke="#000000" d="M0 0H206.523"/>
<path transform="matrix(1,0,0,-1,202.678,303.4347)" stroke-width=".25" stroke-linecap="butt" stroke-miterlimit="4" stroke-linejoin="miter" fill="none" stroke="#000000" d="M0 0H206.523"/>
<path transform="matrix(1,0,0,-1,202.678,315.4367)" stroke-width=".25" stroke-linecap="butt" stroke-miterlimit="4" stroke-linejoin="miter" fill="none" stroke="#000000" d="M0 0H206.523"/>
<path transform="matrix(1,0,0,-1,202.678,327.4396)" stroke-width=".25" stroke-linecap="butt" stroke-miterlimit="4" stroke-linejoin="miter" fill="none" stroke="#000000" d="M0 0H206.523"/>
<path transform="matrix(1,0,0,-1,202.678,339.4416)" stroke-width=".25" stroke-linecap="butt" stroke-miterlimit="4" stroke-linejoin="miter" fill="none" stroke="#000000" d="M0 0H206.523"/>
<path transform="matrix(1,0,0,-1,202.678,351.4445)" stroke-width=".25" stroke-linecap="butt" stroke-miterlimit="4" stroke-linejoin="miter" fill="none" stroke="#000000" d="M0 0H206.523"/>
<path transform="matrix(1,0,0,-1,202.678,363.4464)" stroke-width=".25" stroke-linecap="butt" stroke-miterlimit="4" stroke-linejoin="miter" fill="none" stroke="#000000" d="M0 0H206.523"/>
<path transform="matrix(1,0,0,-1,202.678,375.4484)" stroke-width=".25" stroke-linecap="butt" stroke-miterlimit="4" stroke-linejoin="miter" fill="none" stroke="#000000" d="M0 0H206.523"/>
<path transform="matrix(1,0,0,-1,215.7483,387.4513)" stroke-width=".25" stroke-linecap="butt" stroke-miterlimit="4" stroke-linejoin="miter" fill="none" stroke="#000000" d="M0 0H193.453"/>
<path transform="matrix(1,0,0,-1,202.678,399.4533)" stroke-width=".25" stroke-linecap="butt" stroke-miterlimit="4" stroke-linejoin="miter" fill="none" stroke="#000000" d="M0 0H206.523"/>
<path transform="matrix(1,0,0,-1,202.678,411.4562)" stroke-width=".25" stroke-linecap="butt" stroke-miterlimit="4" stroke-linejoin="miter" fill="none" stroke="#000000" d="M0 0H206.523"/>
<path transform="matrix(1,0,0,-1,202.678,441.966)" stroke-width=".25" stroke-linecap="butt" stroke-miterlimit="4" stroke-linejoin="miter" fill="none" stroke="#000000" d="M0 0H206.523"/>
<path transform="matrix(1,0,0,-1,202.678,429.964)" stroke-width=".25" stroke-linecap="butt" stroke-miterlimit="4" stroke-linejoin="miter" fill="none" stroke="#000000" d="M0 0H206.523"/>
<path transform="matrix(1,0,0,-1,202.678,453.9689)" stroke-width=".25" stroke-linecap="butt" stroke-miterlimit="4" stroke-linejoin="miter" fill="none" stroke="#000000" d="M0 0H206.523"/>
<path transform="matrix(1,0,0,-1,202.678,465.9709)" stroke-width=".25" stroke-linecap="butt" stroke-miterlimit="4" stroke-linejoin="miter" fill="none" stroke="#000000" d="M0 0H206.523"/>
<path transform="matrix(1,0,0,-1,202.678,477.9738)" stroke-width=".25" stroke-linecap="butt" stroke-miterlimit="4" stroke-linejoin="miter" fill="none" stroke="#000000" d="M0 0H206.523"/>
<path transform="matrix(1,0,0,-1,202.678,489.9757)" stroke-width=".25" stroke-linecap="butt" stroke-miterlimit="4" stroke-linejoin="miter" fill="none" stroke="#000000" d="M0 0H206.523"/>
<path transform="matrix(1,0,0,-1,202.678,501.9777)" stroke-width=".25" stroke-linecap="butt" stroke-miterlimit="4" stroke-linejoin="miter" fill="none" stroke="#000000" d="M0 0H206.523"/>
<path transform="matrix(1,0,0,-1,202.678,513.9806)" stroke-width=".25" stroke-linecap="butt" stroke-miterlimit="4" stroke-linejoin="miter" fill="none" stroke="#000000" d="M0 0H206.523"/>
<path transform="matrix(1,0,0,-1,202.678,525.9826)" stroke-width=".25" stroke-linecap="butt" stroke-miterlimit="4" stroke-linejoin="miter" fill="none" stroke="#000000" d="M0 0H206.523"/>
<path transform="matrix(1,0,0,-1,202.678,537.9855)" stroke-width=".25" stroke-linecap="butt" stroke-miterlimit="4" stroke-linejoin="miter" fill="none" stroke="#000000" d="M0 0H206.523"/>
<path transform="matrix(1,0,0,-1,202.678,558.923)" stroke-width=".25" stroke-linecap="butt" stroke-miterlimit="4" stroke-linejoin="miter" fill="none" stroke="#000000" d="M0 0H206.523"/>
<path transform="matrix(1,0,0,-1,202.678,570.925)" stroke-width=".25" stroke-linecap="butt" stroke-miterlimit="4" stroke-linejoin="miter" fill="none" stroke="#000000" d="M0 0H206.523"/>
<path transform="matrix(1,0,0,-1,202.678,582.9279)" stroke-width=".25" stroke-linecap="butt" stroke-miterlimit="4" stroke-linejoin="miter" fill="none" stroke="#000000" d="M0 0H206.523"/>
<path transform="matrix(1,0,0,-1,202.678,594.9298)" stroke-width=".25" stroke-linecap="butt" stroke-miterlimit="4" stroke-linejoin="miter" fill="none" stroke="#000000" d="M0 0H206.523"/>
<text xml:space="preserve" transform="matrix(1 0 -0 1 0 792)" font-size="8.0024" font-family="Helvetica"><tspan y="-527.8823" x="285.3286 289.80998 294.29133">2g </tspan><tspan y="-515.8787" x="285.3286 289.74595 292.08424 296.6824 301.09974">0.5g </tspan><tspan y="-503.87513" x="285.3286 289.978 294.62739">0g </tspan><tspan y="-491.87153" x="285.3286 289.74595 292.08424 296.6824 301.09974">0.5g </tspan><tspan y="-479.86793" x="285.3286 289.74595 292.08424 296.6824 301.09974">0.5g </tspan><tspan y="-467.86433" x="285.3286 289.9588 296.76084 301.34623">0mg </tspan><tspan y="-455.86073" x="285.3286 289.36186 293.98725 298.61265 305.41548 310.04087">140mg </tspan><tspan y="-443.85713" x="285.3286 289.90599 294.55616 299.1335">20g </tspan><tspan y="-431.85353" x="285.3286 289.938 294.54737">3g </tspan><tspan y="-419.8499" x="285.3286 289.46586 293.6031">1g </tspan><tspan y="-407.8463" x="285.3286 289.46586 293.6031">1g </tspan><tspan y="-395.8507" x="285.3286 289.46586 293.6031">1g </tspan><tspan y="-383.8471" x="285.3286 289.938 294.54737">3g </tspan></text>
<text xml:space="preserve" transform="matrix(1 0 -0 1 0 792)" font-size="8.0024" font-family="Helvetica" font-weight="bold"><tspan y="-527.8423" x="331.9826 337.52027 345.72273">3% </tspan><tspan y="-515.8387" x="331.9826 337.52027 345.72273">3% </tspan><tspan y="-467.84028" x="331.92658 337.51225 345.76274">0% </tspan><tspan y="-455.83668" x="331.94258 337.51225 345.7467">6% </tspan><tspan y="-443.83308" x="331.94258 337.51225 345.7467">7% </tspan><tspan y="-431.82948" x="327.82936 332.51875 337.51304 344.86726">11% </tspan><tspan y="-395.82667" x="331.83055 337.50425 345.84275">2% </tspan><tspan y="-527.8263" x="395.89778 401.19535 409.15776">4% </tspan><tspan y="-515.8227" x="395.60969 401.19535 409.44584">0% </tspan><tspan y="-467.82429" x="395.60969 401.19535 409.44584">0% </tspan><tspan y="-455.82069" x="395.62568 401.19535 409.4298">7% </tspan><tspan y="-443.81709" x="390.53614 395.60966 401.19773 408.93605">10% </tspan><tspan y="-431.81349" x="390.94425 395.90574 401.20094 408.8272">14% </tspan><tspan y="-395.81068" x="395.90574 401.2033 409.1657">4% </tspan><tspan y="-383.80708" x="390.78419 395.8017 401.19853 408.88084">15% </tspan></text>
<text xml:space="preserve" transform="matrix(1 0 -0 1 0 792)" font-size="8.0024" font-family="Helvetica"><tspan y="-527.81826" x="352.27665 356.33387 358.67298 363.27116 367.32838">1.5g </tspan><tspan y="-515.81466" x="352.27665 356.92604 361.5754">0g </tspan><tspan y="-503.81105" x="352.27665 356.92604 361.5754">0g </tspan><tspan y="-491.80744" x="352.27665 356.69398 359.03227 363.63044 368.04777">0.5g </tspan><tspan y="-479.80384" x="352.27665 356.69398 359.03227 363.63044 368.04777">0.5g </tspan><tspan y="-467.80024" x="352.27665 356.90684 363.70887 368.29426">0mg </tspan><tspan y="-455.79664" x="352.27665 356.4539 361.05528 365.6046 372.40748 376.58473">105mg </tspan><tspan y="-443.79304" x="352.27665 356.38987 360.9872 365.10044">15g </tspan><tspan y="-431.78944" x="352.27665 356.758 361.23936">2g </tspan><tspan y="-419.78584" x="352.27665 356.41389 360.55113">1g </tspan><tspan y="-407.78224" x="352.27665 356.41389 360.55113">1g </tspan><tspan y="-395.78663" x="352.27665 356.41389 360.55113">1g </tspan><tspan y="-383.78303" x="352.27665 356.758 361.23936">2g </tspan></text>
<text xml:space="preserve" transform="matrix(1 0 -0 1 0 792)" font-size="8.0024" font-family="Helvetica" font-weight="bold"><tspan y="-527.7782" x="202.67977 208.4575 213.7951 217.34818 222.68578 225.35057 228.01537 233.35297 238.69057">Total Fat</tspan></text>
<text xml:space="preserve" transform="matrix(1 0 -0 1 0 792)" font-size="8.0024" font-family="Helvetica"><tspan y="-515.7746" x="202.67977 204.90444 207.1291 209.35378 214.69138 219.14072 221.36539 225.81473 228.47953 232.92887 235.15354 239.60288 244.05222 246.27689 251.16635 255.61569 257.84037">   Saturated Fat </tspan></text>
<text xml:space="preserve" transform="matrix(1 0 -0 1 0 792)" font-size="8.0024" font-family="Helvetica" font-style="italic"><tspan y="-503.771" x="209.35376 214.24323 216.90802 221.35736 225.8067 229.8079">Trans </tspan></text>
<text xml:space="preserve" transform="matrix(1 0 -0 1 0 792)" font-size="8.0024" font-family="Helvetica"><tspan y="-503.771" x="232.03258 236.92205 241.37139">Fat</tspan></text>
<text xml:space="preserve" transform="matrix(.9486859 0 -0 1.0540897 0 792)" font-size="7.5917646" font-family="Helvetica"><tspan y="-466.6344" x="213.64311 215.75362 217.86414 219.97464 225.03835 229.25937 230.94475 234.74063 238.96166 243.18268 246.97856 251.19959 253.3101 257.53114 260.05918 264.2802 266.39073 270.61174 274.83274 276.94325 281.58183 285.80284 287.91334">   Polyunsaturated Fat </tspan><tspan y="-455.24678" x="220.67308 226.99703 231.21805 235.43907 239.6601 243.88112 248.10214 251.89803 256.11906 258.22956 262.4506 264.97865 269.19969 271.31016 275.5312 279.7522 281.8627 286.50129 290.7223 292.8328">Monounsaturated Fat </tspan></text>
<text xml:space="preserve" transform="matrix(1 0 -0 1 0 792)" font-size="8.0024" font-family="Helvetica" font-weight="bold"><tspan y="-467.8745" x="202.6802 208.90607 214.24367 219.58127 222.24607 227.58367 232.47313 236.0262 241.3638 244.91687 250.25447 252.91927">Cholesterol </tspan><tspan y="-455.8709" x="202.6802 208.45795 213.79555 219.13315 221.79795 227.13555 235.13794">Sodium </tspan><tspan y="-443.8673" x="202.6802 208.45795 213.79555 217.34862 222.68622 225.35102 228.01581 234.24167 239.57927 243.13234 248.46994">Total Carb.</tspan></text>
<text xml:space="preserve" transform="matrix(1 0 -0 1 0 792)" font-size="8.0024" font-family="Helvetica"><tspan y="-431.8637" x="202.6802 204.90488 207.12955 209.35422 215.13196 216.9085 221.35784 223.5825 228.03185 230.69664 234.69785 236.92252 241.81198 243.58852 248.03786 252.4872 255.152">   Dietary Fiber </tspan><tspan y="-419.8601" x="215.06792 220.40552 224.85486 226.6314 231.08074 235.53008 237.30661 241.75595 243.98062 248.87009 250.64662 255.09597 259.5453">Soluble Fiber</tspan><tspan y="-407.8565" x="202.6802 204.90488 207.12955 209.35422 214.24369 218.69303 220.9177 225.36704 227.14357 229.36824 234.70584 239.15518 243.60453 248.05387 250.71866">   Total Sugars</tspan><tspan y="-395.8609" x="202.6802 204.74483 206.80945 208.87407 210.93869 213.00331 215.06793 217.13256 221.42185 225.263 226.87949 229.96042 235.13797 239.42726 243.71656 248.00585 252.29514 254.35976 259.53733 263.8266 268.11589 272.40516 274.9099 278.75108">      Incl.Added Sugars </tspan></text>
<text xml:space="preserve" transform="matrix(1 0 -0 1 0 792)" font-size="8.0024" font-family="Helvetica" font-weight="bold"><tspan y="-383.8573" x="202.6802 208.45795 212.01102 217.34862 220.90169 226.23929 228.90409 234.24169">Protein </tspan></text>
<text xml:space="preserve" transform="matrix(1 0 -0 1 0 792)" font-size="6" font-family="Helvetica" font-weight="bold"><tspan y="-540.25" x="324.8506 330.8506 332.84858 337.51658 342.18458 345.52058 385.19859 391.19859 393.19657 397.86457 402.53257 405.86857 409.20457">% DV* % DV** </tspan></text>
<text xml:space="preserve" transform="matrix(1 0 -0 1 0 792)" font-size="8.0024" font-family="Helvetica"><tspan y="-365.2661" x="285.3286 289.84999 296.64323 300.83808 305.35945">2mcg </tspan><tspan y="-353.2625" x="285.3286 289.47386 294.0952 298.72459 305.5274 309.67265">130mg </tspan><tspan y="-341.2589" x="285.3286 289.914 296.71604 301.30143">8mg </tspan><tspan y="-329.2553" x="285.3286 289.67955 294.30494 298.93034 305.73316 310.35856">240mg </tspan><tspan y="-317.2517" x="285.3286 289.9868 294.61698 301.411 305.60588 310.18324">90mcg </tspan><tspan y="-305.2481" x="285.3286 289.93083 296.73286 301.31825">9mg </tspan><tspan y="-293.2445" x="285.3286 289.74757 292.0923 296.67768 303.4797 308.0651">0.3mg </tspan><tspan y="-281.2409" x="285.3286 289.9588 296.76084 301.34623">0mg </tspan><tspan y="-269.2373" x="285.3286 289.84999 296.65284 301.1742">4mg </tspan><tspan y="-257.2337" x="285.3286 289.74754 291.9242 296.44474 303.24839 307.6497">0.4mg </tspan><tspan y="-236.23542" x="285.3286 287.65974 291.75935 296.3367 300.96769 307.76173 311.95658 316.19624 318.98908">(120mcg) </tspan><tspan y="-224.23181" x="285.3286 289.74595 292.08424 296.6336 303.42765 307.62168 312.039">0.5mcg </tspan><tspan y="-212.22821" x="285.3286 289.47386 294.0952 298.72459 305.5274 309.67265">130mg </tspan><tspan y="-200.22461" x="285.3286 289.92597 294.4713 301.27497 305.8203">35mg </tspan><tspan y="-188.22101" x="285.3286 289.914 296.71604 301.30143">3mg </tspan><tspan y="-365.21809" x="352.2767 356.33393 358.67304 363.2224 370.01567 374.2113 378.26853">1.5mcg </tspan><tspan y="-353.21449" x="352.2767 356.45396 361.13136 365.76155 372.5644 376.74165">100mg </tspan><tspan y="-341.21089" x="352.2767 356.8805 363.68254 368.2679">6mg </tspan><tspan y="-329.20729" x="352.2767 356.42997 361.05137 365.68077 372.48359 376.63685">180mg </tspan><tspan y="-317.20368" x="352.2767 356.71806 361.34825 368.14228 372.33714 376.77848">70mcg </tspan><tspan y="-305.20008" x="352.2767 356.55799 363.36085 367.64213">7mg </tspan><tspan y="-293.19648" x="352.2767 356.69404 359.11958 363.64253 370.44538 374.8627">0.2mg </tspan><tspan y="-281.19288" x="352.2767 356.9069 363.70893 368.2943">0mg </tspan><tspan y="-269.18928" x="352.2767 356.8621 363.66413 368.2495">3mg </tspan><tspan y="-257.18568" x="352.2767 356.69566 359.04039 363.62577 370.4278 375.01319">0.3mg </tspan><tspan y="-236.18738" x="352.2767 354.84867 359.50688 364.13706 370.9311 375.12678 379.36805 381.82478">(90mcg) </tspan><tspan y="-224.18378" x="352.2767 356.69563 358.87229 363.39283 370.18766 374.3825 378.7838">0.4mcg </tspan><tspan y="-212.18018" x="352.2767 356.45396 361.13136 365.76155 372.5644 376.74165">100mg </tspan><tspan y="-200.17658" x="352.2767 356.80607 361.3546 368.15748 372.68684">25mg </tspan><tspan y="-188.17298" x="352.2767 356.79808 359.1428 363.72819 370.5302 375.1156">2.3mg </tspan><tspan y="-365.17005" x="329.11778 333.295 337.86277 344.7048">10% </tspan><tspan y="-353.16645" x="329.11778 333.295 337.86277 344.7048">10% </tspan><tspan y="-341.16285" x="328.84568 333.48069 337.858 344.90013">45% </tspan><tspan y="-329.15925" x="333.303 337.85639 345.07456">6% </tspan><tspan y="-317.15565" x="329.46986 333.24699 337.85636 345.13053">10% </tspan><tspan y="-305.15205" x="329.90998 333.6871 337.85636 344.9705">10% </tspan><tspan y="-293.14845" x="328.94969 333.47666 337.85398 344.8961">25% </tspan><tspan y="-281.14485" x="333.287 337.85636 345.0905">0% </tspan><tspan y="-269.14125" x="328.94969 333.47666 337.85398 344.8961">25% </tspan><tspan y="-257.13764" x="328.94969 333.47666 337.85398 344.8961">25% </tspan><tspan y="-245.13404" x="328.6936 333.29258 337.86195 345.0961">50% </tspan><tspan y="-224.13574" x="328.94969 333.47666 337.85398 344.8961">25% </tspan><tspan y="-212.13214" x="329.1097 333.28697 337.8547 344.69676">10% </tspan><tspan y="-200.12854" x="333.35099 337.85633 345.0265">8% </tspan><tspan y="-188.12494" x="328.94969 333.47666 337.85398 344.8961">25% </tspan><tspan y="-365.122" x="392.48875 396.666 401.23374 408.07579">10% </tspan><tspan y="-353.1184" x="392.7448 396.85804 401.23854 408.01658">15% </tspan><tspan y="-341.1148" x="392.0086 396.6668 401.23619 408.47035">90% </tspan><tspan y="-329.1112" x="396.674 401.2274 408.44557">6% </tspan><tspan y="-317.1076" x="393.12095 397.25019 401.2274 408.34153">25% </tspan><tspan y="-305.104" x="393.0089 397.2422 401.2274 408.34153">45% </tspan><tspan y="-293.1004" x="392.03263 396.6604 401.22978 408.46394">40% </tspan><tspan y="-281.0968" x="396.65803 401.2274 408.46156">0% </tspan><tspan y="-269.0932" x="392.05665 396.6556 401.22499 408.45915">50% </tspan><tspan y="-257.0896" x="392.0006 396.658 401.22737 408.46153">60% </tspan><tspan y="-245.086" x="387.79936 391.9766 396.654 401.22175 408.06379">100% </tspan><tspan y="-224.0877" x="392.20869 396.8437 401.2258 408.2679">45% </tspan><tspan y="-212.0841" x="392.08064 396.6556 401.22499 408.45915">20% </tspan><tspan y="-200.0805" x="392.03263 396.654 401.22337 408.45753">30% </tspan><tspan y="-188.0769" x="392.03263 396.654 401.22337 408.45753">80% </tspan><tspan y="-365.07398" x="202.66382 208.00142 209.77796 212.00263 216.45197 223.11797 224.8945 229.34384 231.56851 237.34626">Vitamin D </tspan><tspan y="-353.07038" x="202.66382 208.44156 212.8909 214.66744 218.66864 220.44518 224.89452 231.56052">Calcium </tspan><tspan y="-341.06678" x="202.66382 204.88849 207.55329 212.00263 216.45197">Iron </tspan><tspan y="-329.06318" x="202.66382 208.00142 212.45076 214.67543 219.12477 223.12598 227.12718 228.90372 233.35306 240.01906">Potassium </tspan><tspan y="-317.05958" x="202.66382 208.00142 209.77796 212.00263 216.45197 223.11797 224.8945 229.34384 231.56851 236.90612">Vitamin A </tspan><tspan y="-305.05598" x="202.66382 208.00142 209.77796 212.00263 216.45197 223.11797 224.8945 229.34384 231.56851 237.34626">Vitamin C </tspan><tspan y="-293.05238" x="202.66382 207.55329 212.00263 213.77916 218.2285 224.8945 226.67104 231.12038">Thiamin </tspan><tspan y="-281.04878" x="202.66382 208.44156 210.2181 214.66744 219.11678 221.34145 223.11798 227.56732 231.56853 233.34506 237.7944">Riboflavin </tspan><tspan y="-269.04518" x="202.66382 208.44156 210.2181 214.66744 218.66864 220.44518 224.89452">Niacin </tspan><tspan y="-257.04158" x="202.66382 208.00142 209.77796 212.00263 216.45197 223.11797 224.8945 229.34384 231.56851">Vitamin B</tspan></text>
<text xml:space="preserve" transform="matrix(1 0 -0 1 0 792)" font-size="4.664" font-family="Helvetica"><tspan y="-255.6035" x="236.9263 239.51949">6 </tspan></text>
<text xml:space="preserve" transform="matrix(1 0 -0 1 0 792)" font-size="8.0024" font-family="Helvetica"><tspan y="-245.2671" x="202.6802 207.56967 212.01902 213.79555 218.24489 220.46956">Folate</tspan><tspan y="-236.2644" x="202.6802 204.90488 207.12955 209.35422 212.01902 214.24369 218.69303 220.46956 222.2461 226.2473 228.47197 232.92131 236.92252 238.69905 243.14839 245.81319">   (folic acid) </tspan><tspan y="-224.2608" x="202.6802 208.0178 209.79434 212.01902 216.46836 223.13436 224.91089 229.36023 231.5849">Vitamin B</tspan></text>
<text xml:space="preserve" transform="matrix(1 0 -0 1 0 792)" font-size="4.664" font-family="Helvetica"><tspan y="-222.6035" x="236.9263 239.43553 241.94477">12 </tspan></text>
<text xml:space="preserve" transform="matrix(1 0 -0 1 0 792)" font-size="8.0024" font-family="Helvetica"><tspan y="-212.264" x="202.678 208.0156 212.46494 216.91428 220.91548 225.36483 229.81417 234.2635 236.9283 241.37764 245.37885">Phosphorus </tspan><tspan y="-200.2604" x="202.678 209.344 213.79334 218.24268 222.69202 227.14136 231.14257 232.9191 237.36844 244.03444">Magnesium </tspan><tspan y="-188.2568" x="202.678 207.56746 209.344 213.79334 217.79454">Zinc </tspan></text>
<text xml:space="preserve" transform="matrix(1 0 -0 1 0 792)" font-size="6" font-family="Helvetica"><tspan y="-172.8447" x="208.3066 211.9726 215.3086 218.64459 220.31259 225.64659 227.31459 231.64659 234.98259 236.31459 237.64659 240.64659 242.31459 246.31659 249.65259 250.98459 254.32059 257.6566 259.3246 261.32258 265.65458 269.6566 271.65458 273.32258 274.99058 278.32658 279.65858 280.99058 283.99058 285.65858 288.65858 291.99458 295.33058 296.99858 300.33457 303.67057 308.00257 309.67057 314.66856 318.00456 321.00456 324.34056 326.00856 329.34455 331.01255 334.34855 337.68455 339.35255 341.35054 342.68254 346.01853 349.35453 351.02253 352.69053 354.02253 357.35853 359.02653 362.36253 364.03053 367.03053 370.36653 372.3645 375.3645 376.6965 380.0325 383.3685 385.0365 388.3725 390.0405 391.7085 393.3765 396.7125 400.0485 403.3845">The % Daily Value (DV) tells you how much a nutrient in a serving of food </tspan><tspan y="-165.8427" x="208.3066 211.3066 214.6426 217.97859 219.64659 221.64459 222.9766 226.31259 229.64859 231.31659 234.65259 237.65259 239.32059 240.98859 244.32459 245.99259 249.32859 250.99658 254.33258 257.66859 259.00059 260.33259 263.33259 265.00059 268.33659 269.66859 273.00459 274.67259 276.34059 278.00859 281.34458 283.01258 286.34858 289.68458 293.02058 294.68858 297.68858 301.02458 302.35658 305.69258 307.69056 309.02256 312.35856 315.35856 317.02656 320.36256 322.03056 325.36656 328.70256 331.70256 333.37055 334.70256 337.70256 339.37055 342.70655 345.70655 349.04255 352.37855 354.04655 355.71455 359.05055 361.04853 362.71653 366.05253 369.38853 372.72453 376.06053 378.0585 381.3945 382.7265 384.3945 387.7305 391.0665 392.7345 394.73249 396.06449 397.73249 399.06449 402.40049">contributes to a daily diet. 2,000 calories a day is used for general nutrition</tspan><tspan y="-158.8407" x="208.3066 211.6426 214.97859 217.97859 219.3106 222.3106 225.64659 227.31459">advice. </tspan><tspan y="-151.8387" x="208.3066 211.9726 215.3086 218.64459 220.31259 225.64659 227.31459 231.64659 234.98259 236.31459 237.64659 240.64659 242.31459 246.31659 249.65259 250.98459 254.32059 257.6566 259.3246 261.32258 265.65458 269.6566 271.65458 273.32258 274.99058 278.32658 279.65858 280.99058 283.99058 285.65858 288.65858 291.99458 295.33058 296.99858 300.33457 303.67057 308.00257 309.67057 314.66856 318.00456 321.00456 324.34056 326.00856 329.34455 331.01255 334.34855 337.68455 339.35255 341.35054 342.68254 346.01853 349.35453 351.02253 352.69053 354.02253 357.35853 359.02653 362.36253 364.03053 367.03053 370.36653 372.3645 375.3645 376.6965 380.0325 383.3685 385.0365 388.3725 390.0405 391.7085 393.3765 396.7125 400.0485">The % Daily Value (DV) tells you how much a nutrient in a serving of food</tspan><tspan y="-144.8367" x="208.3066 211.3066 214.6426 217.97859 219.64659 221.64459 222.9766 226.31259 229.64859 231.31659 234.65259 237.65259 239.32059 240.98859 244.32459 245.99259 249.32859 250.99658 254.33258 257.66859 259.00059 260.33259 263.33259 265.00059 268.33659 269.66859 273.00459 274.67259 276.34059 278.00859 281.34458 283.01258 286.34858 289.68458 293.02058 294.68858 297.68858 301.02458 302.35658 305.69258 307.69056 309.02256 312.35856 315.35856 317.02656 320.36256 322.03056 325.36656 328.70256 331.70256 333.37055 334.70256 337.70256 339.37055 342.70655 345.70655 349.04255 352.37855 354.04655 355.71455 359.05055 361.04853 362.71653 366.05253 369.38853 372.72453 376.06053 378.0585 381.3945 382.7265 384.3945 387.7305 391.0665 392.7345 394.73249 396.06449 397.73249 399.06449 402.40049">contributes to a daily diet. 1,000 calories a day is used for general nutrition</tspan><tspan y="-137.8347" x="208.3066 211.6426 214.97859 217.97859 219.3106 222.3106 225.64659 227.31459 228.98259 232.31859 234.31659 235.98459 238.98459 242.32059 243.65259 244.98879 248.32479 250.32279 253.65879 256.99479 258.66279 261.99879 263.99678 267.33277 269.00077 272.00077 275.33677 278.67277 280.67076 283.67076 285.33876">advice for children 1-3 years. </tspan><tspan y="-172.8327" x="202.2466 204.5806">* </tspan><tspan y="-151.7547" x="202.2466 204.5806 206.9146">** </tspan></text>
<path transform="matrix(1,0,0,-1,202.6838,414.4582)" stroke-width="7" stroke-linecap="butt" stroke-miterlimit="4" stroke-linejoin="miter" fill="none" stroke="#000000" d="M0 0H206.635"/>
<path transform="matrix(1,0,0,-1,281.5686,464.839)" stroke-width="4.25" stroke-linecap="butt" stroke-miterlimit="4" stroke-linejoin="miter" fill="none" stroke="#ffffff" d="M0 0V253.729"/>
<text xml:space="preserve" transform="matrix(1 0 -0 1 0 792)" font-size="16" font-family="Helvetica" font-weight="bold"><tspan y="-554.6689" x="202.4971 214.9451 225.6171 230.9451 241.6171 248.7211 254.0491 264.7211 274.4971">Calories </tspan></text>
<text xml:space="preserve" transform="matrix(1 0 -0 1 0 792)" font-size="22" font-family="Helvetica" font-weight="bold"><tspan y="-554.6689" x="301.3271 316.0011 330.6751 345.34913">100 </tspan><tspan y="-554.7789" x="379.9331 394.60713 409.28114">80 </tspan></text>
<text xml:space="preserve" transform="matrix(1 0 -0 1 0 792)" font-size="6" font-family="Helvetica" font-weight="bold"><tspan y="-575.4609" x="364.5356 369.2036 373.20564 377.20765 379.20564 383.20765 385.20564 389.20765 391.20564 394.8716 398.87364 402.87565 405.53965 409.20564 302.8916 307.5596 311.5616 315.56364 317.5616 321.56364 325.52363 327.5216 331.1876 335.1896 339.19163 341.85563 345.5216">Age 1-3 years Age 4+ years </tspan></text>
<text xml:space="preserve" transform="matrix(1 0 -0 1 0 792)" font-size="26" font-family="Helvetica" font-weight="bold"><tspan y="-641.0937" x="202.355 223.493 240.341 251.391 262.441 270.57899 281.62898 289.79298 306.64097 323.98298 332.64097 349.33296 366.02497 382.71699 393.611 408.847">Nutrition Facts </tspan></text>
<path transform="matrix(1,0,0,-1,202.678,154.05579)" stroke-width=".25" stroke-linecap="butt" stroke-miterlimit="4" stroke-linejoin="miter" fill="none" stroke="#000000" d="M0 0H206.523"/>
<path transform="matrix(1,0,0,-1,281.5686,604.5265)" stroke-width="4.25" stroke-linecap="butt" stroke-miterlimit="4" stroke-linejoin="miter" fill="none" stroke="#ffffff" d="M0 0V393.417"/>
<path transform="matrix(1,0,0,-1,348.55,604.5265)" stroke-width="4.25" stroke-linecap="butt" stroke-miterlimit="4" stroke-linejoin="miter" fill="none" stroke="#ffffff" d="M0 0V393.417"/>
<path transform="matrix(1,0,0,-1,202.678,608.8791)" stroke-width="3" stroke-linecap="butt" stroke-miterlimit="4" stroke-linejoin="miter" fill="none" stroke="#000000" d="M0 0H206.523"/>
<path transform="matrix(1,0,0,-1,348.55,604.5265)" stroke-width=".25" stroke-linecap="butt" stroke-miterlimit="4" stroke-linejoin="miter" fill="none" stroke="#000000" d="M0 0V393.417"/>
<path transform="matrix(1,0,0,-1,281.5686,604.5265)" stroke-width=".25" stroke-linecap="butt" stroke-miterlimit="4" stroke-linejoin="miter" fill="none" stroke="#000000" d="M0 0V393.417"/>
<path transform="matrix(1,0,0,-1,412.8137,127.40637)" d="M0 0H-.5-213.131-213.631V-.5-532.009-532.51H-213.131-.5 0V-532.009-.5ZM-.5-532.009H-213.131V-.5H-.5Z"/>
<text xml:space="preserve" transform="matrix(1 0 -0 1 0 792)" font-size="10" font-family="Helvetica"><tspan y="-627.1445" x="203.8159 209.3759 214.9359 217.7159 222.7159 228.2759 231.6059 236.6059 238.8259 244.3859 249.94589 254.94589 257.7259 263.2859 268.8459 272.17588 274.95588 279.95588 285.51588 291.07588 293.85588 299.41587 301.63587 307.19587 312.75587 316.08586 318.86585 322.19584 327.75584 333.31584 338.87583 341.65583 347.21583 353.05583 355.83583 360.83583 366.3958 371.9558 375.2858 380.2858 383.61579">12 servings per container (age 4+ years) </tspan><tspan y="-616.1445" x="203.8159 209.3759 214.9359 217.7159 222.7159 228.2759 231.6059 236.6059 238.8259 244.3859 249.94589 254.94589 257.7259 263.2859 268.8459 272.17588 274.95588 279.95588 285.51588 291.07588 293.85588 299.41587 301.63587 307.19587 312.75587 316.08586 318.86585 322.19584 327.75584 333.31584 338.87583 341.65583 347.21583 350.5458 356.1058 358.8858 363.8858 369.4458 375.0058 378.3358 383.3358">16 servings per container (age 1-3 years)</tspan></text>
<text xml:space="preserve" transform="matrix(1 0 -0 1 0 792)" font-size="10" font-family="Helvetica" font-weight="bold"><tspan y="-605.1445" x="203.8159 211.0359 217.7059 222.1459 228.2559 231.5859 238.2559 244.9259 248.2559 254.3659 257.6959 263.2559 269.9259 280.4779 287.14793 290.4779 297.14793 303.81794 310.48796 313.81794 317.70796 324.37797 331.04798 337.718">Serving size 1 cup (28g)</tspan></text>
<text xml:space="preserve" transform="matrix(1 0 -0 1 0 792)" font-size="10" font-family="Helvetica"><tspan y="-605.1445" x="341.608 344.388 347.718 353.27799 358.83799 364.39799 367.17799 372.73799 378.57798 381.35798 386.35798 391.91798 397.47798 400.80796 405.80796 409.13795"> (age 4+ years) </tspan></text>
<text xml:space="preserve" transform="matrix(1 0 -0 1 0 792)" font-size="10" font-family="Helvetica" font-weight="bold"><tspan y="-594.1445" x="273.5459 283.5459 286.8759 293.5459 300.2159 306.88594 310.2159 314.10594 320.77595 327.44596 334.11598 338.00599">&#x00be; cup (21g) </tspan></text>
<text xml:space="preserve" transform="matrix(1 0 -0 1 0 792)" font-size="10" font-family="Helvetica"><tspan y="-594.1445" x="341.33598 344.66596 350.22596 355.78596 361.34596 364.12596 369.68595 373.01594 378.57594 381.35594 386.35594 391.91593 397.47593 400.8059 405.8129 409.14289">(age 1-3 years) </tspan></text>
<text xml:space="preserve" transform="matrix(1 0 -0 1 0 792)" font-size="11" font-family="Helvetica" font-weight="bold"><tspan y="-68.5464" x="298.6631 306.0001 313.3371">15 </tspan></text>
</svg>
