<svg xmlns="http://www.w3.org/2000/svg" xmlns:xlink="http://www.w3.org/1999/xlink" version="1.1" width="612pt" height="792pt" viewBox="0 0 612 792">
<text fill-opacity="0" xml:space="preserve" transform="matrix(1 0 -0 1 0 792)" font-size="8.0024" font-family="Helvetica" font-weight="bold" font-style="italic"><tspan y="-421.4776" x="202.4067 204.63137 206.85604 229.53484">    </tspan></text>
<text fill-opacity="0" xml:space="preserve" transform="matrix(1 0 -0 1 0 792)" font-size="8.0024" font-family="Helvetica" font-weight="bold"><tspan y="-371.4786" x="234.4243"> </tspan></text>
<text fill-opacity="0" xml:space="preserve" transform="matrix(1 0 -0 1 0 792)" font-size="8.0024" font-family="Helvetica"><tspan y="-346.4791" x="228.67058"> </tspan></text>
<text xml:space="preserve" transform="matrix(1 0 -0 1 0 792)" font-size="11" font-family="Helvetica" font-weight="bold"><tspan y="-696.1074" x="183.8561 192.4141 199.7511 207.0881 210.7511 214.4141 222.97209 230.3091 233.97209 241.3091 252.3091 259.6461 266.3671 270.0301 273.69309 281.63508 288.97209 293.85609 297.51908 305.46107 312.79808 317.68208 324.40309 328.06608 335.40309 342.74009 346.40309 353.74009 361.0771 368.4141 372.0771 380.01908 387.35609 392.24009 395.90309 405.06608 412.40309 416.06608 420.95008">Dual Columns, Per Serving and Per Unit </tspan></text>
<text xml:space="preserve" transform="matrix(1 0 -0 1 0 792)" font-size="10" font-family="Helvetica"><tspan y="-684.1123" x="253.2222 258.7822 264.3422 267.1222 274.3422 280.45219 287.67219 290.45219 296.01219 301.57218 307.13218 309.91218 315.47218 318.80216 324.36216 327.69215 331.02214 336.58213 339.9121 343.2421 345.4621 348.79209">21 CFR 101.9(e)(6)(i) </tspan></text>
<path transform="matrix(1,0,0,-1,202.8262,349.3986)" stroke-width=".25" stroke-linecap="butt" stroke-miterlimit="3.864" stroke-linejoin="miter" fill="none" stroke="#000000" d="M0 0H206.24"/>
<path transform="matrix(1,0,0,-1,202.543,336.3937)" stroke-width=".25" stroke-linecap="butt" stroke-miterlimit="3.864" stroke-linejoin="miter" fill="none" stroke="#000000" d="M0 0H206.523"/>
<path transform="matrix(1,0,0,-1,0,792)" d="M408.75 468.943H202.543V471.707H408.75Z"/>
<path transform="matrix(1,0,0,-1,202.543,411.3712)" stroke-width=".25" stroke-linecap="butt" stroke-miterlimit="3.864" stroke-linejoin="miter" fill="none" stroke="#000000" d="M0 0H206.523"/>
<path transform="matrix(1,0,0,-1,203.1885,423.7658)" stroke-width=".25" stroke-linecap="butt" stroke-miterlimit="3.864" stroke-linejoin="miter" fill="none" stroke="#000000" d="M0 0H205.878"/>
<path transform="matrix(1,0,0,-1,0,792)" d="M408.949 322.531H202.535V329.531H408.949Z"/>
<path transform="matrix(1,0,0,-1,202.8262,361.7931)" stroke-width=".242" stroke-linecap="butt" stroke-miterlimit="3.864" stroke-linejoin="miter" fill="none" stroke="#000000" d="M0 0H206.24"/>
<path transform="matrix(1,0,0,-1,215.4141,436.1603)" stroke-width=".25" stroke-linecap="butt" stroke-miterlimit="3.864" stroke-linejoin="miter" fill="none" stroke="#000000" d="M0 0H193.652"/>
<path transform="matrix(1,0,0,-1,202.543,448.5548)" stroke-width=".25" stroke-linecap="butt" stroke-miterlimit="3.864" stroke-linejoin="miter" fill="none" stroke="#000000" d="M0 0H206.523"/>
<path transform="matrix(1,0,0,-1,202.8262,374.1877)" stroke-width=".242" stroke-linecap="butt" stroke-miterlimit="3.864" stroke-linejoin="miter" fill="none" stroke="#000000" d="M0 0H206.24"/>
<path transform="matrix(1,0,0,-1,202.543,398.9767)" stroke-width=".242" stroke-linecap="butt" stroke-miterlimit="3.864" stroke-linejoin="miter" fill="none" stroke="#000000" d="M0 0H206.523"/>
<path transform="matrix(1,0,0,-1,202.543,386.5822)" stroke-width=".242" stroke-linecap="butt" stroke-miterlimit="3.864" stroke-linejoin="miter" fill="none" stroke="#000000" d="M0 0H206.377"/>
<text xml:space="preserve" transform="matrix(1 0 -0 1 0 792)" font-size="8.0024" font-family="Helvetica"><tspan y="-446.4868" x="285.3364 289.78575 294.23509 298.68443">16g </tspan><tspan y="-433.98704" x="285.3364 289.78575 294.23509">3g </tspan><tspan y="-421.48728" x="285.3364 289.78575 294.23509">0g </tspan><tspan y="-408.98753" x="285.3364 289.78575 294.23509 300.90107 305.3504">50mg </tspan><tspan y="-396.48777" x="285.3364 289.78575 294.23509 298.68443 305.3504 309.79975">480mg </tspan><tspan y="-383.988" x="285.3364 289.78575 294.23509 298.68443">56g </tspan><tspan y="-371.48826" x="285.3364 289.78575 294.23509">2g </tspan><tspan y="-358.9885" x="285.3364 289.78575 294.23509 298.68443">32g </tspan><tspan y="-346.48875" x="285.3364 289.78575 294.23509 298.68443">30g </tspan><tspan y="-333.98899" x="285.3364 289.78575 294.23509">3g </tspan><tspan y="-312.52656" x="352.2845 356.57377 358.63838 362.92765 369.59364 373.59483 378.04417">0.2mcg </tspan><tspan y="-300.0268" x="352.2845 356.73384 361.18318 367.84916 372.2985">80mg </tspan><tspan y="-287.52705" x="352.2845 356.73384 363.3998 367.84916">4mg </tspan><tspan y="-275.02729" x="352.2845 356.73384 361.18318 365.6325 372.2985 376.74784">380mg </tspan><tspan y="-312.52653" x="333.15077 337.72013 344.95429">0% </tspan><tspan y="-300.02677" x="333.47087 337.72013 344.6342">4% </tspan><tspan y="-287.527" x="328.9735 333.15077 337.7185 344.56056">10% </tspan><tspan y="-275.02726" x="333.47087 337.72013 344.6342">4% </tspan><tspan y="-312.5265" x="396.49778 401.09916 408.36534">2% </tspan><tspan y="-300.02674" x="396.54579 401.09916 408.31733">6% </tspan><tspan y="-287.52699" x="391.9604 396.53538 401.10475 408.3389">20% </tspan><tspan y="-275.02723" x="396.59379 401.09913 408.2693">8% </tspan></text>
<text xml:space="preserve" transform="matrix(1 0 -0 1 0 792)" font-size="8.0024" font-family="Helvetica" font-weight="bold"><tspan y="-446.47865" x="327.0609 332.39854 337.39204 345.05033">21% </tspan><tspan y="-433.97889" x="326.9729 331.99043 337.38725 345.06956">15% </tspan><tspan y="-408.97938" x="326.9889 331.81434 337.38639 344.87663">17% </tspan><tspan y="-396.4796" x="327.05293 332.39054 337.38404 345.04234">21% </tspan><tspan y="-383.97987" x="326.14866 331.79994 337.3856 345.63609">20% </tspan><tspan y="-371.4801" x="331.81437 337.38404 345.6185">7% </tspan><tspan y="-346.4806" x="326.2287 331.80638 337.39283 345.63529">60% </tspan><tspan y="-446.47859" x="390.1839 395.2222 400.2157 407.874">41% </tspan><tspan y="-433.97883" x="389.06358 394.62525 400.21333 408.4398">30% </tspan><tspan y="-408.9793" x="389.1836 394.68125 400.2157 408.37815">33% </tspan><tspan y="-396.47956" x="389.05555 394.45716 400.21409 408.2805">42% </tspan><tspan y="-383.9798" x="390.18388 395.22218 400.21568 407.87397">41% </tspan><tspan y="-371.48005" x="389.9598 394.9213 400.21568 407.84196">14% </tspan><tspan y="-346.48054" x="384.06205 388.97554 394.62684 400.2149 407.79319">120% </tspan></text>
<text xml:space="preserve" transform="matrix(1 0 -0 1 0 792)" font-size="8.0024" font-family="Helvetica"><tspan y="-446.4865" x="352.27653 356.72587 361.1752 365.62455">32g </tspan><tspan y="-433.98677" x="352.27653 356.72587 361.1752">6g </tspan><tspan y="-421.487" x="352.27653 356.72587 361.1752">0g </tspan><tspan y="-408.98725" x="352.27653 356.72587 361.1752 365.62455 372.29054 376.73988">100mg </tspan><tspan y="-396.4875" x="352.27653 356.72587 361.1752 365.62455 372.29054 376.73988">960mg </tspan><tspan y="-383.98774" x="352.27653 356.72587 361.1752 365.62455 370.07389">112g </tspan><tspan y="-371.48799" x="352.27653 356.72587 361.1752">4g </tspan><tspan y="-358.98823" x="352.27653 356.72587 361.1752 365.62455">64g </tspan><tspan y="-346.48847" x="352.27653 356.72587 361.1752 365.62455">60g </tspan><tspan y="-333.9887" x="352.27653 356.72587 361.1752">6g </tspan><tspan y="-312.52629" x="202.38355 207.72115 209.49768 211.72235 216.17169 222.83769 224.61423 229.06357 231.28824 237.06598">Vitamin D </tspan><tspan y="-300.02653" x="202.38355 208.16129 212.61063 214.38716 218.38837 220.1649 224.61425 231.28025">Calcium </tspan><tspan y="-287.52677" x="202.38355 204.60822 207.27301 211.72235 216.17169">Iron </tspan><tspan y="-275.027" x="202.38355 207.72115 212.17049 214.39516 218.8445 222.8457 226.84691 228.62345 233.07279 239.73879">Potassium </tspan></text>
<text xml:space="preserve" transform="matrix(1 0 -0 1 0 792)" font-size="16" font-family="Helvetica" font-weight="bold"><tspan y="-475.3066" x="202.3628 214.81079 225.48279 230.81079 241.48279 248.58679 253.9148 264.5868 274.3628">Calories </tspan></text>
<path transform="matrix(1,0,0,-1,202.5684,483.8654)" stroke-width=".25" stroke-linecap="butt" stroke-miterlimit="3.864" stroke-linejoin="miter" fill="none" stroke="#000000" d="M0 0H206.467"/>
<path transform="matrix(1,0,0,-1,202.5449,494.9044)" stroke-width=".25" stroke-linecap="butt" stroke-miterlimit="3.864" stroke-linejoin="miter" fill="none" stroke="#000000" d="M0 0H206.514"/>
<path transform="matrix(1,0,0,-1,202.5449,506.9416)" stroke-width=".25" stroke-linecap="butt" stroke-miterlimit="3.864" stroke-linejoin="miter" fill="none" stroke="#000000" d="M0 0H206.514"/>
<path transform="matrix(1,0,0,-1,0,792)" d="M409.184 503.67H202.549V510.68904H409.184Z"/>
<text xml:space="preserve" transform="matrix(1 0 -0 1 0 792)" font-size="6" font-family="Helvetica" font-weight="bold"><tspan y="-494.4507" x="299.1821 303.5141 307.5161 310.1801 312.1781 316.1801 317.8481 321.85014 323.8481 329.8481 333.85014 336.18415 338.51817 340.51615 344.51817">Per 1/2 muffin </tspan><tspan y="-494.4627" x="369.5141 373.8461 377.8481 380.51213 382.5101 386.51213 388.5101 394.5101 398.51213 400.84614 403.18016 405.17814">Per 1 muffin</tspan><tspan y="-460.0947" x="298.6181 300.6161 302.61408 304.61207 306.61006 308.60804 310.60603 312.604 314.602 316.59999 318.59797 320.59596 322.59394 324.59193 330.59193 332.5899 337.2579 341.9259 345.2619 388.59413 394.59413 396.5921 401.2601 405.9281 409.2641">             % DV* % DV* </tspan></text>
<path transform="matrix(1,0,0,-1,0,792)" d="M284.437 267.344H278.437V474.638H284.437Z" fill="#ffffff"/>
<path transform="matrix(1,0,0,-1,0,792)" d="M351.384 267.344H345.384V474.638H351.384Z" fill="#ffffff"/>
<path transform="matrix(1,0,0,-1,281.4346,292.1505)" stroke-width=".25" stroke-linecap="butt" stroke-miterlimit="3.864" stroke-linejoin="miter" fill="none" stroke="#000000" d="M0 0-.001-227.526"/>
<path transform="matrix(1,0,0,-1,202.3125,523.6564)" stroke-width="3.442" stroke-linecap="butt" stroke-miterlimit="3.864" stroke-linejoin="miter" fill="none" stroke="#000000" d="M0 0H206.209"/>
<text xml:space="preserve" transform="matrix(1 0 -0 1 0 792)" font-size="8.0024" font-family="Helvetica" font-weight="bold"><tspan y="-446.4771" x="202.4067 208.18444 213.52204 217.0751 222.4127 225.0775 227.7423 233.0799 238.4175">Total Fat</tspan></text>
<text xml:space="preserve" transform="matrix(1 0 -0 1 0 792)" font-size="8.0024" font-family="Helvetica"><tspan y="-433.97737" x="202.4067 204.63137 206.85604 209.0807 214.4183 218.86765 221.09232 225.54166 228.20645 232.65579 234.88047 239.3298 243.77915 246.00382 250.89328 255.34262 257.5673">   Saturated Fat </tspan></text>
<text xml:space="preserve" transform="matrix(1 0 -0 1 0 792)" font-size="8.0024" font-family="Helvetica" font-style="italic"><tspan y="-421.4776" x="209.08069 213.97016 216.63495 221.08429 225.53363 229.53484">Trans </tspan></text>
<text xml:space="preserve" transform="matrix(1 0 -0 1 0 792)" font-size="8.0024" font-family="Helvetica"><tspan y="-421.4776" x="231.7595 236.64897 241.09832 243.32299">Fat </tspan></text>
<text xml:space="preserve" transform="matrix(1 0 -0 1 0 792)" font-size="8.0024" font-family="Helvetica" font-weight="bold"><tspan y="-408.97785" x="202.4067 208.63256 213.97016 219.30776 221.97255 227.31015 232.19962 235.75269 241.09029 244.64336 249.98096 252.64575">Cholesterol </tspan><tspan y="-396.4781" x="202.4067 208.18444 213.52204 218.85964 221.52443 226.86203 234.86443">Sodium </tspan><tspan y="-383.97834" x="202.4067 208.18444 213.52204 217.0751 222.4127 225.0775 227.7423 233.96816 239.30576 242.85883 248.19643">Total Carb.</tspan></text>
<text xml:space="preserve" transform="matrix(1 0 -0 1 0 792)" font-size="8.0024" font-family="Helvetica"><tspan y="-371.47859" x="202.4067 204.63137 206.85604 209.0807 214.85845 216.63498 221.08432 223.30899 227.75833 230.42313 234.42433 236.649 241.53847 243.315 247.76435 252.21369">   Dietary Fiber</tspan><tspan y="-358.97883" x="202.4067 204.63137 206.85604 209.0807 213.97017 218.41951 220.64418 225.09352 226.87006 229.09473 234.43233 238.88167 243.33101 247.78035 250.44515">   Total Sugars</tspan><tspan y="-346.47908" x="202.4067 204.47132 206.53594 208.60056 210.66518 212.7298 214.79442 216.85904 221.14833 224.98949 226.60597 229.6869 234.86446 239.15375 243.44304 247.73233 252.02162 254.08625 259.2638 263.55308 267.84236 272.13163 274.63639 278.47755">      Incl.Added Sugars </tspan></text>
<text xml:space="preserve" transform="matrix(1 0 -0 1 0 792)" font-size="8.0024" font-family="Helvetica" font-weight="bold"><tspan y="-333.9793" x="202.4067 208.18444 211.7375 217.0751 220.62818 225.96578 228.63057 233.96817">Protein </tspan></text>
<text xml:space="preserve" transform="matrix(1 0 -0 1 0 792)" font-size="6" font-family="Helvetica"><tspan y="-256.8408" x="206.1929 209.8589 213.1949 216.5309 218.1989 223.5329 225.2009 229.5329 232.8689 234.2009 235.5329 238.5329 240.2009 244.2029 247.5389 248.8709 252.2069 255.5429 257.2109 259.2089 263.5409 267.5429 269.5409 271.2089 272.8769 276.2129 277.5449 278.8769 281.8769 283.5449 286.5449 289.8809 293.2169 294.8849 298.2209 301.5569 305.8889 307.5569 312.55488 315.89088 318.89088 322.22688 323.89488 327.23088 328.89888 332.23487 335.57087 337.23887 339.23686 340.56886 343.90486 347.24085 348.90885 350.57685 351.90885 355.24485 356.91285 360.24885 361.91685 364.91685 368.25285 370.25083 373.25083 374.58283 377.91883 381.25483 382.92283 386.25883 387.92683">The % Daily Value (DV) tells you how much a nutrient in a serving of </tspan><tspan y="-249.83879" x="206.1929 207.8609 211.1969 214.5329 217.8689 219.5369 222.5369 225.8729 229.2089 230.87689 232.8749 234.2069 237.5429 240.87889 242.55109 245.88709 248.88709 250.55509 252.22309 255.55908 257.22709 260.56309 262.23109 265.56709 268.90309 270.23509 271.56709 274.56709 276.23509 279.57109 280.90309 284.23908 285.90708 287.57508 289.24308 292.57908 294.24708 297.58308 300.91908 304.25508 305.92308 308.92308 312.25907 313.59107 316.92707 318.92506 320.25706 323.59306 326.59306 328.26106 331.59706 333.26506 336.60105 339.93705 342.93705 344.60505 345.93705 348.93705 350.60505 353.94105 356.94105 360.27705 363.61305 365.28105 366.94905 370.28504 372.28303 373.95103 377.28703 380.62303 383.959 387.295 389.293 392.629 393.961">food contributes to a daily diet. 2,000 calories a day is used for general </tspan><tspan y="-242.83679" x="206.1929 209.5289 212.8649 214.5329 216.5309 217.8629 219.5309 220.8629 224.1989 227.5349 229.2029 232.5389 235.8749 238.8749 240.2069 243.21289 246.54889 248.21689">nutrition advice. </tspan><tspan y="-256.83479" x="202.1129 204.4469">* </tspan></text>
<path transform="matrix(1,0,0,-1,348.3867,292.1505)" stroke-width=".25" stroke-linecap="butt" stroke-miterlimit="3.864" stroke-linejoin="miter" fill="none" stroke="#000000" d="M0 0-.001-227.526"/>
<path transform="matrix(1,0,0,-1,413.207,223.11438)" d="M0 0H-.5-213.914-214.414V-.5-333.854-334.354H-213.914-.5 0V-333.854-.5ZM-.5-333.854H-213.914V-.5H-.5Z"/>
<text xml:space="preserve" transform="matrix(1 0 -0 1 0 792)" font-size="8.0024" font-family="Helvetica"><tspan y="-312.5259" x="285.3311 289.94047 292.32518 296.93455 303.7606 307.92185 312.53123">0.1mcg </tspan><tspan y="-300.02616" x="285.3311 289.94047 294.54985 301.3759 305.98527">40mg </tspan><tspan y="-287.5264" x="285.3311 289.78044 296.60649 301.21586">2mg </tspan><tspan y="-275.02665" x="285.3311 289.94047 294.54985 299.1592 305.98527 310.59465">190mg </tspan></text>
<path transform="matrix(1,0,0,-1,202.5352,252.69647)" stroke-width=".25" stroke-linecap="butt" stroke-miterlimit="3.864" stroke-linejoin="miter" fill="none" stroke="#000000" d="M0 0H206.215"/>
<text xml:space="preserve" transform="matrix(1 0 -0 1 0 792)" font-size="26" font-family="Helvetica" font-weight="bold"><tspan y="-545.4482" x="202.2197 223.3577 240.2057 251.2557 262.3057 270.4437 281.49369 289.65769 306.50569 323.8477 332.50569 349.1977 365.8897 382.58174 393.47575 408.71174">Nutrition Facts </tspan></text>
<text xml:space="preserve" transform="matrix(1 0 -0 1 0 792)" font-size="10" font-family="Helvetica"><tspan y="-528.5049" x="203.6807 209.24069 214.80069 217.58069 222.58069 228.14069 231.47069 236.47069 238.69069 244.25069 249.81069 254.81069 257.5907 263.1507 268.7107 272.04069 274.82069 279.82069 285.38069 290.94068 293.72068 299.28068 301.50068 307.06068 312.62068">12 servings per container</tspan></text>
<text xml:space="preserve" transform="matrix(1 0 -0 1 0 792)" font-size="10" font-family="Helvetica" font-weight="bold"><tspan y="-516.5049" x="203.6807 210.9007 217.5707 222.0107 228.1207 231.4507 238.1207 244.7907 248.1207 254.2307 257.5607 263.1207 269.7907 317.8807 324.55073 327.33073 334.00074 337.33073 347.33073 354.00074 357.89076 361.78077 365.11076 371.78077 375.11076 379.00077 385.67079 392.3408 399.0108 405.68083 409.57084">Serving size 1/2 muffin (144g) </tspan></text>
<text xml:space="preserve" transform="matrix(1 0 -0 1 0 792)" font-size="20" font-family="Helvetica" font-weight="bold"><tspan y="-475.4473" x="305.3784 318.71839 332.05839 345.39839 368.1984 381.5384 394.8784 408.21839">380 760 </tspan></text>
<text xml:space="preserve" transform="matrix(1 0 -0 1 0 792)" font-size="11" font-family="Helvetica" font-weight="bold"><tspan y="-68.5464" x="298.6631 306.0001 313.3371">14 </tspan></text>
</svg>
