<svg xmlns="http://www.w3.org/2000/svg" xmlns:xlink="http://www.w3.org/1999/xlink" version="1.1" width="612pt" height="792pt" viewBox="0 0 612 792">
<text fill-opacity="0" xml:space="preserve" transform="matrix(1 0 -0 1 0 792)" font-size="20.006" font-family="Helvetica" font-weight="bold"><tspan y="-525.6338" x="318.9282"> </tspan></text>
<text fill-opacity="0" xml:space="preserve" transform="matrix(1 0 -0 1 0 792)" font-size="9" font-family="Helvetica" font-weight="bold"><tspan y="-501.5899" x="286.8872 289.3442 291.8012 294.2582">    </tspan></text>
<text fill-opacity="0" xml:space="preserve" transform="matrix(1 0 -0 1 0 792)" font-size="8.0024" font-family="Helvetica" font-weight="bold"><tspan y="-428.8665" x="227.0171 282.96189">  </tspan></text>
<text fill-opacity="0" xml:space="preserve" transform="matrix(1 0 -0 1 0 792)" font-size="8.0024" font-family="Helvetica" font-style="italic"><tspan y="-416.86289" x="227.0171"> </tspan></text>
<text fill-opacity="0" xml:space="preserve" transform="matrix(1 0 -0 1 0 792)" font-size="8.0024" font-family="Helvetica"><tspan y="-416.86289" x="271.3184"> </tspan></text>
<text fill-opacity="0" xml:space="preserve" transform="matrix(1 0 -0 1 0 792)" font-size="8.0024" font-family="Helvetica" font-weight="bold"><tspan y="-368.84849" x="282.87388"> </tspan><tspan y="-356.84489" x="282.44175"> </tspan></text>
<text fill-opacity="0" xml:space="preserve" transform="matrix(1 0 -0 1 0 792)" font-size="8.0024" font-family="Helvetica"><tspan y="-344.84129" x="227.01712 237.07614">  </tspan></text>
<text fill-opacity="0" xml:space="preserve" transform="matrix(1 0 -0 1 0 792)" font-size="8.0024" font-family="Helvetica" font-weight="bold"><tspan y="-344.84129" x="276.81608"> </tspan><tspan y="-302.14848" x="255.9218"> </tspan><tspan y="-290.14488" x="240.81327"> </tspan><tspan y="-278.14128" x="264.38035"> </tspan></text>
<text fill-opacity="0" xml:space="preserve" transform="matrix(1 0 -0 1 0 792)" font-size="16" font-family="Helvetica" font-weight="bold"><tspan y="-466.585" x="325.3055 331.35353 337.40153 343.44953 349.49754">     </tspan></text>
<text fill-opacity="0" xml:space="preserve" transform="matrix(1 0 -0 1 0 792)" font-size="6" font-family="Helvetica"><tspan y="-256.6347" x="382.8831"> </tspan></text>
<text xml:space="preserve" transform="matrix(1 0 -0 1 0 792)" font-size="11" font-family="Helvetica" font-weight="bold"><tspan y="-696.1113" x="250.6924 259.2504 266.5874 270.2504 273.9134 281.2504 286.1344 293.4714 300.8084 304.4714 311.8084 315.4714 322.8084 326.4714 335.02943 342.36643 349.70344 354.58744 361.30845">Children 1-3 Years </tspan></text>
<text xml:space="preserve" transform="matrix(1 0 -0 1 0 792)" font-size="10" font-family="Helvetica"><tspan y="-684.1113" x="249.603 255.163 260.723 263.503 270.723 276.83299 284.05299 286.83299 292.39299 297.95298 303.51298 306.29298 311.85298 315.18296 317.40296 320.73295 324.06294 329.62294 332.9529 336.2829 338.5029 340.7229 342.9429 346.2729 349.60289 356.2729 359.60289">21 CFR 101.9(j)(5)(iii)(A) </tspan></text>
<text xml:space="preserve" transform="matrix(1 0 -0 1 0 792)" font-size="20" font-family="Helvetica" font-weight="bold"><tspan y="-525.6338" x="225.9282 242.1882 255.14821 263.64823 272.14823 278.4082 286.9082 293.1882 306.1482 319.4882 326.1482 338.9882 351.8282 364.66819 373.0482 384.7682">Nutrition Facts </tspan></text>
<path transform="matrix(1,0,0,-1,388.2749,248.1582)" d="M0 0H-.5-164.05-164.55V-.5-298.869-299.369H-164.05-.5 0V-298.869-.5ZM-.5-298.869H-164.05V-.5H-.5Z"/>
<path transform="matrix(1,0,0,-1,0,792)" d="M383.846 490.305H227.182V497.309H383.846Z"/>
<path transform="matrix(1,0,0,-1,0,792)" d="M227.021 437.457H383.828V437.707H227.021Z"/>
<path transform="matrix(1,0,0,-1,0,792)" d="M227.18 449.473H383.83V449.723H227.18Z"/>
<path transform="matrix(1,0,0,-1,0,792)" d="M227.18 521.273H383.83V521.52206H227.18Z"/>
<path transform="matrix(1,0,0,-1,0,792)" d="M227.184 377.378H383.83003V377.628H227.184Z"/>
<path transform="matrix(1,0,0,-1,0,792)" d="M226.979 365.365H383.828V365.607H226.979Z"/>
<path transform="matrix(1,0,0,-1,0,792)" d="M227.023 425.445H383.845V425.687H227.023Z"/>
<path transform="matrix(1,0,0,-1,0,792)" d="M247.508 353.345H383.828V353.595H247.508Z"/>
<path transform="matrix(1,0,0,-1,0,792)" d="M226.962 341.33H383.828V341.57899H226.962Z"/>
<path transform="matrix(1,0,0,-1,0,792)" d="M227.344 413.429H383.861V413.671H227.344Z"/>
<path transform="matrix(1,0,0,-1,0,792)" d="M227.309 389.393H383.85V389.643H227.309Z"/>
<path transform="matrix(1,0,0,-1,0,792)" d="M227.18 401.409H383.86799V401.659H227.18Z"/>
<path transform="matrix(1,0,0,-1,0,792)" d="M227.201 311.181H383.851V311.431H227.201Z"/>
<path transform="matrix(1,0,0,-1,0,792)" d="M227.184 286.039H383.868V286.289H227.184Z"/>
<path transform="matrix(1,0,0,-1,0,792)" d="M227.191 298.609H383.841V298.859H227.191Z"/>
<text xml:space="preserve" transform="matrix(1 0 -0 1 0 792)" font-size="9" font-family="Helvetica"><tspan y="-512.5879" x="227.3882 232.3922 234.8942 239.3942 244.3982 247.39519 251.89519 253.89319 258.8972 263.90119 266.4032 271.4072 276.4112 279.4082 281.91023 286.41023 291.4142 296.4182 298.92024 303.92424 305.9222 310.9262 315.9302">1 serving per container</tspan></text>
<text xml:space="preserve" transform="matrix(1 0 -0 1 0 792)" font-size="9" font-family="Helvetica" font-weight="bold"><tspan y="-501.5899" x="227.3882 233.8862 239.8892 243.88521 249.3842 252.3812 258.3842 264.38719 267.3842 272.88319 275.8802 280.8842 296.71519 299.7122 305.71519 308.7122 314.71519 320.71818 326.72117 330.71717 336.72016 339.71717 345.72016 351.72315 355.71916 358.71617 362.21717 368.22016 374.22315 380.22615 383.72715">Serving size 1 container (85g) </tspan></text>
<text xml:space="preserve" transform="matrix(1 0 -0 1 0 792)" font-size="8.0024" font-family="Helvetica" font-weight="bold"><tspan y="-440.8701" x="227.0171 232.79485 238.13245 241.68552 247.02312 249.68791 252.3527 257.6903 263.02793 266.581">Total Fat </tspan></text>
<text xml:space="preserve" transform="matrix(1 0 -0 1 0 792)" font-size="8.0024" font-family="Helvetica"><tspan y="-440.8701" x="269.2458 272.8949 274.31935 278.76869 283.21803">1.5g </tspan><tspan y="-428.8665" x="237.07613 242.21367 246.46295 248.48757 252.73685 255.20159 259.45088 261.47547 265.72474 269.974 271.9986 276.688 280.93727 282.96186 285.18656 289.23579 291.06034 295.50968 299.959">Saturated Fat 0.5g </tspan></text>
<text xml:space="preserve" transform="matrix(1 0 -0 1 0 792)" font-size="8.0024" font-family="Helvetica" font-style="italic"><tspan y="-416.86289" x="237.07613 241.96559 244.63039 249.07973 253.52907">Trans</tspan></text>
<text xml:space="preserve" transform="matrix(1 0 -0 1 0 792)" font-size="8.0024" font-family="Helvetica"><tspan y="-416.86289" x="257.53028 259.75495 264.6444 269.09376 271.31843 273.5431 277.99244 282.44178"> Fat 0g </tspan></text>
<text xml:space="preserve" transform="matrix(1 0 -0 1 0 792)" font-size="8.0024" font-family="Helvetica" font-weight="bold"><tspan y="-404.85929" x="227.0171 233.24297 238.58057 243.91817 246.58296 251.92057 256.81004 260.3631 265.7007 269.25379 274.5914 277.2562">Cholesterol </tspan></text>
<text xml:space="preserve" transform="matrix(1 0 -0 1 0 792)" font-size="8.0024" font-family="Helvetica"><tspan y="-404.85929" x="279.921 283.73014 288.17948 294.84547 299.2948">10mg </tspan></text>
<text xml:space="preserve" transform="matrix(1 0 -0 1 0 792)" font-size="8.0024" font-family="Helvetica" font-weight="bold"><tspan y="-392.85569" x="227.0171 232.79485 238.13245 243.47005 246.13484 251.47245 259.47486">Sodium </tspan></text>
<text xml:space="preserve" transform="matrix(1 0 -0 1 0 792)" font-size="8.0024" font-family="Helvetica"><tspan y="-392.85569" x="262.13966 266.589 271.03834 275.48768 282.15367 286.603">240mg </tspan></text>
<text xml:space="preserve" transform="matrix(1 0 -0 1 0 792)" font-size="8.0024" font-family="Helvetica" font-weight="bold"><tspan y="-380.85209" x="227.0171 232.79485 238.13245 241.68552 247.02312 249.68791 252.3527 258.57859 263.9162 267.46928 272.8069 278.1445 283.48213 288.37159 293.7092 297.26228 302.59989 306.15296 311.49058">Total Carbohydrate </tspan></text>
<text xml:space="preserve" transform="matrix(1 0 -0 1 0 792)" font-size="8.0024" font-family="Helvetica"><tspan y="-380.85209" x="314.15538 317.80433 322.01359">11g</tspan><tspan y="-368.84849" x="227.01709 237.07611 242.85385 244.63039 249.07973 251.3044 255.75374 258.41856 262.41975 264.64439 269.53385 271.31037 275.7597 280.20906 282.87385 285.0985 289.30778"> Dietary Fiber 1g</tspan><tspan y="-356.84489" x="227.01709 237.07611 241.96558 246.41492 248.63959 253.08893 254.86547 257.09013 262.42774 266.87709 271.32643 275.77577 278.44056 282.44175 284.6664 288.87568 293.08494"> Total Sugars 1g </tspan><tspan y="-344.84129" x="247.01509 249.23976 253.6891 257.6903 259.46684 263.91618 268.3655 272.81486 276.81605 279.0407 283.24998 287.45924 289.44383 294.54136 298.7506 302.95988 307.16914 311.3784 313.36299 318.4605 322.66978 326.87904 331.0883 333.513 337.27415">Includes 1g Added Sugars </tspan></text>
<text xml:space="preserve" transform="matrix(1 0 -0 1 0 792)" font-size="8.0024" font-family="Helvetica" font-weight="bold"><tspan y="-332.83769" x="227.01709 232.79483 236.3479 241.6855 245.23857 250.57617 253.24097 258.57859">Protein </tspan></text>
<text xml:space="preserve" transform="matrix(1 0 -0 1 0 792)" font-size="8.0024" font-family="Helvetica"><tspan y="-332.83769" x="261.24339 265.69273 270.14207">3g </tspan></text>
<text xml:space="preserve" transform="matrix(1 0 -0 1 0 792)" font-size="8.0024" font-family="Helvetica" font-weight="bold"><tspan y="-440.83808" x="370.31608 375.85374 384.05619">4% </tspan><tspan y="-428.83448" x="370.21205 375.84574 384.14424">5% </tspan><tspan y="-404.83528" x="370.076 375.85374 384.29627">3% </tspan><tspan y="-392.83168" x="365.60267 370.044 375.85377 384.3283">16% </tspan><tspan y="-380.82807" x="370.044 375.85377 384.3283">7% </tspan><tspan y="-368.82447" x="370.044 375.85377 384.3283">7% </tspan><tspan y="-344.82527" x="370.3241 375.86177 384.0642">4% </tspan><tspan y="-332.82167" x="364.26628 370.08564 375.86338 384.3059">23% </tspan></text>
<text xml:space="preserve" transform="matrix(1 0 -0 1 0 792)" font-size="8.0024" font-family="Helvetica"><tspan y="-314.15208" x="227.0251 232.3627 234.13924 236.3639 240.81325 247.47925 249.25579 253.70513 255.9298 261.70753 263.9322 268.38154 275.04753 279.0487 283.49806">Vitamin D 0mcg </tspan><tspan y="-302.14848" x="227.0251 232.80284 237.25218 239.02872 243.02993 244.80646 249.2558 255.9218 258.14646 262.5958 267.04515 273.71113 278.16047">Calcium 40mg </tspan><tspan y="-290.14488" x="227.0251 229.24977 231.91457 236.3639 240.81325 243.03792 247.48726 249.71193 254.16127 260.82728 265.2766">Iron 0.6mg </tspan><tspan y="-278.14128" x="227.0251 232.3627 236.81204 239.03672 243.48606 247.48726 251.48847 253.265 257.71434 264.3803 266.60499 271.05433 275.50367 282.16966 286.619">Potassium 30mg </tspan><tspan y="-314.14408" x="372.29267 376.742 383.85615">0% </tspan><tspan y="-302.14048" x="372.29267 376.742 383.85615">6% </tspan><tspan y="-290.13688" x="372.29267 376.742 383.85615">8% </tspan><tspan y="-278.13328" x="372.29267 376.742 383.85615">0% </tspan></text>
<text xml:space="preserve" transform="matrix(1 0 -0 1 0 792)" font-size="6" font-family="Helvetica" font-weight="bold"><tspan y="-452.415" x="335.2241 341.2241 343.22209 347.89009 351.8921 353.89009 355.88807 359.55406 361.55204 366.22004 370.22206 372.22004 376.22206 380.22407 383.56007">% Daily Value* </tspan></text>
<path transform="matrix(1,0,0,-1,0,792)" d="M383.868 322.765H227.17502V329.77104H383.868Z"/>
<path transform="matrix(1,0,0,-1,0,792)" d="M383.846 460.168H227.182V463.168H383.846Z"/>
<text xml:space="preserve" transform="matrix(1 0 -0 1 0 792)" font-size="16" font-family="Helvetica" font-weight="bold"><tspan y="-466.585" x="226.6655 239.1135 249.78549 255.1135 265.7855 272.8895 278.2175 288.8895 298.6655 303.9935 309.3215 314.6495 319.9775">Calories     </tspan></text>
<text xml:space="preserve" transform="matrix(1 0 -0 1 0 792)" font-size="22" font-family="Helvetica" font-weight="bold"><tspan y="-466.585" x="355.5464 370.2204 384.8944">70 </tspan></text>
<path transform="matrix(1,0,0,-1,0,792)" d="M383.849 271.65H227.185V274.65H383.849Z"/>
<text xml:space="preserve" transform="matrix(1 0 -0 1 0 792)" font-size="6" font-family="Helvetica"><tspan y="-263.6367" x="230.9053 234.5713 237.9073 241.2433 242.9113 248.2453 249.9133 254.2453 257.5813 258.9133 260.2453 263.2453 264.9133 268.9153 272.2513 273.5833 276.9193 280.2553 281.9233 283.9213 288.2533 292.2553 294.2533 295.9213 297.5893 300.9253 302.2573 303.5893 306.5893 308.2573 311.2573 314.5933 317.9293 319.5973 322.9333 326.2693 330.6013 332.2693 337.26728 340.60328 343.60328 346.93928 348.60728 351.94328 353.61128 356.94728 360.28327 361.95127 363.94926 365.28126 368.61726 371.95326 373.62126 375.28926 376.62126 379.95726">The % Daily Value (DV) tells you how much a nutrient in </tspan><tspan y="-256.63468" x="230.9053 234.2233 235.87329 238.85529 242.17328 244.15328 247.13527 248.44927 251.76726 255.08525 256.73527 260.05326 261.70326 263.35325 265.00325 268.32124 271.63923 274.9572 276.6072 279.5892 282.9072 286.2252 287.87519 289.8552 291.1692 294.48719 297.80519 299.45518 302.77317 305.75517 307.40516 309.05516 312.37315 314.02314 317.34114 318.99113 322.3091 325.6271 326.9411 328.2551 331.2371 332.8871 336.20509 337.51908 340.83708 342.48707 344.13706 345.78706 349.10505 350.75505 354.07304 357.39103 360.709 362.359 365.341 368.659 369.973 373.291 375.271 376.585 379.90299">a serving of food contributes to a daily diet. 1,000 calories</tspan><tspan y="-249.63268" x="230.9053 234.2413 235.9093 239.2453 242.5813 245.5813 247.2493 248.5813 251.5813 253.2493 256.5853 259.5853 262.9213 266.2573 267.9253 269.5933 272.9293 274.92729 276.59529 279.93128 283.26728 286.60328 289.93928 291.93727 295.27326 296.60527 298.27326 301.60926 304.94526 306.61326 308.61125 309.94325 311.61125 312.94325 316.27925 319.61524 321.28324 324.61924 327.95524 330.95524 332.28724 335.28724 338.62324 340.29124">a day is used for general nutrition advice. </tspan><tspan y="-263.63069" x="226.8253 229.1593">* </tspan></text>
<text xml:space="preserve" transform="matrix(1 0 -0 1 0 792)" font-size="6" font-family="Helvetica" font-weight="bold"><tspan y="-482.2527" x="227.1853 231.8533 237.8533 241.8553 245.8573 249.8593 252.5233 254.5213 258.52333 262.52534 265.18934 267.18733 270.8533 274.85533 277.51933 281.1853 283.1833 287.1853 291.18733">Amount per serving </tspan></text>
<text xml:space="preserve" transform="matrix(1 0 -0 1 0 792)" font-size="11" font-family="Helvetica" font-weight="bold"><tspan y="-68.5464" x="302.3315 309.66853">9 </tspan></text>
</svg>
