<svg xmlns="http://www.w3.org/2000/svg" xmlns:xlink="http://www.w3.org/1999/xlink" version="1.1" width="612pt" height="792pt" viewBox="0 0 612 792">
<text fill-opacity="0" xml:space="preserve" transform="matrix(1 0 -0 1 0 792)" font-size="10" font-family="Helvetica"><tspan y="-402.5244" x="264.5537"> </tspan></text>
<text xml:space="preserve" transform="matrix(1 0 -0 1 0 792)" font-size="11" font-family="Helvetica" font-weight="bold"><tspan y="-696.1074" x="136.7206 144.0576 147.7206 155.0576 162.3946 169.73162 174.61562 178.27861 186.83661 190.4996 197.2206 204.5576 208.2206 215.5576 222.2786 225.94159 230.2206 237.5576 242.4416 246.1046 254.0466 265.0466 272.3836 276.0466 279.7096 283.3726 290.7096 295.5936 299.2566 303.53559 310.8726 315.7566 323.0936 327.9776 338.9776 346.3146 353.6516 357.3146 364.6516 369.5356 376.87263 380.5356 388.4776 392.1406 398.2566 405.5936 412.9306 416.5936 424.53559 431.8726 439.2096 446.5466 453.8836 461.2206 468.55763 475.27864">Linear Display for Small or Intermediate-Sized Packages </tspan></text>
<text xml:space="preserve" transform="matrix(1 0 -0 1 0 792)" font-size="10" font-family="Helvetica"><tspan y="-684.1113" x="241.8228 247.3828 252.9428 255.7228 262.94279 269.05278 276.27278 279.05278 284.61277 290.17277 295.73277 298.51277 304.07276 307.40275 309.62275 312.95274 316.2827 321.8427 327.4027 330.7327 334.06269 336.28269 338.5027 341.83268 345.16267 351.84669 355.17668">21 CFR 101.9(j)(13)(ii)(A)(</tspan></text>
<text xml:space="preserve" transform="matrix(1 0 -0 1 0 792)" font-size="10" font-family="Helvetica" font-style="italic"><tspan y="-684.1113" x="358.50666">2</tspan></text>
<text xml:space="preserve" transform="matrix(1 0 -0 1 0 792)" font-size="10" font-family="Helvetica"><tspan y="-684.1113" x="364.06666 367.39665">) </tspan></text>
<text xml:space="preserve" transform="matrix(1 0 -0 1 0 792)" font-size="8" font-family="Helvetica"><tspan y="-402.5244" x="145.4951 150.8311 157.4951 161.9431 166.3911 170.8391 173.0631 175.2871 179.73509 184.18309 186.84709 189.07109 193.07109 197.51909 200.18309 204.18309 205.95909 210.40709 214.85509">Amount per serving:</tspan></text>
<text xml:space="preserve" transform="matrix(1 0 -0 1 0 792)" font-size="8" font-family="Helvetica" font-weight="bold"><tspan y="-402.5244" x="217.0871 219.7511 222.4151 225.0791 227.7431 230.4071 233.0711 235.7351 238.39911 241.06311 243.72711 246.39112 249.05512 251.71912 254.38312 257.04713 259.71113 262.37513 265.03913 267.70314 270.36714 273.03114 275.69514 278.35914 281.02314 286.79914 292.13514 295.68714 301.02314 303.68714 306.35115 311.68714 317.02314">                        Total Fat</tspan></text>
<text xml:space="preserve" transform="matrix(1 0 -0 1 0 792)" font-size="8" font-family="Helvetica"><tspan y="-402.5244" x="320.57514 322.79914 327.24714 331.69514 333.91914 336.58314 341.03114 348.14314 350.36714 356.14314 361.47914 364.14314 366.36714 368.59114 373.92713 378.37513 380.59913 382.82313 385.04713 389.93513 394.38313 396.60713 398.83113 403.2791 407.7271 409.9511 412.6151 417.0631 424.1751 426.3991 432.1751 437.5111 440.1751 442.3991"> 0g (0% DV), Sat. Fat 0g (0% DV), </tspan></text>
<text xml:space="preserve" transform="matrix(1 0 -0 1 0 792)" font-size="8" font-family="Helvetica" font-style="italic"><tspan y="-393.5244" x="145.49509 150.38309 153.04709 157.49509 161.94309">Trans</tspan></text>
<text xml:space="preserve" transform="matrix(1 0 -0 1 0 792)" font-size="8" font-family="Helvetica"><tspan y="-393.5244" x="165.94309 168.16709 173.05509 177.50308 179.72708 181.95108 186.39908 190.84708 193.07108"> Fat 0g, </tspan></text>
<text xml:space="preserve" transform="matrix(1 0 -0 1 0 792)" font-size="8" font-family="Helvetica" font-weight="bold"><tspan y="-393.5244" x="195.29508 201.51908 206.85507 212.19107 214.85507 220.19107 225.07907 228.63108">Cholest.</tspan></text>
<text xml:space="preserve" transform="matrix(1 0 -0 1 0 792)" font-size="8" font-family="Helvetica"><tspan y="-393.5244" x="231.29508 233.51908 237.96707 244.63108 249.07907 251.30307 253.96707 258.41508 265.52708 267.75108 273.52708 278.86308 281.52708 283.75108"> 0mg (0% DV), </tspan></text>
<text xml:space="preserve" transform="matrix(1 0 -0 1 0 792)" font-size="8" font-family="Helvetica" font-weight="bold"><tspan y="-393.5244" x="285.97508 291.75108 297.08708 302.42308 305.08708 310.42308 318.42308">Sodium </tspan></text>
<text xml:space="preserve" transform="matrix(1 0 -0 1 0 792)" font-size="8" font-family="Helvetica"><tspan y="-393.5244" x="321.08708 325.53507 332.19908 336.64707 338.87107 341.53507 345.98307 353.09507 355.31907 361.09507 366.43107 369.09507 371.31907">0mg (0% DV), </tspan></text>
<text xml:space="preserve" transform="matrix(1 0 -0 1 0 792)" font-size="8" font-family="Helvetica" font-weight="bold"><tspan y="-393.5244" x="373.54307 379.31907 384.65507 388.20707 393.54307 396.20707 398.87107 405.09507 410.43107 413.98307 419.31907">Total Carb.</tspan></text>
<text xml:space="preserve" transform="matrix(1 0 -0 1 0 792)" font-size="8" font-family="Helvetica"><tspan y="-393.5244" x="421.98307 424.20707 428.65507 433.10307 435.32707 437.99107 442.43907 449.55107 451.77507 457.55107 462.88706 465.55107 467.77507"> 2g (1% DV), </tspan><tspan y="-384.5244" x="145.49509 150.38309 152.15909 156.60709 161.05509 163.71909 165.94309 170.39109 174.83908 177.06308 179.72708 184.17508 191.28708 193.51108 199.28708 204.62308 207.28708 209.51108 211.73508 216.62308 221.07108 223.29508 227.74308 229.51908 231.74308 237.07907 241.52707 245.97507 250.42307 253.08707 257.08708 259.31108 263.75907 268.20707 270.43107 273.09507 275.31907 279.76707 283.76707 285.54307 287.76707 289.99107 294.43907 298.88706 301.11106 306.44706 310.89506 315.34306 319.79106 324.23905 326.46305 331.79905 336.24705 340.69505 345.14305 347.80705 351.80705 354.03105 356.25505 360.70304 367.81504 370.03904 375.81504 381.15104 383.81504 386.03904">Fiber 0g (0% DV), Total Sugars 2g (Incl. 2g Added Sugars, 4% DV), </tspan></text>
<text xml:space="preserve" transform="matrix(1 0 -0 1 0 792)" font-size="8" font-family="Helvetica" font-weight="bold"><tspan y="-384.5244" x="388.2711 394.0471 397.5991 402.9351 406.4871 411.8231 414.4871">Protein</tspan></text>
<text xml:space="preserve" transform="matrix(1 0 -0 1 0 792)" font-size="8" font-family="Helvetica"><tspan y="-384.5244" x="419.8231 422.0471 426.4951 430.94309 433.16709"> 0g, </tspan><tspan y="-375.5244" x="145.49509 150.83109 152.60709 154.83109 157.05509 159.27909 165.05509 167.27909 169.94309 174.39109 181.50308 183.72708 189.50308 194.83908 197.50308 199.72708 201.95108 207.72708 212.17508 213.95108 217.95108 219.72708 224.17508 230.83908 233.06308 235.72708 240.17508 247.28708 249.51108 255.28708 260.62309 263.28709 265.51109 267.73509 269.95909 272.62309 277.07109 281.51908 283.74308 286.40708 290.85508 297.96708 300.19108 305.96708 311.30308 313.96708 316.19108 318.41508 323.75108 328.19908 330.42308 334.87107 338.87107 341.09507 343.31907 345.98307 350.43107 357.54307 359.76707 365.54307 370.87907 373.54307 375.76707">Vit. D (0% DV), Calcium (0% DV), Iron (0% DV), Potas. (6% DV). </tspan></text>
<text xml:space="preserve" transform="matrix(1 0 -0 1 0 792)" font-size="10" font-family="Helvetica" font-weight="bold"><tspan y="-402.5244" x="219.5537 227.3337 234.0037 237.3337 244.0037 248.4437 251.7737 258.4437 264.55369">Calories </tspan></text>
<text xml:space="preserve" transform="matrix(1 0 -0 1 0 792)" font-size="14" font-family="Helvetica" font-weight="bold"><tspan y="-402.5244" x="267.3311">5</tspan></text>
<text xml:space="preserve" transform="matrix(1 0 -0 1 0 792)" font-size="10" font-family="Helvetica" font-weight="bold"><tspan y="-402.5244" x="276.6689 279.9989">, </tspan></text>
<path transform="matrix(1,0,0,-1,472.1047,363.5353)" d="M0 0H-1-330.208-331.208V-1-57.996-58.996H-330.208-1 0V-57.996-1ZM-1-57.996H-330.208V-1H-1Z"/>
<text xml:space="preserve" transform="matrix(1 0 -0 1 0 792)" font-size="12" font-family="Helvetica" font-weight="bold"><tspan y="-415.3086" x="145.4951 155.4911 163.4951 168.8231 174.15111 178.14711 183.47512 187.47112 195.47512 203.47911 207.47512 215.47911 223.48311 231.4871 236.81511 244.14711">Nutrition Facts </tspan></text>
<text xml:space="preserve" transform="matrix(1 0 -0 1 0 792)" font-size="10" font-family="Helvetica"><tspan y="-415.3086" x="250.499 257.169 262.729 266.059 271.059 273.279 278.839 284.399 289.399 292.179 294.95899 300.51899 306.07899 308.85899">Servings: 12, </tspan></text>
<text xml:space="preserve" transform="matrix(1 0 -0 1 0 792)" font-size="10" font-family="Helvetica" font-weight="bold"><tspan y="-415.3086" x="311.63899 318.85899 325.529 329.969 336.07899 339.40898 342.73896 348.84895 352.17893 357.73893 364.40895 367.73893 371.0689 377.73893 381.0689 391.0689 394.3989 401.0689 405.5089 408.8389 412.7289 419.39894 426.06895 429.95896 433.28895">Serv. size: 1 mint (2g), </tspan></text>
<text xml:space="preserve" transform="matrix(1 0 -0 1 0 792)" font-size="11" font-family="Helvetica" font-weight="bold"><tspan y="-68.5464" x="298.6626 305.9996 313.3366">12 </tspan></text>
</svg>
