<svg xmlns="http://www.w3.org/2000/svg" xmlns:xlink="http://www.w3.org/1999/xlink" version="1.1" width="612pt" height="792pt" viewBox="0 0 612 792">
<text fill-opacity="0" xml:space="preserve" transform="matrix(1 0 -0 1 0 792)" font-size="8.0024" font-family="Helvetica" font-weight="bold"><tspan y="-374.0498" x="28.9063"> </tspan><tspan y="-401.38603" x="215.31421 232.6634">  </tspan></text>
<text fill-opacity="0" xml:space="preserve" transform="matrix(1 0 -0 1 0 792)" font-size="8.0024" font-family="Helvetica"><tspan y="-373.16957" x="262.38435 324.85908">  </tspan><tspan y="-364.07884" x="231.10295 288.34413">  </tspan></text>
<text fill-opacity="0" xml:space="preserve" transform="matrix(1 0 -0 1 0 792)" font-size="8" font-family="Helvetica"><tspan y="-413.6719" x="154.2031 156.4271 158.6511">   </tspan></text>
<text fill-opacity="0" xml:space="preserve" transform="matrix(1 0 -0 1 0 792)" font-size="8.0024" font-family="Helvetica" font-weight="bold"><tspan y="-401" x="222.3799"> </tspan><tspan y="-401.38414" x="429.0739 446.42314">  </tspan></text>
<text fill-opacity="0" xml:space="preserve" transform="matrix(1 0 -0 1 0 792)" font-size="8.0024" font-family="Helvetica"><tspan y="-373.16767" x="484.14643 546.62118">  </tspan><tspan y="-364.07695" x="444.86265 510.0982">  </tspan></text>
<text fill-opacity="0" xml:space="preserve" transform="matrix(1 0 -0 1 0 792)" font-size="8.0024" font-family="Helvetica" font-weight="bold"><tspan y="-400.992" x="436.14"> </tspan></text>
<text fill-opacity="0" xml:space="preserve" transform="matrix(1 0 -0 1 0 792)" font-size="8" font-family="Helvetica"><tspan y="-401.6704" x="371.9648 374.34883 376.73283 379.11683 381.50083 383.88484">      </tspan></text>
<text xml:space="preserve" transform="matrix(1 0 -0 1 0 792)" font-size="11" font-family="Helvetica" font-weight="bold"><tspan y="-696.1113" x="219.5244 227.4664 234.8034 242.14041 249.47742 253.14041 260.47743 265.36143 269.0244 277.58244 284.91944 292.25645 295.91944 299.58244 308.14045 315.47746 319.14045 326.47746 337.47746 344.81446 348.47746 357.03547 360.69847 367.41947 374.75648 378.41947 385.75648 392.47749">Tabular Dual Column Display </tspan></text>
<text xml:space="preserve" transform="matrix(1 0 -0 1 0 792)" font-size="10" font-family="Helvetica"><tspan y="-684.1113" x="257.0986 262.6586 268.2186 270.9986 278.2186 284.32859 291.54859 294.32859 299.88859 305.44859 311.00859 313.78858 319.34858 322.67857 328.23857 331.56855 334.89854 340.45854 343.7885 347.1185 349.3385 351.5585 354.8885">21 CFR 101.9(e)(6)(ii) </tspan></text>
<path transform="matrix(1,0,0,-1,587.2344,322.8584)" d="M0 0H-.5-561.969-562.469V-.5-121.102-121.602H-561.969-.5 0V-121.102-.5ZM-.5-121.102H-561.969V-.5H-.5Z"/>
<text xml:space="preserve" transform="matrix(1 0 -0 1 0 792)" font-size="12" font-family="Helvetica" font-weight="bold"><tspan y="-380.1328" x="28.8672 38.2032 46.207204 50.2032 58.207204 63.535203 67.531208 75.5352 82.8672">Calories </tspan></text>
<text xml:space="preserve" transform="matrix(1 0 -0 1 0 792)" font-size="20" font-family="Helvetica" font-weight="bold"><tspan y="-449.7925" x="29.6572 45.937204 58.8972 67.3972 75.8972 82.1772 90.6772 96.9572 109.9172 123.2572">Nutrition </tspan><tspan y="-432.55253" x="28.8572 41.8172 54.7772 67.7372 76.6172 88.837207">Facts </tspan></text>
<text xml:space="preserve" transform="matrix(1 0 -0 1 0 792)" font-size="22" font-family="Helvetica" font-weight="bold"><tspan y="-361.0527" x="28.8672 43.541204 58.215204 72.889209 80.85321 95.527217 110.20122 124.87522">220 440 </tspan></text>
<path transform="matrix(1,0,0,-1,0,792)" d="M28.868 427.762H128.052V428.012H28.868Z"/>
<path transform="matrix(1,0,0,-1,0,792)" d="M28.868 391.756H128.053V392.006H28.868Z"/>
<path transform="matrix(1,0,0,-1,76.4775,415.3221)" d="M0 0 .001-23.488H.251L.25 0Z"/>
<path transform="matrix(1,0,0,-1,0,792)" d="M154.342 434.151H361.22V434.401H154.342Z"/>
<path transform="matrix(1,0,0,-1,0,792)" d="M361.112 383.351H154.341V386.35304H361.112Z"/>
<path transform="matrix(1,0,0,-1,0,792)" d="M361.221 447.138H154.34201V450.138H361.221Z"/>
<path transform="matrix(1,0,0,-1,0,792)" d="M154.342 422.15H360.79103V422.4H154.342Z"/>
<path transform="matrix(1,0,0,-1,0,792)" d="M154.342 410.145H361.112V410.395H154.342Z"/>
<path transform="matrix(1,0,0,-1,0,792)" d="M154.342 398.142H361.112V398.391H154.342Z"/>
<path transform="matrix(1,0,0,-1,0,792)" d="M154.342 371.142H361.112V371.391H154.342Z"/>
<text xml:space="preserve" transform="matrix(1 0 -0 1 0 792)" font-size="8" font-family="Helvetica" font-weight="bold"><tspan y="-437.6719" x="154.2031 159.9791 165.3151 168.8671 174.2031 176.8671 179.5311 184.8671 190.2031">Total Fat</tspan></text>
<text xml:space="preserve" transform="matrix(1 0 -0 1 0 792)" font-size="8" font-family="Helvetica"><tspan y="-425.6719" x="154.2031 156.4271 158.6511 160.87509 166.21109 170.65909 172.88309 177.33109 179.99509 184.44309 186.66709 191.11508 195.56308 197.78708 202.67508 207.12308 209.34708">   Saturated Fat </tspan></text>
<text xml:space="preserve" transform="matrix(1 0 -0 1 0 792)" font-size="8" font-family="Helvetica" font-style="italic"><tspan y="-413.6719" x="160.8671 165.7551 168.4191 172.8671 177.3151">Trans</tspan></text>
<text xml:space="preserve" transform="matrix(1 0 -0 1 0 792)" font-size="8" font-family="Helvetica"><tspan y="-413.6719" x="181.3151 183.5391 188.4271 192.87509 195.09909"> Fat </tspan></text>
<text xml:space="preserve" transform="matrix(1 0 -0 1 0 792)" font-size="8" font-family="Helvetica" font-weight="bold"><tspan y="-401.6719" x="154.2031 160.5871 166.0831 171.5791 174.4031 179.89911 184.94712 188.65912 194.15512 197.86713 203.36313 206.18714">Cholesterol </tspan><tspan y="-389.6719" x="154.2031 159.9791 165.3151 170.6511 173.3151 178.6511 186.6511">Sodium </tspan></text>
<text xml:space="preserve" transform="matrix(1 0 -0 1 0 792)" font-size="8" font-family="Helvetica"><tspan y="-374.2239" x="154.1951 159.5311 161.3071 163.5311 167.9791 174.6431 176.4191 180.8671 183.0911 188.8671">Vitamin D </tspan><tspan y="-362.2239" x="154.1951 159.9711 164.4191 166.1951 170.1951 171.9711 176.4191 183.0831">Calcium </tspan></text>
<text xml:space="preserve" transform="matrix(1 0 -0 1 0 792)" font-size="8.0024" font-family="Helvetica"><tspan y="-437.675" x="234.3355 238.78484 243.23418">5g </tspan><tspan y="-425.6714" x="234.3355 238.78484 243.23418">2g </tspan><tspan y="-413.6678" x="234.3355 238.78484 243.23418">0g </tspan><tspan y="-401.66419" x="234.3355 238.14464 242.59398 249.25998 253.70932">15mg </tspan><tspan y="-389.66059" x="234.3355 238.78484 243.23418 247.68352 254.34952 258.79887">240mg </tspan></text>
<text xml:space="preserve" transform="matrix(1 0 -0 1 0 792)" font-size="8.0024" font-family="Helvetica" font-weight="bold"><tspan y="-437.65098" x="281.58168 287.39143 295.86598">6% </tspan><tspan y="-425.64738" x="277.13233 281.56565 287.3914 295.88194">10% </tspan><tspan y="-401.64817" x="281.7577 287.3914 295.68989">5% </tspan><tspan y="-389.64457" x="277.1323 281.5656 287.39137 295.8819">10% </tspan><tspan y="-437.64295" x="343.09608 347.44139 353.21913 361.66166">13% </tspan><tspan y="-425.63935" x="341.4956 347.38697 353.2127 361.70326">20% </tspan><tspan y="-401.64015" x="342.95207 347.38539 353.21113 361.70167">10% </tspan><tspan y="-389.63655" x="342.63996 348.21763 353.21113 360.86943">21% </tspan></text>
<text xml:space="preserve" transform="matrix(1 0 -0 1 0 792)" font-size="8.0024" font-family="Helvetica"><tspan y="-437.64295" x="302.71598 306.52513 310.97447 315.4238">10g </tspan><tspan y="-425.63935" x="302.71598 307.1653 311.61466">4g </tspan><tspan y="-413.63575" x="302.71598 307.1653 311.61466">0g </tspan><tspan y="-401.63215" x="302.71598 307.1653 311.61466 318.28065 322.72999">30mg </tspan><tspan y="-389.62855" x="302.71598 307.1653 311.61466 316.064 322.72999 327.17933">480mg </tspan><tspan y="-374.1759" x="234.32746 238.7768 245.4428 249.444 253.89334">5mcg </tspan><tspan y="-362.1723" x="234.32746 238.7768 243.22614 247.67548 254.34148 258.7908">200mg </tspan><tspan y="-374.1759" x="279.37297 283.8223 288.27165 295.38578">25% </tspan><tspan y="-362.1723" x="279.37297 283.8223 288.27165 295.38578">15% </tspan><tspan y="-374.1759" x="345.20069 349.65003 354.09938 361.2135">50% </tspan><tspan y="-362.1723" x="345.20069 349.65003 354.09938 361.2135">30% </tspan><tspan y="-374.1759" x="302.71595 307.16529 311.61463 318.2806 322.2818 326.73115">10mcg </tspan><tspan y="-362.1723" x="302.71595 307.16529 311.61463 316.06398 322.72996 327.1793">400mg </tspan></text>
<path transform="matrix(1,0,0,-1,0,792)" d="M233.438 355.364H227.438V466.93803H233.438Z" fill="#ffffff"/>
<path transform="matrix(1,0,0,-1,0,792)" d="M301.387 355.364H295.386V466.93803H301.387Z" fill="#ffffff"/>
<path transform="matrix(1,0,0,-1,0,792)" d="M371.968 434.151H582.984V434.401H371.968Z"/>
<path transform="matrix(1,0,0,-1,0,792)" d="M582.877 383.351H371.969V386.35304H582.877Z"/>
<path transform="matrix(1,0,0,-1,0,792)" d="M582.984 447.138H371.50703V450.138H582.984Z"/>
<path transform="matrix(1,0,0,-1,0,792)" d="M371.968 422.15H582.55398V422.4H371.968Z"/>
<path transform="matrix(1,0,0,-1,0,792)" d="M386.508 410.145H582.877V410.395H386.508Z"/>
<path transform="matrix(1,0,0,-1,0,792)" d="M371.507 398.142H582.87698V398.391H371.507Z"/>
<path transform="matrix(1,0,0,-1,0,792)" d="M371.968 371.142H582.87698V371.391H371.968Z"/>
<text xml:space="preserve" transform="matrix(1 0 -0 1 0 792)" font-size="8" font-family="Helvetica"><tspan y="-374.2246" x="371.9687 374.1927 376.8567 381.3047 385.7527">Iron </tspan><tspan y="-362.2246" x="371.9687 377.3047 381.7527 383.97669 388.42469 392.42469 396.42469 398.20069 402.64869 409.31269">Potassium </tspan></text>
<text xml:space="preserve" transform="matrix(1 0 -0 1 0 792)" font-size="8.0024" font-family="Helvetica"><tspan y="-437.675" x="458.1002 462.54954 466.99888 471.4482">35g </tspan><tspan y="-425.6714" x="458.1002 462.54954 466.99888">6g </tspan><tspan y="-413.6678" x="458.1002 462.54954 466.99888">7g </tspan><tspan y="-401.66419" x="458.1002 462.54954 466.99888">4g </tspan><tspan y="-389.66059" x="458.1002 462.54954 466.99888">9g </tspan></text>
<text xml:space="preserve" transform="matrix(1 0 -0 1 0 792)" font-size="8.0024" font-family="Helvetica" font-weight="bold"><tspan y="-437.65098" x="499.03248 503.37779 509.15553 517.598">13% </tspan><tspan y="-425.64738" x="498.8244 504.16203 509.15553 516.81387">21% </tspan><tspan y="-401.64817" x="503.38578 509.15553 517.59">8% </tspan><tspan y="-437.65098" x="563.4998 569.3455 574.98318 583.2897">25% </tspan><tspan y="-425.64738" x="563.4598 569.2135 574.98886 583.40737">43% </tspan><tspan y="-401.64817" x="564.7322 569.1735 574.9833 583.4578">16% </tspan></text>
<text xml:space="preserve" transform="matrix(1 0 -0 1 0 792)" font-size="8.0024" font-family="Helvetica"><tspan y="-437.65898" x="523.90396 528.99349 534.083 539.17257">70g </tspan><tspan y="-425.65538" x="523.90396 528.99349 534.083 539.17257">12g </tspan><tspan y="-413.65177" x="523.90396 528.99349 534.083 539.17257">14g </tspan><tspan y="-401.64817" x="523.90396 528.3533 532.8026">8g </tspan><tspan y="-389.64457" x="523.90396 528.3533 532.8026 537.25198">18g </tspan><tspan y="-374.19194" x="458.1002 462.54954 469.2155 473.66487">1mg </tspan><tspan y="-362.18833" x="458.1002 462.54954 466.99888 471.4482 478.1142 482.56355">470mg </tspan><tspan y="-374.19194" x="505.59443 510.04377 517.1579">6% </tspan><tspan y="-362.18833" x="501.14509 505.59443 510.04377 517.1579">10% </tspan><tspan y="-374.19194" x="566.97286 571.4222 575.8715 582.98568">10% </tspan><tspan y="-362.18833" x="566.97286 571.4222 575.8715 582.98568">20% </tspan><tspan y="-374.19194" x="523.9119 528.36129 535.0273 539.4766">2mg </tspan><tspan y="-362.18833" x="523.9119 528.36129 532.8106 537.25997 543.92599 548.3753">940mg </tspan></text>
<path transform="matrix(1,0,0,-1,0,792)" d="M457.204 355.364H451.204V466.93803H457.204Z" fill="#ffffff"/>
<path transform="matrix(1,0,0,-1,0,792)" d="M523.15 355.364H517.14907V466.93803H523.15Z" fill="#ffffff"/>
<path transform="matrix(1,0,0,-1,366.2424,327.5244)" d="M0 0-.001-102.831H.248L.25 0Z"/>
<text xml:space="preserve" transform="matrix(1 0 -0 1 0 792)" font-size="8" font-family="Helvetica" font-weight="bold"><tspan y="-437.6704" x="371.9648 377.7408 383.0768 386.6288 391.9648 394.6288 397.29283 403.5168 408.8528 412.40483 417.7408">Total Carb.</tspan></text>
<text xml:space="preserve" transform="matrix(1 0 -0 1 0 792)" font-size="8" font-family="Helvetica"><tspan y="-425.6704" x="371.9648 374.1888 376.4128 378.6368 384.4128 386.1888 390.6368 392.8608 397.3088 399.9728 403.9728 406.1968 411.0848 412.8608 417.3088 421.7568">   Dietary Fiber</tspan><tspan y="-413.6704" x="371.9648 374.1888 376.4128 378.6368 383.5248 387.9728 390.1968 394.6448 396.4208 398.6448 403.9808 408.4288 412.8768 417.3248 419.9888 423.9888">   Total Sugars </tspan><tspan y="-401.6704" x="386.2688 388.2528 392.46083 396.22084 397.75685 399.74085 401.72486 406.82087 411.02888 415.23689 419.4449 423.6529 425.6369 430.7329 434.94093 439.14894 443.35694 445.78096 449.54096">Incl. Added Sugars </tspan></text>
<text xml:space="preserve" transform="matrix(1 0 -0 1 0 792)" font-size="8" font-family="Helvetica" font-weight="bold"><tspan y="-389.6704" x="371.9648 377.7408 381.29283 386.6288 390.18083 395.5168 398.18083 403.5168">Protein </tspan></text>
<text xml:space="preserve" transform="matrix(1 0 -0 1 0 792)" font-size="9" font-family="Helvetica"><tspan y="-418.0771" x="28.8672 33.8712 36.3732 40.8732 45.8772 48.874204 53.374204 55.372205 60.376207 65.3802 69.8802 72.3822 77.3862 82.3902 85.3872 87.8892 92.3892 97.393199 102.397197 104.89919 109.90319 111.90119 116.90519 121.90919 124.90619">2 servings per container </tspan></text>
<text xml:space="preserve" transform="matrix(1 0 -0 1 0 792)" font-size="9" font-family="Helvetica" font-weight="bold"><tspan y="-406.70109" x="29.2812 35.7792 41.782205 45.778207 51.277208 54.274209 60.277208 66.280208 69.27721 74.77621 77.77321 82.77721 88.780208">Serving size </tspan><tspan y="-396.7021" x="29.2812 35.284204 38.281206 44.284204 50.2872 56.2902 59.2872 62.7882 68.7912 74.7942 80.797199 86.80019 90.30119">1 cup (255g) </tspan></text>
<text xml:space="preserve" transform="matrix(1 0 -0 1 0 792)" font-size="6" font-family="Helvetica"><tspan y="-352.0381" x="154.8384 157.1724 160.8384 164.1744 167.51039 169.17839 174.51239 176.18039 180.51239 183.84839 185.18039 186.51239 189.51239 191.18459 195.18659 198.52259 199.85459 203.19058 206.52658 208.19458 210.19258 214.52458 218.52658 220.52458 222.19258 223.86058 227.19658 228.52858 229.86058 232.86058 234.52858 237.52858 240.86458 244.20058 245.86858 249.20458 252.54058 256.87257 258.54057 263.53855 266.87455 269.87455 273.21055 274.87855 278.21455 279.88255 283.21855 286.55455 288.22254 290.22053 291.55253 294.88853 298.22453 299.89253 301.56053 302.89253 306.22853 307.8965 311.2325 312.9005 315.9005 319.2365 321.2345 324.2345 325.5665 328.9025 332.2385 333.9065 337.2425 338.9105 340.5785 342.2465 345.5825 348.9185 352.2545 353.9225 356.9225 360.25849 363.59449 365.26249 367.26048 368.59248 371.92848 375.26448 376.93247 380.26847 383.26847 384.93647 386.60447 389.94047 391.60847 394.94447 396.61247 399.94847 403.28446 404.61647 405.94847 408.94847 410.61647 413.95246 415.28446 418.62046 420.28846 421.95646 423.62446 426.96046 428.62846 431.96446 435.30046 438.63645 440.30445 443.30445 446.64045 447.97245 451.30845 453.30644 454.63844 457.97444 460.97444 462.64244 465.97843 467.64643 470.98243 474.31843 477.31843 478.98643 480.31843 483.31843 484.98643 488.32243 491.32243 494.65843 497.99443 499.6624 501.3304 504.6664 506.6644 508.3324 511.6684 515.0044 518.3404 521.6764 523.6744 527.0104 528.34237 530.0104 533.3464 536.6824 538.3504 540.3484 541.68038 543.3484 544.68038 548.01638 551.35238 553.0204 556.3564 559.6924 562.6924 564.02438 567.02438 570.36038 572.0284">*The % Daily Value (DV) tells you how much a nutrient in a serving of food contributes to a daily diet. 2,000 calories a day is used for general nutrition advice. </tspan></text>
<text xml:space="preserve" transform="matrix(1 0 -0 1 0 792)" font-size="7" font-family="Helvetica" font-weight="bold"><tspan y="-353.3828" x="28.8672 33.431203 37.9952 40.9982 43.2242 47.396203 51.9602 54.963205 59.135206 61.361207 65.92521 70.48921 81.11521 85.679218 90.24322 93.246219 95.47221 100.03622 104.60022 109.16422 112.16722 116.731227 118.95722 123.521228 128.08522 131.08823">per serving per container </tspan></text>
<path transform="matrix(1,0,0,-1,0,792)" d="M154.602 359.142H582.47006V359.392H154.602Z"/>
<text xml:space="preserve" transform="matrix(1 0 -0 1 0 792)" font-size="6" font-family="Helvetica" font-weight="bold"><tspan y="-460.5" x="258.4058 262.7378 266.7398 269.4038 271.4018 275.06779 279.0698 281.7338 285.39979 287.39778 291.39979 295.4018">Per serving </tspan><tspan y="-453.498" x="274.73179 280.73179 282.72978 287.39778 292.06578 295.40177">% DV* </tspan><tspan y="-460.5" x="480.17179 484.50379 488.5058 491.1698 493.1678 496.83378 500.8358 503.4998 507.16578 509.16377 513.1658 517.1678">Per serving </tspan><tspan y="-453.498" x="496.49778 502.49778 504.49577 509.16377 513.8318 517.1678">% DV* </tspan><tspan y="-460.5" x="316.89378 321.22578 325.22779 327.89179 329.88978 333.89179 337.8938 341.8958 344.5598 348.56184 350.5598 354.56184 358.56385 361.22785">Per container </tspan><tspan y="-453.498" x="340.55778 346.55778 348.55577 353.22377 357.89176 361.22776">% DV* </tspan><tspan y="-460.5" x="538.6598 542.99179 546.9938 549.6578 551.65579 555.6578 559.6598 563.6618 566.3258 570.3278 572.3258 576.3278 580.32986 582.99386">Per container </tspan><tspan y="-453.498" x="562.3238 568.3238 570.3218 574.9898 579.65786 582.99386">% DV* </tspan></text>
<text xml:space="preserve" transform="matrix(1 0 -0 1 0 792)" font-size="11" font-family="Helvetica" font-weight="bold"><tspan y="-68.5464" x="298.6631 306.0001 313.3371">10 </tspan></text>
</svg>
