<svg xmlns="http://www.w3.org/2000/svg" xmlns:xlink="http://www.w3.org/1999/xlink" version="1.1" width="612pt" height="792pt" viewBox="0 0 612 792">
<text fill-opacity="0" xml:space="preserve" transform="matrix(1 0 -0 1 0 792)" font-size="8.0024" font-family="Helvetica" font-weight="bold" font-style="italic"><tspan y="-415.4717" x="202.4058 204.63048 206.85515 229.53395">    </tspan></text>
<text fill-opacity="0" xml:space="preserve" transform="matrix(1 0 -0 1 0 792)" font-size="8.0024" font-family="Helvetica" font-weight="bold"><tspan y="-365.47273" x="234.42342"> </tspan></text>
<text fill-opacity="0" xml:space="preserve" transform="matrix(1 0 -0 1 0 792)" font-size="8.0024" font-family="Helvetica"><tspan y="-340.4732" x="228.6697"> </tspan></text>
<text fill-opacity="0" xml:space="preserve" transform="matrix(1 0 -0 1 0 792)" font-size="10" font-family="Helvetica" font-weight="bold"><tspan y="-516.5039" x="283.1107 286.74067 290.37065 435.1007 438.9307 442.76069 446.59068 450.42066 454.25065 458.08064 461.9106 465.7406 469.5706 473.40058">              </tspan></text>
<text xml:space="preserve" transform="matrix(1 0 -0 1 0 792)" font-size="11" font-family="Helvetica" font-weight="bold"><tspan y="-696.1074" x="175.3751 183.9331 191.27011 198.60712 202.27011 205.9331 214.4911 221.82811 225.4911 232.82811 243.82811 251.16512 257.8861 261.5491 265.2121 273.15409 283.5381 290.8751 294.5381 301.8751 309.2121 314.0961 325.0961 331.8171 335.4801 342.8171 347.0961 350.7591 355.6431 362.9801 370.3171 373.9801 381.9221 389.2591 400.2591 407.5961 411.2591 418.5961 425.9331 433.2701 440.60713">Dual Columns, Two Forms of the Same Food </tspan></text>
<text xml:space="preserve" transform="matrix(1 0 -0 1 0 792)" font-size="10" font-family="Helvetica"><tspan y="-684.1123" x="264.6445 270.2045 275.7645 278.5445 285.7645 291.87449 299.09449 301.87449 307.43449 312.99449 318.55448 321.33448 326.89448 330.22447 335.78446 339.11445 342.44444 348.00444 351.3344">21 CFR 101.9(e)(5) </tspan></text>
<path transform="matrix(1,0,0,-1,202.8262,355.4053)" stroke-width=".25" stroke-linecap="butt" stroke-miterlimit="3.864" stroke-linejoin="miter" fill="none" stroke="#000000" d="M0 0H206.24"/>
<path transform="matrix(1,0,0,-1,202.543,342.3994)" stroke-width=".25" stroke-linecap="butt" stroke-miterlimit="3.864" stroke-linejoin="miter" fill="none" stroke="#000000" d="M0 0H206.523"/>
<path transform="matrix(1,0,0,-1,202.5352,252.69629)" stroke-width=".25" stroke-linecap="butt" stroke-miterlimit="3.864" stroke-linejoin="miter" fill="none" stroke="#000000" d="M0 0H206.215"/>
<path transform="matrix(1,0,0,-1,0,792)" d="M408.75 462.937H202.543V465.70103H408.75Z"/>
<path transform="matrix(1,0,0,-1,202.543,417.377)" stroke-width=".25" stroke-linecap="butt" stroke-miterlimit="3.864" stroke-linejoin="miter" fill="none" stroke="#000000" d="M0 0H206.523"/>
<path transform="matrix(1,0,0,-1,203.1885,429.7715)" stroke-width=".25" stroke-linecap="butt" stroke-miterlimit="3.864" stroke-linejoin="miter" fill="none" stroke="#000000" d="M0 0H205.878"/>
<path transform="matrix(1,0,0,-1,0,792)" d="M408.949 316.525H202.535V323.525H408.949Z"/>
<text xml:space="preserve" transform="matrix(1 0 -0 1 0 792)" font-size="26" font-family="Helvetica" font-weight="bold"><tspan y="-545.4482" x="202.2197 223.3577 240.2057 251.2557 262.3057 270.4437 281.49369 289.65769 306.50569 323.8477 332.50569 349.1977 365.8897 382.58174 393.47575 408.71174">Nutrition Facts </tspan></text>
<path transform="matrix(1,0,0,-1,202.8262,367.7998)" stroke-width=".242" stroke-linecap="butt" stroke-miterlimit="3.864" stroke-linejoin="miter" fill="none" stroke="#000000" d="M0 0H206.24"/>
<path transform="matrix(1,0,0,-1,215.4141,442.166)" stroke-width=".25" stroke-linecap="butt" stroke-miterlimit="3.864" stroke-linejoin="miter" fill="none" stroke="#000000" d="M0 0H193.652"/>
<path transform="matrix(1,0,0,-1,413.207,223.11432)" d="M0 0H-.5-213.914-214.414V-.5-340.413-340.913H-213.914-.5 0V-340.413-.5ZM-.5-340.413H-213.914V-.5H-.5Z"/>
<path transform="matrix(1,0,0,-1,202.543,454.5605)" stroke-width=".25" stroke-linecap="butt" stroke-miterlimit="3.864" stroke-linejoin="miter" fill="none" stroke="#000000" d="M0 0H206.523"/>
<path transform="matrix(1,0,0,-1,202.8262,380.1943)" stroke-width=".242" stroke-linecap="butt" stroke-miterlimit="3.864" stroke-linejoin="miter" fill="none" stroke="#000000" d="M0 0H206.24"/>
<path transform="matrix(1,0,0,-1,202.543,404.9824)" stroke-width=".242" stroke-linecap="butt" stroke-miterlimit="3.864" stroke-linejoin="miter" fill="none" stroke="#000000" d="M0 0H206.523"/>
<path transform="matrix(1,0,0,-1,202.543,392.5889)" stroke-width=".242" stroke-linecap="butt" stroke-miterlimit="3.864" stroke-linejoin="miter" fill="none" stroke="#000000" d="M0 0H206.377"/>
<text xml:space="preserve" transform="matrix(1 0 -0 1 0 792)" font-size="8.0024" font-family="Helvetica"><tspan y="-440.481" x="285.335 289.78434 292.009 296.45835 300.90769">1.5g </tspan><tspan y="-427.98124" x="285.335 289.78434 294.23368">1g </tspan><tspan y="-415.48149" x="285.335 289.78434 294.23368">0g </tspan><tspan y="-402.98173" x="285.335 289.78434 296.45033 300.89967">0mg </tspan><tspan y="-390.48197" x="285.335 289.78434 294.23368 298.683 305.349 309.79835">300mg </tspan><tspan y="-377.9822" x="285.335 289.78434 294.23368 298.683">36g </tspan><tspan y="-365.48246" x="285.335 290.0084 294.45774 298.90708">&#x003c;1g </tspan><tspan y="-352.9827" x="285.335 289.78434 294.23368 298.683">18g </tspan><tspan y="-340.48295" x="285.335 289.78434 294.23368 298.683">18g </tspan><tspan y="-327.9832" x="285.335 289.78434 294.23368">2g </tspan><tspan y="-306.52076" x="285.327 289.93638 296.76243 300.92369 305.53306">0mcg </tspan><tspan y="-294.021" x="285.327 289.93638 294.54576 299.15513 305.98118 310.59056">100mg </tspan><tspan y="-281.52125" x="285.327 289.77635 296.6024 301.21177">1mg </tspan><tspan y="-269.02149" x="285.327 289.93638 294.54576 301.3718 305.98118">40mg </tspan><tspan y="-306.52073" x="352.2751 356.5644 363.23039 367.23158 371.6809">0mcg </tspan><tspan y="-294.02098" x="352.2751 356.72444 361.17378 365.6231 372.2891 376.73844">100mg </tspan><tspan y="-281.5212" x="352.2751 356.72444 363.3904 367.83976">1mg </tspan><tspan y="-269.02146" x="352.2751 356.72444 361.17378 367.83976 372.2891">40mg </tspan><tspan y="-306.5207" x="333.14137 337.71073 344.9449">0% </tspan><tspan y="-294.02095" x="333.1974 337.70274 344.8729">8% </tspan><tspan y="-281.52119" x="333.14939 337.70277 344.92094">6% </tspan><tspan y="-269.02143" x="333.1414 337.71076 344.94493">0% </tspan><tspan y="-306.52067" x="396.5204 401.08976 408.3239">0% </tspan><tspan y="-294.0209" x="396.57643 401.08177 408.25193">8% </tspan><tspan y="-281.52116" x="396.5284 401.0818 408.29997">6% </tspan><tspan y="-269.0214" x="396.52043 401.08979 408.32395">0% </tspan></text>
<text xml:space="preserve" transform="matrix(1 0 -0 1 0 792)" font-size="8.0024" font-family="Helvetica" font-weight="bold"><tspan y="-440.4728" x="331.701 337.3747 345.7132">2% </tspan><tspan y="-427.97306" x="331.98109 337.3787 345.4451">5% </tspan><tspan y="-402.97355" x="331.78904 337.3747 345.62519">0% </tspan><tspan y="-390.4738" x="326.93159 331.677 337.37474 345.73725">13% </tspan><tspan y="-377.97404" x="326.93159 331.677 337.37474 345.73725">13% </tspan><tspan y="-365.47428" x="331.61299 337.3667 345.78523">2% </tspan><tspan y="-340.47477" x="326.25138 331.79704 337.36909 345.57954">36% </tspan><tspan y="-440.47279" x="389.86247 395.20008 400.19358 407.85188">21% </tspan><tspan y="-427.97303" x="389.19026 394.79673 400.19035 408.24876">25% </tspan><tspan y="-402.9735" x="388.95018 394.60145 400.1871 408.4376">20% </tspan><tspan y="-390.47377" x="389.6944 394.3758 400.18556 408.6601">16% </tspan><tspan y="-377.974" x="389.7424 394.48783 400.18556 408.54808">13% </tspan><tspan y="-365.47425" x="394.4238 400.17753 408.59605">2% </tspan><tspan y="-340.47474" x="389.0622 394.60786 400.1799 408.39036">36% </tspan></text>
<text xml:space="preserve" transform="matrix(1 0 -0 1 0 792)" font-size="8.0024" font-family="Helvetica"><tspan y="-440.4807" x="352.25117 356.7005 361.14985 365.59919">16g </tspan><tspan y="-427.98097" x="352.25117 356.7005 361.14985">5g </tspan><tspan y="-415.4812" x="352.25117 356.7005 361.14985">0g </tspan><tspan y="-402.98146" x="352.25117 356.7005 361.14985 367.81584 372.26518">60mg </tspan><tspan y="-390.4817" x="352.25117 356.7005 361.14985 365.59919 372.26518 376.7145">375mg </tspan><tspan y="-377.98194" x="352.25117 356.7005 361.14985 365.59919">36g </tspan><tspan y="-365.48219" x="352.25117 356.92457 361.3739 365.82325">&#x003c;1g </tspan><tspan y="-352.98243" x="352.25117 356.7005 361.14985 365.59919">18g </tspan><tspan y="-340.48268" x="352.25117 356.7005 361.14985 365.59919">18g </tspan><tspan y="-327.9829" x="352.25117 356.7005 361.14985">3g </tspan><tspan y="-306.52049" x="202.35819 207.69579 209.47232 211.69699 216.14633 222.81233 224.58887 229.03821 231.26288 237.04062">Vitamin D </tspan><tspan y="-294.02073" x="202.35819 208.13593 212.58527 214.3618 218.363 220.13954 224.58889 231.25489">Calcium </tspan><tspan y="-281.52098" x="202.35819 204.58286 207.24765 211.69699 216.14633">Iron </tspan><tspan y="-269.0212" x="202.35819 207.69579 212.14513 214.3698 218.81914 222.82035 226.82155 228.59809 233.04743 239.71343">Potassium </tspan></text>
<text xml:space="preserve" transform="matrix(1 0 -0 1 0 792)" font-size="16" font-family="Helvetica" font-weight="bold"><tspan y="-469.2744" x="202.3618 214.8098 225.4818 230.8098 241.4818 248.5858 253.9138 264.58583 274.36183">Calories </tspan></text>
<path transform="matrix(1,0,0,-1,202.5684,489.8711)" stroke-width=".25" stroke-linecap="butt" stroke-miterlimit="3.864" stroke-linejoin="miter" fill="none" stroke="#000000" d="M0 0H206.467"/>
<path transform="matrix(1,0,0,-1,202.5449,500.9102)" stroke-width=".25" stroke-linecap="butt" stroke-miterlimit="3.864" stroke-linejoin="miter" fill="none" stroke="#000000" d="M0 0H206.514"/>
<path transform="matrix(1,0,0,-1,202.5449,512.94729)" stroke-width=".25" stroke-linecap="butt" stroke-miterlimit="3.864" stroke-linejoin="miter" fill="none" stroke="#000000" d="M0 0H206.514"/>
<path transform="matrix(1,0,0,-1,0,792)" d="M409.184 503.669H202.549V510.689H409.184Z"/>
<text xml:space="preserve" transform="matrix(1 0 -0 1 0 792)" font-size="6" font-family="Helvetica" font-weight="bold"><tspan y="-495.6997" x="307.8452 312.17723 316.17924 318.84324 320.84123 324.84324 326.51124 330.51325 332.51124 336.51325 340.51527 344.51728">Per 1/4 cup </tspan><tspan y="-488.6977" x="320.18724 324.18925 326.85325 330.51924 332.5172 338.5172 340.5152 344.5172">dry mix </tspan><tspan y="-495.7057" x="376.17323 380.50523 384.50724 387.17124 389.16923 393.17124 397.17326 401.17527 405.17729 409.1793">Per baked </tspan><tspan y="-488.70368" x="385.8452 389.84724 393.84925 396.51325 399.17726 401.17524 405.17726">portion</tspan><tspan y="-454.07768" x="298.61723 300.6152 302.6132 304.61119 306.60917 308.60716 310.60514 312.60313 314.6011 316.5991 318.59709 320.59507 322.59306 324.59104 330.59104 332.58903 337.25703 341.92503 345.26103 388.5932 394.5932 396.5912 401.2592 405.9272 409.26319">             % DV* % DV* </tspan></text>
<path transform="matrix(1,0,0,-1,0,792)" d="M284.437 261.337H278.437V468.63203H284.437Z" fill="#ffffff"/>
<path transform="matrix(1,0,0,-1,0,792)" d="M351.384 261.337H345.384V468.63203H351.384Z" fill="#ffffff"/>
<path transform="matrix(1,0,0,-1,202.3125,529.6631)" stroke-width="3.442" stroke-linecap="butt" stroke-miterlimit="3.864" stroke-linejoin="miter" fill="none" stroke="#000000" d="M0 0H206.209"/>
<path transform="matrix(1,0,0,-1,281.4346,291.626)" stroke-width=".25" stroke-linecap="butt" stroke-miterlimit="3.864" stroke-linejoin="miter" fill="none" stroke="#000000" d="M0 0-.001-234.027"/>
<path transform="matrix(1,0,0,-1,348.417,291.626)" stroke-width=".25" stroke-linecap="butt" stroke-miterlimit="3.864" stroke-linejoin="miter" fill="none" stroke="#000000" d="M0 0-.001-234.027"/>
<text xml:space="preserve" transform="matrix(1 0 -0 1 0 792)" font-size="8.0024" font-family="Helvetica" font-weight="bold"><tspan y="-440.4712" x="202.4058 208.18355 213.52115 217.07422 222.41182 225.07662 227.74141 233.07901 238.41661">Total Fat</tspan></text>
<text xml:space="preserve" transform="matrix(1 0 -0 1 0 792)" font-size="8.0024" font-family="Helvetica"><tspan y="-427.97145" x="202.4058 204.63048 206.85515 209.07982 214.41742 218.86676 221.09143 225.54077 228.20557 232.6549 234.87958 239.32892 243.77826 246.00293 250.8924 255.34174 257.5664">   Saturated Fat </tspan></text>
<text xml:space="preserve" transform="matrix(1 0 -0 1 0 792)" font-size="8.0024" font-family="Helvetica" font-style="italic"><tspan y="-415.47169" x="209.0798 213.96927 216.63407 221.0834 225.53275 229.53395">Trans </tspan></text>
<text xml:space="preserve" transform="matrix(1 0 -0 1 0 792)" font-size="8.0024" font-family="Helvetica"><tspan y="-415.47169" x="231.75862 236.64809 241.09743 243.3221">Fat </tspan></text>
<text xml:space="preserve" transform="matrix(1 0 -0 1 0 792)" font-size="8.0024" font-family="Helvetica" font-weight="bold"><tspan y="-402.97193" x="202.4058 208.63167 213.96927 219.30687 221.97167 227.30927 232.19873 235.7518 241.0894 244.64247 249.98007 252.64487">Cholesterol </tspan><tspan y="-390.47218" x="202.4058 208.18355 213.52115 218.85875 221.52355 226.86115 234.86354">Sodium </tspan><tspan y="-377.9724" x="202.4058 208.18355 213.52115 217.07422 222.41182 225.07662 227.74141 233.96727 239.30487 242.85794 248.19554">Total Carb.</tspan></text>
<text xml:space="preserve" transform="matrix(1 0 -0 1 0 792)" font-size="8.0024" font-family="Helvetica"><tspan y="-365.47267" x="202.4058 204.63048 206.85515 209.07982 214.85756 216.6341 221.08344 223.3081 227.75745 230.42224 234.42345 236.64812 241.53759 243.31412 247.76346 252.2128">   Dietary Fiber</tspan><tspan y="-352.9729" x="202.4058 204.63048 206.85515 209.07982 213.96929 218.41863 220.6433 225.09264 226.86917 229.09384 234.43144 238.88079 243.33013 247.77947 250.44426">   Total Sugars</tspan><tspan y="-340.47315" x="202.4058 204.47043 206.53505 208.59967 210.66429 212.72891 214.79354 216.85816 221.14745 224.9886 226.60509 229.68602 234.86357 239.15287 243.44216 247.73145 252.02074 254.08536 259.2629 263.5522 267.84147 272.13075 274.6355 278.47666">      Incl.Added Sugars </tspan></text>
<text xml:space="preserve" transform="matrix(1 0 -0 1 0 792)" font-size="8.0024" font-family="Helvetica" font-weight="bold"><tspan y="-327.9734" x="202.4058 208.18355 211.73662 217.07422 220.62729 225.96489 228.62969 233.96729">Protein </tspan></text>
<text xml:space="preserve" transform="matrix(1 0 -0 1 0 792)" font-size="6" font-family="Helvetica"><tspan y="-250.835" x="206.1919 209.8579 213.1939 216.52989 218.19789 223.53189 225.19989 229.53189 232.86789 234.19989 235.53189 238.53189 240.19989 244.20189 247.53789 248.86989 252.20589 255.54189 257.2099 259.2079 263.5399 267.5419 269.5399 271.2079 272.8759 276.21189 277.54389 278.8759 281.8759 283.54389 286.54389 289.87989 293.21589 294.88389 298.21989 301.55589 305.88789 307.55589 312.55387 315.88987 318.88987 322.22587 323.89387 327.22987 328.89787 332.23387 335.56986 337.23786 339.23585 340.56785 343.90385 347.23985 348.90785 350.57585 351.90785 355.24385 356.91184 360.24784 361.91584 364.91584 368.25184 370.24983 373.24983 374.58183 377.91783 381.2538 382.9218 386.2578 387.9258">The % Daily Value (DV) tells you how much a nutrient in a serving of </tspan><tspan y="-243.83301" x="206.1919 207.8599 211.19589 214.53189 217.86789 219.53589 222.53589 225.87189 229.20789 230.87589 232.87389 234.20589 237.54189 240.87789 242.55008 245.88608 248.88608 250.55408 252.22208 255.55808 257.22608 260.56208 262.23008 265.56608 268.90208 270.23408 271.56608 274.56608 276.23408 279.57008 280.90208 284.23808 285.90608 287.57408 289.24208 292.57807 294.24607 297.58207 300.91807 304.25407 305.92207 308.92207 312.25807 313.59007 316.92607 318.92405 320.25605 323.59205 326.59205 328.26005 331.59605 333.26405 336.60005 339.93605 342.93605 344.60404 345.93605 348.93605 350.60404 353.94004 356.94004 360.27604 363.61204 365.28004 366.94804 370.28404 372.282 373.95 377.286 380.622 383.958 387.294 389.292 392.628 393.96">food contributes to a daily diet. 2,000 calories a day is used for general </tspan><tspan y="-236.83101" x="206.1919 209.5279 212.86389 214.53189 216.52989 217.8619 219.52989 220.8619 224.19789 227.53389 229.20189 232.53789 235.87389 238.87389 240.20589 243.21189 246.54788 248.21588">nutrition advice. </tspan><tspan y="-250.82901" x="202.1119 204.44589">* </tspan></text>
<text xml:space="preserve" transform="matrix(1 0 -0 1 0 792)" font-size="10" font-family="Helvetica"><tspan y="-528.5039" x="203.6807 209.24069 214.80069 217.58069 222.58069 228.14069 231.47069 236.47069 238.69069 244.25069 249.81069 254.81069 257.5907 263.1507 268.7107 272.04069 274.82069 279.82069 285.38069 290.94068 293.72068 299.28068 301.50068 307.06068 312.62068">12 servings per container</tspan></text>
<text xml:space="preserve" transform="matrix(1 0 -0 1 0 792)" font-size="10" font-family="Helvetica" font-weight="bold"><tspan y="-516.5039" x="203.6807 210.9007 217.5707 222.0107 228.1207 231.4507 238.1207 244.7907 248.1207 254.2307 257.5607 263.1207 269.7907 273.1207 276.45069 279.78068 294.00068 300.6707 303.45069 310.1207 313.45069 320.1207 326.7907 333.46073 336.7907 343.46073 347.90074 354.0107 357.3407 367.3407 370.6707 377.3407 380.6707 384.5607 391.2307 397.90074 404.57075 408.46076 411.79075 415.12074 418.4507 421.7807 425.1107 428.44068 431.77067">Serving size    1/4 cup dry mix (44g)        </tspan></text>
<text xml:space="preserve" transform="matrix(1 0 -0 1 0 792)" font-size="20" font-family="Helvetica" font-weight="bold"><tspan y="-469.292" x="305.3779 318.7179 332.0579 345.3979 368.1979 381.5379 394.8779 408.2179">170 300 </tspan></text>
<text xml:space="preserve" transform="matrix(1 0 -0 1 0 792)" font-size="11" font-family="Helvetica" font-weight="bold"><tspan y="-68.5464" x="298.6631 306.0001 313.3371">13 </tspan></text>
</svg>
