<svg xmlns="http://www.w3.org/2000/svg" xmlns:xlink="http://www.w3.org/1999/xlink" version="1.1" width="610.062pt" height="282.664pt" viewBox="0 0 610.062 282.664">
<text fill-opacity="0" xml:space="preserve" transform="matrix(1 0 -0 1 0 792)" font-size="14.04" font-family="TimesNewRomanPSMT"><tspan y="-483.9601" x="72 80.52228 87.598438 93.83219 104.51663 111.59279 115.55207 121.785839 125.26775 129.94307 137.01923 141.69454 152.37897 158.61272 162.57199 168.0897 171.57163 177.80538 184.76921 190.89064 194.84992 198.80919 204.93062 211.89446 215.85373 222.08748 225.5694 229.40232 236.47847 239.96039 243.7933 250.75714 254.71642 260.23414 263.5897 270.66587 277.6297 283.86347 290.93965 301.62409 307.85786 314.93403 318.83723 322.7965">Example formats available in this document: </tspan></text>
<text fill-opacity="0" xml:space="preserve" transform="matrix(1 0 -0 1 0 792)" font-size="12" font-family="SymbolMT"><tspan y="-456.48" x="90">&#x2022;</tspan></text>
<text fill-opacity="0" xml:space="preserve" transform="matrix(1 0 -0 1 0 792)" font-size="12" font-family="TimesNewRomanPSMT"><tspan y="-456.48" x="108 114.72 118.08 123.36 129.36 135.36 140.64 144.59999 150.59999 153.59999 162.23999 167.51999 171.47998 174.83998 178.19998 183.59998 188.87998">Standard Vertical</tspan></text>
<text fill-opacity="0" xml:space="preserve" transform="matrix(1 0 -0 1 0 792)" font-size="12" font-family="SymbolMT"><tspan y="-429.36003" x="90">&#x2022;</tspan></text>
<text fill-opacity="0" xml:space="preserve" transform="matrix(1 0 -0 1 0 792)" font-size="12" font-family="Calibri"><tspan y="-429.36003" x="108 113.52 117.59999 123.35999 129.59999 135.95999 141.71999 145.91999 152.15998 154.91997 161.75997 167.75997 171.83997 175.91997 178.67996 183.71996 189.47995 195 198.59999 204.12 206.87999 213.11998 219.12 222.84 229.08 234.48 238.2 243.72 246.48 252.84 258.84 261.47999 268.91999 271.68 276.36003 282.72004 285.48005 291.24006 296.64006">Standard Vertical(Side-by-Side Display)</tspan></text>
<text fill-opacity="0" xml:space="preserve" transform="matrix(1 0 -0 1 0 792)" font-size="12" font-family="SymbolMT"><tspan y="-401.88" x="89.999988">&#x2022;</tspan></text>
<text fill-opacity="0" xml:space="preserve" transform="matrix(1 0 -0 1 0 792)" font-size="12" font-family="Calibri"><tspan y="-401.88" x="107.999988 113.51998 117.599979 123.35998 129.59998 135.95998 141.71997 145.91997 152.15996 154.91996 161.75995 167.75995 171.83995 175.91996 178.67995 183.71994 189.47994 194.99999 198.59999 207.12 211.8 214.56 221.28 227.64 230.28 236.64 243 246.96 252.72002 256.92 262.32">Standard Vertical(w/ Voluntary)</tspan></text>
<text fill-opacity="0" xml:space="preserve" transform="matrix(1 0 -0 1 0 792)" font-size="12" font-family="SymbolMT"><tspan y="-374.4" x="89.999988">&#x2022;</tspan></text>
<text fill-opacity="0" xml:space="preserve" transform="matrix(1 0 -0 1 0 792)" font-size="12" font-family="Calibri"><tspan y="-374.4" x="107.999988 113.87999 119.63999 125.99999 132.36 135.12 140.76 144.95999 147.71999 153.23999 159.59999 163.68 173.28 179.04">Tabular Format</tspan></text>
<text fill-opacity="0" xml:space="preserve" transform="matrix(1 0 -0 1 0 792)" font-size="12" font-family="SymbolMT"><tspan y="-346.91999" x="89.999988">&#x2022;</tspan></text>
<text fill-opacity="0" xml:space="preserve" transform="matrix(1 0 -0 1 0 792)" font-size="12" font-family="Calibri"><tspan y="-346.91999" x="107.999988 114.959987 120.59998 126.23998 130.43999 136.43999 142.07999 147.83998 151.91999 157.79999 160.55998 167.99999 170.75998 175.43997 181.79998 184.43997 190.19997">Aggregate Display</tspan></text>
<text fill-opacity="0" xml:space="preserve" transform="matrix(1 0 -0 1 0 792)" font-size="12" font-family="SymbolMT"><tspan y="-319.43998" x="89.999988">&#x2022;</tspan></text>
<text fill-opacity="0" xml:space="preserve" transform="matrix(1 0 -0 1 0 792)" font-size="12" font-family="Calibri"><tspan y="-319.43998" x="107.999988 115.43998 121.79998 127.55998 130.31998 133.07997 139.43997 145.79998 148.43997 154.79998 164.39998 170.63997 173.39997 180.83997 183.59996 188.15996 194.51996 197.27996 203.03995">Dual Column Display</tspan></text>
<text fill-opacity="0" xml:space="preserve" transform="matrix(1 0 -0 1 0 792)" font-size="12" font-family="SymbolMT"><tspan y="-291.95997" x="89.999988">&#x2022;</tspan></text>
<text fill-opacity="0" xml:space="preserve" transform="matrix(1 0 -0 1 0 792)" font-size="12" font-family="Calibri"><tspan y="-291.95997" x="107.999988 113.51998 116.27998 125.87998 132.23999 134.99999 137.75998 141.47998 144.11998 150.11998 156.47998 159.11998 166.55998 169.31998 173.99997 180.35997 183.11997 188.87996">Simplified Display</tspan></text>
<text fill-opacity="0" xml:space="preserve" transform="matrix(1 0 -0 1 0 792)" font-size="12" font-family="SymbolMT"><tspan y="-264.47996" x="89.999988">&#x2022;</tspan></text>
<text fill-opacity="0" xml:space="preserve" transform="matrix(1 0 -0 1 0 792)" font-size="12" font-family="Calibri"><tspan y="-264.47996" x="107.999988 110.999988 117.359989 121.07999 126.83999 133.07999 137.15999 144.47998 148.55998 154.91999 159.11998 165.35999 171.71999 177.35999 183.59999 186.36 192.48 198.48 201.24 211.56 217.8 224.16 228.12001 234.48001 239.16 241.92002 248.28002 251.88002 254.64003 261.60005 267.24006">Infantsthrough 12 Months of Age</tspan></text>
<text fill-opacity="0" xml:space="preserve" transform="matrix(1 0 -0 1 0 792)" font-size="12" font-family="SymbolMT"><tspan y="-236.99996" x="89.999988">&#x2022;</tspan></text>
<text fill-opacity="0" xml:space="preserve" transform="matrix(1 0 -0 1 0 792)" font-size="12" font-family="Calibri"><tspan y="-236.99996" x="107.999988 114.359989 120.71998 123.47998 126.23998 132.59999 136.79999 142.68 149.04 151.79999 157.79999 161.51999 167.63999 170.27999 176.15999 182.15999 187.91999 192.11998">Children 1-3 Years</tspan></text>
<text fill-opacity="0" xml:space="preserve" transform="matrix(1 0 -0 1 0 792)" font-size="12" font-family="SymbolMT"><tspan y="-209.39997" x="89.999988">&#x2022;</tspan></text>
<text fill-opacity="0" xml:space="preserve" transform="matrix(1 0 -0 1 0 792)" font-size="12" font-family="Calibri"><tspan y="-209.39997" x="107.999988 113.87999 119.63999 125.99999 132.36 135.12 140.76 144.95999 147.71999 155.03998 161.39998 167.15998 169.91997 172.67996 179.03997 185.39997 188.03997 194.39997 203.99997 210.23996 212.99996 220.43996 223.19995 227.75995 234.11995 236.87995 242.63994">Tabular Dual Column Display</tspan></text>
<text fill-opacity="0" xml:space="preserve" transform="matrix(1 0 -0 1 0 792)" font-size="12" font-family="SymbolMT"><tspan y="-181.91997" x="89.999988">&#x2022;</tspan></text>
<text fill-opacity="0" xml:space="preserve" transform="matrix(1 0 -0 1 0 792)" font-size="12" font-family="Calibri"><tspan y="-181.91997" x="107.999988 113.87999 119.63999 125.99999 132.36 135.12 140.76 144.95999 147.71999 155.15999 157.91999 162.47998 168.83998 171.59998 177.35997 185.39997 189.11997 195.47997 199.67996 202.43996 207.83997 217.43997 223.19997 225.95996 228.59996 231.35996 237.59996 243.35996 248.39995 253.79994 259.55995 265.19996 271.19996">Tabular Displayfor Small Packages</tspan></text>
<text fill-opacity="0" xml:space="preserve" transform="matrix(1 0 -0 1 0 792)" font-size="12" font-family="SymbolMT"><tspan y="-154.43997" x="89.999988">&#x2022;</tspan></text>
<text fill-opacity="0" xml:space="preserve" transform="matrix(1 0 -0 1 0 792)" font-size="12" font-family="Calibri"><tspan y="-154.43997" x="107.999988 113.039989 115.79999 122.15998 128.15998 133.91997 138.11997 140.75997 148.19997 150.95996 155.63996 161.99996 164.75995 170.51995 175.91994 178.55994 182.27994 188.63994 195.47994 200.99994 210.59995 216.35994 219.11994 221.87993 224.51993 230.63994 236.39994 241.43993 246.83992 252.59992 258.23994 264.23994">Linear Display forSmall Packages</tspan></text>
<path transform="matrix(1,0,0,-1,0,792)" d="M275.04 542.04H510.96003V542.75997H275.04Z" fill="#0000ff"/>
<text fill-opacity="0" xml:space="preserve" transform="matrix(1 0 -0 1 0 792)" font-size="20.04" font-family="TimesNewRomanPS" font-weight="bold"><tspan y="-701.4" x="206.5265 249.35199 334.28153 384.78233 438.72999">     </tspan><tspan y="-655.4283" x="229.91316 388.12898 465.48338">   </tspan></text>
<text fill-opacity="0" xml:space="preserve" transform="matrix(1 0 -0 1 0 792)" font-size="20.04" font-family="TimesNewRomanPSMT"><tspan y="-586.651" x="354.9828 415.44349">  </tspan></text>
<text fill-opacity="0" xml:space="preserve" transform="matrix(1 0 -0 1 0 792)" font-size="15.96" font-family="TimesNewRomanPSMT"><tspan y="-544.44" x="119.0403 239.5383 515.0398">   </tspan><tspan y="-513.3659" x="537.71896"> </tspan></text>
<text fill-opacity="0" xml:space="preserve" transform="matrix(1 0 -0 1 0 792)" font-size="14.04" font-family="TimesNewRomanPSMT"><tspan y="-483.9601" x="326.1521"> </tspan></text>
<text fill-opacity="0" xml:space="preserve" transform="matrix(1 0 -0 1 0 792)" font-size="12" font-family="Calibri"><tspan y="-429.36" x="192.2415"> </tspan><tspan y="-401.87998" x="192.2415"> </tspan><tspan y="-264.47999" x="141.8415"> </tspan><tspan y="-181.91999" x="182.7615"> </tspan><tspan y="-154.43999" x="192.72151"> </tspan></text>
<text fill-opacity="0" xml:space="preserve" transform="matrix(1 0 -0 1 0 792)" font-size="20.04" font-family="Times"><tspan y="-701.4" x="438.7495 443.7996">  </tspan><tspan y="-655.4283" x="465.543 470.59309">  </tspan><tspan y="-586.651" x="415.4831 420.453">  </tspan></text>
<text fill-opacity="0" xml:space="preserve" transform="matrix(1 0 -0 1 0 792)" font-size="15.96" font-family="Times"><tspan y="-544.44" x="514.9441 518.9341">  </tspan></text>
<text fill-opacity="0" xml:space="preserve" transform="matrix(1 0 -0 1 0 792)" font-size="20.04" font-family="Times"><tspan y="-701.4" x="438.7495 443.7996">  </tspan><tspan y="-655.4283" x="465.543 470.59309">  </tspan><tspan y="-586.651" x="415.4831 420.453">  </tspan></text>
<text fill-opacity="0" xml:space="preserve" transform="matrix(1 0 -0 1 0 792)" font-size="15.96" font-family="Times"><tspan y="-544.44" x="514.9441 518.9341">  </tspan></text>
<text xml:space="preserve" transform="matrix(1 0 -0 1 0 792)" font-size="15.96" font-family="TimesNewRomanPSMT"><tspan y="-513.3659" x="74.27252 79.55528 84.83804 90.23252 95.51528 100.79804 106.19252 111.47528 116.86976 122.15252 127.43528 132.82976 138.11252 143.507 148.78977 154.07253 159.46701 164.74977 170.14426 175.42702 180.70978 186.10427 191.38703 196.78151 202.06427 207.34703 212.74152 218.02428 223.30704 228.70153 233.98429 239.37877 244.66153 249.94429 255.33878 260.62153 266.016 271.29875 276.58149 281.97596 287.2587 292.65318 297.9359 303.21867 308.61314 313.89588 319.29035 324.5731 329.85585 335.2503 340.53306 345.8158 351.21028 356.493 361.88749 367.17024 372.45298 377.84745 383.1302 388.52467 393.8074 399.09016 404.48463 409.76737 415.16184 420.44459 425.72734 431.1218 436.40455 441.799 447.08177 452.3645 457.75898 463.04173 468.32447 473.71894 479.00169 484.39616 489.6789 494.96165 500.3561 505.63887 511.03334 516.3161 521.5989 526.99337 532.2761">---------------------------------------------------------------------------------------</tspan></text>
<text xml:space="preserve" transform="matrix(1 0 -0 1 0 792)" font-size="20.04" font-family="TimesNewRomanPS" font-weight="bold"><tspan y="-701.4" x="173.16 186.48662 197.64891 206.58675 211.55667 226.06563 234.94335 249.4523 254.2619 268.79093 279.83296 286.54637 295.30384 300.81486 307.52827 313.03929 323.11943 334.30174 339.31175 351.43595 361.51609 370.27357 376.98698 384.8226 389.81257 403.13917 413.09907 424.26133 433.13905 438.75025">The New Nutrition Facts Label </tspan><tspan y="-655.4283" x="146.52684 159.85344 169.93355 180.01366 196.5667 207.72899 213.23999 222.1177 229.95336 234.94332 244.90319 251.61658 256.52638 271.0554 276.5664 283.27983 289.99324 298.87095 307.74867 316.50614 327.6684 334.3818 339.41184 352.6182 362.69834 373.74037 382.61808 388.22929 393.15913 405.40357 415.4837 424.36143 440.91447 450.9946 457.708 465.54365">Examples of Different Label Formats </tspan></text>
<text xml:space="preserve" transform="matrix(1 0 -0 1 0 792)" font-size="20.04" font-family="TimesNewRomanPSMT"><tspan y="-586.651" x="196.56673 207.729 222.23796 235.56456 240.5946 253.9212 266.16563 277.20768 289.45213 302.77873 314.90293 329.4119 342.7385 354.94288 359.89277 374.40174 388.93074 401.0549 415.4837">FOR REFERENCE ONLY </tspan></text>
<text xml:space="preserve" transform="matrix(1 0 -0 1 0 792)" font-size="15.96" font-family="TimesNewRomanPSMT"><tspan y="-544.44" x="96.84 105.71375 113.75759 119.13611 123.126117 135.36745 143.41129 148.80577 155.89202 159.85009 164.28696 172.3308 177.72528 185.76912 191.1636 203.40494 210.49118 214.92806 219.49262 227.53646 235.58029 239.63413 243.49645 251.54029 255.97716 262.21754 266.65443 271.0913">For more information, visit </tspan></text>
<text fill="#0000ff" xml:space="preserve" transform="matrix(1 0 -0 1 0 792)" font-size="15.96" font-family="TimesNewRomanPSMT"><tspan y="-544.44" x="275.03343 285.71067 293.75453 300.84077 308.8846 316.92848 324.0147 330.25508 334.21315 338.65003 346.69389 350.65196 355.08885 363.1327 370.21894 374.177 385.70014 393.744 398.18089 403.46363 407.9005 412.3374 416.7743 424.81816 432.862 436.82008 445.69383 452.78007 459.97804 464.41493 470.65528 474.61335 484.33299 491.41923 499.46308 506.54933">Changes to the Nutrition Facts Label</tspan></text>
<text xml:space="preserve" transform="matrix(1 0 -0 1 0 792)" font-size="15.96" font-family="TimesNewRomanPSMT"><tspan y="-544.44" x="510.95414 514.94418">. </tspan></text>
</svg>
