<svg xmlns="http://www.w3.org/2000/svg" xmlns:xlink="http://www.w3.org/1999/xlink" version="1.1" width="612pt" height="792pt" viewBox="0 0 612 792">
<text fill-opacity="0" xml:space="preserve" transform="matrix(1 0 -0 1 0 792)" font-size="20.006" font-family="Helvetica" font-weight="bold"><tspan y="-493.0264" x="319"> </tspan><tspan y="-493.3465" x="318.97999"> </tspan></text>
<text fill-opacity="0" xml:space="preserve" transform="matrix(1 0 -0 1 0 792)" font-size="14" font-family="Helvetica" font-weight="bold"><tspan y="-432.2998" x="299.5283"> </tspan></text>
<text fill-opacity="0" xml:space="preserve" transform="matrix(1 0 -0 1 0 792)" font-size="10" font-family="Helvetica" font-weight="bold"><tspan y="-468.5786" x="296.8795 300.70948 304.53947 308.36946 312.19944 316.02943">      </tspan></text>
<text fill-opacity="0" xml:space="preserve" transform="matrix(1 0 -0 1 0 792)" font-size="8.0024" font-family="Helvetica"><tspan y="-392.5789" x="227.0718"> </tspan></text>
<text fill-opacity="0" xml:space="preserve" transform="matrix(1 0 -0 1 0 792)" font-size="8.0024" font-family="Helvetica" font-weight="bold"><tspan y="-392.5789" x="285.61738"> </tspan></text>
<text fill-opacity="0" xml:space="preserve" transform="matrix(1 0 -0 1 0 792)" font-size="8.0024" font-family="Helvetica" font-style="italic"><tspan y="-380.5753" x="227.07181"> </tspan></text>
<text fill-opacity="0" xml:space="preserve" transform="matrix(1 0 -0 1 0 792)" font-size="8.0024" font-family="Helvetica"><tspan y="-380.5753" x="271.3731"> </tspan></text>
<text fill-opacity="0" xml:space="preserve" transform="matrix(1 0 -0 1 0 792)" font-size="8" font-family="Helvetica" font-style="italic"><tspan y="-368.5825" x="227.0718"> </tspan><tspan y="-356.5825" x="227.0718"> </tspan></text>
<text xml:space="preserve" transform="matrix(1 0 -0 1 0 792)" font-size="11" font-family="Helvetica" font-weight="bold"><tspan y="-696.1113" x="252.2275 260.1695 263.8325 274.8325 282.1695 285.8325 289.49549 293.77449 297.43748 304.77449 312.11149 315.77449 324.3325 327.99549 334.7165 342.0535 345.7165 353.0535 359.7745">Simplified Display </tspan></text>
<text xml:space="preserve" transform="matrix(1 0 -0 1 0 792)" font-size="10" font-family="Helvetica"><tspan y="-684.1113" x="270.1533 275.7133 281.2733 284.05329 291.2733 297.38328 304.60328 307.38328 312.94328 318.50328 324.06327 326.84327 332.40327 335.73326 338.51325 341.84324">21 CFR 101.9(f) </tspan></text>
<text xml:space="preserve" transform="matrix(1 0 -0 1 0 792)" font-size="20" font-family="Helvetica" font-weight="bold"><tspan y="-493.0264" x="225.9316 242.19159 255.1516 263.6516 272.1516 278.4116 286.9116 293.1916 306.15159 319.49159 326.15159 338.99159 351.83158 364.67158 373.05158 384.77159">Nutrition Facts </tspan></text>
<path transform="matrix(1,0,0,-1,0,792)" d="M383.898 457.014H227.23401V464.019H383.898Z"/>
<path transform="matrix(1,0,0,-1,0,792)" d="M227.073 401.172H383.88099V401.421H227.073Z"/>
<path transform="matrix(1,0,0,-1,0,792)" d="M227.232 413.188H383.882V413.438H227.232Z"/>
<path transform="matrix(1,0,0,-1,0,792)" d="M227.232 488.983H383.882V489.233H227.232Z"/>
<path transform="matrix(1,0,0,-1,0,792)" d="M227.236 341.093H383.882V341.343H227.236Z"/>
<path transform="matrix(1,0,0,-1,0,792)" d="M227.031 329.081H383.88V329.323H227.031Z"/>
<path transform="matrix(1,0,0,-1,0,792)" d="M227.074 389.16H383.896V389.402H227.074Z"/>
<path transform="matrix(1,0,0,-1,0,792)" d="M227.397 377.144H383.914V377.38703H227.397Z"/>
<path transform="matrix(1,0,0,-1,0,792)" d="M227.362 353.109H383.903V353.358H227.362Z"/>
<path transform="matrix(1,0,0,-1,0,792)" d="M227.232 365.124H383.91999V365.374H227.232Z"/>
<text xml:space="preserve" transform="matrix(1 0 -0 1 0 792)" font-size="16" font-family="Helvetica" font-weight="bold"><tspan y="-432.2998" x="227.5283 239.9763 250.6483 255.9763 266.64833 273.75233 279.08033 289.75233 299.52833">Calories </tspan></text>
<text xml:space="preserve" transform="matrix(1 0 -0 1 0 792)" font-size="22" font-family="Helvetica" font-weight="bold"><tspan y="-432.2998" x="339.7578 354.43183 369.10585 383.77986">130 </tspan></text>
<text xml:space="preserve" transform="matrix(1 0 -0 1 0 792)" font-size="10" font-family="Helvetica"><tspan y="-479.5786" x="227.4395 232.9995 238.5595 241.3395 246.3395 251.89949 255.22949 260.2295 262.4495 268.0095 273.5695 278.5695 281.3495 286.9095 292.46949 295.79948 298.57948 303.57948 309.13948 314.69947 317.47947 323.03947 325.25947 330.81947 336.37947">64 servings per container</tspan></text>
<text xml:space="preserve" transform="matrix(1 0 -0 1 0 792)" font-size="10" font-family="Helvetica" font-weight="bold"><tspan y="-468.5786" x="227.4395 234.6595 241.3295 245.7695 251.8795 255.2095 261.87953 268.54954 271.87953 277.9895 281.3195 286.8795 293.5495 319.8595 326.5295 329.8595 334.2995 340.9695 347.0795 353.7495 357.0795 360.9695 367.63954 374.30955 380.97956 384.86958">Serving size 1 tbsp (14g) </tspan></text>
<text xml:space="preserve" transform="matrix(1 0 -0 1 0 792)" font-size="8.0024" font-family="Helvetica" font-weight="bold"><tspan y="-404.5825" x="227.0718 232.84954 238.18714 241.7402 247.0778 249.7426 252.4074 257.745 263.0826 266.63569">Total Fat </tspan></text>
<text xml:space="preserve" transform="matrix(1 0 -0 1 0 792)" font-size="8.0024" font-family="Helvetica"><tspan y="-404.5825" x="269.30049 273.10963 277.55897 282.0083">14g </tspan><tspan y="-392.5789" x="237.13082 242.46842 246.91776 249.14243 253.59177 256.25657 260.7059 262.93058 267.3799 271.82926 274.05393 278.9434 283.39274 285.6174 287.84208 292.2914 296.74076">Saturated Fat 2g </tspan></text>
<text xml:space="preserve" transform="matrix(1 0 -0 1 0 792)" font-size="8.0024" font-family="Helvetica" font-style="italic"><tspan y="-380.5753" x="237.13082 242.02028 244.68508 249.13442 253.58376">Trans</tspan></text>
<text xml:space="preserve" transform="matrix(1 0 -0 1 0 792)" font-size="8.0024" font-family="Helvetica"><tspan y="-380.5753" x="257.58497 259.80964 264.6991 269.14845 271.3731 273.59779 278.04713 282.49647"> Fat 2g </tspan></text>
<text xml:space="preserve" transform="matrix(1 0 -0 1 0 792)" font-size="8" font-family="Helvetica"><tspan y="-368.5825" x="237.1278 242.4638 246.9118 248.6878 252.6878 257.1358 261.5838 265.5838 270.0318 272.2558 276.7038 279.3678 283.8158 286.0398 290.4878 294.9358 297.1598 302.0478 306.4958 308.7198 310.9438 315.4718 319.99983">Polyunsaturated Fat 4g </tspan><tspan y="-356.5825" x="237.1278 243.79181 248.2398 252.6878 257.1358 261.5838 266.0318 270.0318 274.4798 276.7038 281.1518 283.8158 288.2638 290.4878 294.9358 299.3838 301.6078 306.4958 310.9438 313.1678 315.39179 319.83979 324.28779">Monounsaturated Fat 6g </tspan></text>
<text xml:space="preserve" transform="matrix(1 0 -0 1 0 792)" font-size="8.0024" font-family="Helvetica" font-weight="bold"><tspan y="-344.5825" x="227.0718 232.84954 238.18714 243.52474 246.18953 251.52713 259.52955">Sodium </tspan></text>
<text xml:space="preserve" transform="matrix(1 0 -0 1 0 792)" font-size="8.0024" font-family="Helvetica"><tspan y="-344.5825" x="262.19435 266.64369 273.30967 277.759">0mg </tspan></text>
<text xml:space="preserve" transform="matrix(1 0 -0 1 0 792)" font-size="8.0024" font-family="Helvetica" font-weight="bold"><tspan y="-332.5789" x="227.0718 232.84954 238.18714 241.7402 247.0778 249.7426 252.4074 258.63328 263.9709 267.52397 272.86158 278.1992 283.5368 288.42628 293.7639 297.31697 302.65458 306.20765 311.54527">Total Carbohydrate </tspan></text>
<text xml:space="preserve" transform="matrix(1 0 -0 1 0 792)" font-size="8.0024" font-family="Helvetica"><tspan y="-332.5789" x="314.21006 318.6594 323.10874">0g </tspan></text>
<text xml:space="preserve" transform="matrix(1 0 -0 1 0 792)" font-size="8.0024" font-family="Helvetica" font-weight="bold"><tspan y="-320.5753" x="227.0718 232.84954 236.4026 241.7402 245.29328 250.63088 253.29567 258.63328">Protein </tspan></text>
<text xml:space="preserve" transform="matrix(1 0 -0 1 0 792)" font-size="8.0024" font-family="Helvetica"><tspan y="-320.5753" x="261.29808 265.7474 270.19676">0g </tspan></text>
<text xml:space="preserve" transform="matrix(1 0 -0 1 0 792)" font-size="8.0024" font-family="Helvetica" font-weight="bold"><tspan y="-404.57649" x="365.24925 370.34678 375.92445 384.1669">18% </tspan><tspan y="-392.07673" x="365.80943 370.34678 375.92445 384.1669">10% </tspan><tspan y="-344.0783" x="370.34678 375.92445 384.1669">0% </tspan><tspan y="-332.0747" x="370.34678 375.92448 383.92689">0% </tspan></text>
<text xml:space="preserve" transform="matrix(1 0 -0 1 0 792)" font-size="6" font-family="Helvetica" font-weight="bold"><tspan y="-417.1289" x="362.9385 368.9385 370.9365 375.6045 380.2725 383.6085">% DV* </tspan></text>
<path transform="matrix(1,0,0,-1,0,792)" d="M383.898 425.885H227.23401V428.885H383.898Z"/>
<text xml:space="preserve" transform="matrix(1.0006998 0 -0 .9993007 0 792)" font-size="6.0041987" font-family="Helvetica"><tspan y="-303.67137" x="227.25798 231.593 234.93134 236.6005 238.26967 241.608 243.27716 246.27927 247.61219 250.95052 254.28885 255.62178 257.29096 258.6239 261.626 264.96434 268.30268 269.97187 271.64103 274.64314 277.98149 281.3198 283.31919 286.32133 289.65965 291.32884 294.66716 296.33634 298.00553 301.00764 304.34596 307.6843 309.0172 312.35557 315.35768 317.02687 320.36518 322.36457 325.7029 327.03584 328.70503 330.37419 333.71253 335.04545 338.3838 340.05299 343.3913 345.3907 348.3928 350.06199 351.73118 353.0641 356.40245 359.74076 361.74015 363.40934">Not a significant source of cholesterol, dietary fiber, </tspan><tspan y="-296.66447" x="227.25798 228.92714 232.26548 233.93465 237.27298 238.6059 240.27507 243.27716 246.6155 249.95383 253.29216 255.29155 258.29365 259.96284 261.63203 264.97035 268.3087 271.647 274.98536 278.32368 279.99287 282.99497 286.33329 289.67164 293.00996 295.00935 298.01148 299.68064 301.34983 304.35194 305.68489 307.35404 310.69239 315.69389 317.02684 320.36515 322.03434 326.36936 328.03855 329.70774 332.70985 336.04817 337.3811 340.3832 341.71614 345.05448 350.05598 351.72517 353.39436 354.72727 356.72666 360.065 363.40333 365.0725">total sugars, added sugars, vitamin D, calcium, iron, </tspan><tspan y="-289.65754" x="227.25798 230.59632 233.93465 237.27298 238.94214 242.28047 245.6188 247.28797 250.6263 253.6284 256.6305 257.96345 261.30177 266.30329">and potassium </tspan></text>
<text xml:space="preserve" transform="matrix(1 0 -0 1 0 792)" font-size="6" font-family="Helvetica"><tspan y="-277.9375" x="231.4829 236.8169 241.1489 245.1509 246.8189 250.32289 251.99089 257.3249 261.6569 264.9929 266.3249 267.6611 270.6611 272.3291 276.33113 279.6671 280.9991 284.3351 287.6711 227.4029 229.7369">%DV = %Daily Value * </tspan></text>
<path transform="matrix(1,0,0,-1,0,792)" d="M226.936 285.897H383.79103V286.139H226.936Z"/>
<text xml:space="preserve" transform="matrix(1 0 -0 1 0 792)" font-size="6" font-family="Helvetica" font-weight="bold"><tspan y="-448.3335" x="227.5225 232.1905 238.1905 242.1925 246.1945 250.1965 252.8605 254.8585 258.8605 262.86253 265.52653 267.5245 271.1905 275.1925 277.8565 281.5225 283.52049 287.5225 291.5245">Amount per serving </tspan></text>
<path transform="matrix(1,0,0,-1,388.2441,280.7637)" d="M0 0H-.5-163.988-164.488V-.5-238.865-239.365H-163.988-.5 0V-238.865-.5ZM-.5-238.865H-163.988V-.5H-.5Z"/>
<path transform="matrix(1,0,0,-1,0,792)" d="M383.898 310.877H227.242V317.877H383.898Z"/>
<text xml:space="preserve" transform="matrix(1 0 -0 1 0 792)" font-size="11" font-family="Helvetica" font-weight="bold"><tspan y="-68.5464" x="302.3315 309.66853">7 </tspan></text>
</svg>
