<svg xmlns="http://www.w3.org/2000/svg" xmlns:xlink="http://www.w3.org/1999/xlink" version="1.1" width="612pt" height="792pt" viewBox="0 0 612 792">
<text fill-opacity="0" xml:space="preserve" transform="matrix(1 0 -0 1 0 792)" font-size="20.006" font-family="Helvetica" font-weight="bold"><tspan y="-634.1416" x="319.7334"> </tspan></text>
<text fill-opacity="0" xml:space="preserve" transform="matrix(1 0 -0 1 0 792)" font-size="14" font-family="Helvetica" font-weight="bold"><tspan y="-570.1577" x="300.332 304.57398 308.81596 313.05793 317.2999 321.54188 326.48387 331.42585 336.36784">         </tspan></text>
<text fill-opacity="0" xml:space="preserve" transform="matrix(1 0 -0 1 0 792)" font-size="8.0024" font-family="Helvetica" font-weight="bold"><tspan y="-529.3743" x="227.8184"> </tspan><tspan y="-505.36714" x="227.8184 309.4909">  </tspan><tspan y="-493.36354" x="227.8184 313.94026">  </tspan></text>
<text fill-opacity="0" xml:space="preserve" transform="matrix(1 0 -0 1 0 792)" font-size="8.0024" font-family="Helvetica" font-weight="bold"><tspan y="-457.35273" x="263.3891"> </tspan></text>
<text fill-opacity="0" xml:space="preserve" transform="matrix(1 0 -0 1 0 792)" font-size="8.0024" font-family="Helvetica"><tspan y="-433.34553" x="227.81842"> </tspan><tspan y="-421.34193" x="227.81842 237.87744">  </tspan></text>
<text fill-opacity="0" xml:space="preserve" transform="matrix(1 0 -0 1 0 792)" font-size="8.0024" font-family="Helvetica" font-weight="bold"><tspan y="-421.34193" x="294.95857"> </tspan></text>
<text fill-opacity="0" xml:space="preserve" transform="matrix(1 0 -0 1 0 792)" font-size="8.0024" font-family="Helvetica"><tspan y="-409.33833" x="227.81842 237.87744">  </tspan></text>
<text fill-opacity="0" xml:space="preserve" transform="matrix(1 0 -0 1 0 792)" font-size="8.0024" font-family="Helvetica" font-weight="bold"><tspan y="-409.33833" x="300.29618"> </tspan><tspan y="-397.33473" x="283.24305"> </tspan></text>
<text fill-opacity="0" xml:space="preserve" transform="matrix(1 0 -0 1 0 792)" font-size="8.0024" font-family="Helvetica"><tspan y="-385.33113" x="227.81842 237.87744">  </tspan></text>
<text fill-opacity="0" xml:space="preserve" transform="matrix(1 0 -0 1 0 792)" font-size="8.0024" font-family="Helvetica" font-weight="bold"><tspan y="-292.35923" x="262.50083"> </tspan></text>
<text fill-opacity="0" xml:space="preserve" transform="matrix(1 0 -0 1 0 792)" font-size="8.0024" font-family="Helvetica"><tspan y="-232.43726" x="298.97578"> </tspan></text>
<text fill-opacity="0" xml:space="preserve" transform="matrix(1 0 -0 1 0 792)" font-size="8.0024" font-family="Helvetica"><tspan y="-223.43456" x="227.81842"> </tspan></text>
<text fill-opacity="0" xml:space="preserve" transform="matrix(1 0 -0 1 0 792)" font-size="6" font-family="Helvetica"><tspan y="-141.3662" x="383.6199"> </tspan></text>
<text xml:space="preserve" transform="matrix(1 0 -0 1 0 792)" font-size="11" font-family="Helvetica" font-weight="bold"><tspan y="-696.1074" x="149.2555 157.81349 165.1505 170.0345 174.9185 178.5815 185.9185 193.25551 196.9185 200.5815 209.1395 212.80249 219.52349 226.86049 230.52349 237.86049 244.58148 248.24448 252.52349 259.86048 267.19749 270.86048 278.19749 285.5345 289.19749 296.5345 303.8715 307.5345 315.47648 322.81349 333.81349 341.15049 344.81349 353.3715 360.7085 364.3715 371.7085 379.0455 383.9295 391.2665 396.1505 402.87153 406.53453 415.6975 423.03453 427.91853 432.80253 436.4655 443.80253 451.13954 456.02354 462.74455">Vertical Display Including Some Voluntary Nutrients </tspan></text>
<text xml:space="preserve" transform="matrix(1 0 -0 1 0 792)" font-size="10" font-family="Helvetica"><tspan y="-684.1094" x="258.4795 264.0395 269.5995 272.3795 279.5995 285.70948 292.92948 295.70948 301.26948 306.82948 312.38948 315.16947 320.72947 324.05946 329.61946 332.94944 336.27943 341.83943 347.3994 350.7294">21 CFR 101.9(d)(12) </tspan></text>
<path transform="matrix(1,0,0,-1,0,792)" d="M384.653 595.811H227.98902V602.816H384.653Z"/>
<text xml:space="preserve" transform="matrix(1 0 -0 1 0 792)" font-size="20" font-family="Helvetica" font-weight="bold"><tspan y="-634.1416" x="226.665 242.92499 255.885 264.385 272.885 279.145 287.645 293.925 306.88499 320.22499 326.88499 339.72499 352.56498 365.40498 373.78498 385.50498">Nutrition Facts </tspan></text>
<path transform="matrix(1,0,0,-1,0,792)" d="M227.828 537.99H384.636V538.24H227.828Z"/>
<path transform="matrix(1,0,0,-1,0,792)" d="M227.987 549.984H384.637V550.23306H227.987Z"/>
<path transform="matrix(1,0,0,-1,0,792)" d="M227.987 629.782H384.637V630.032H227.987Z"/>
<path transform="matrix(1,0,0,-1,0,792)" d="M227.992 478.026H384.638V478.276H227.992Z"/>
<path transform="matrix(1,0,0,-1,0,792)" d="M227.786 454.047H384.635V454.289H227.786Z"/>
<path transform="matrix(1,0,0,-1,0,792)" d="M227.831 526.001H384.65199V526.243H227.831Z"/>
<path transform="matrix(1,0,0,-1,0,792)" d="M227.788 442.051H384.635V442.3H227.788Z"/>
<path transform="matrix(1,0,0,-1,0,792)" d="M227.769 430.058H384.635V430.308H227.769Z"/>
<path transform="matrix(1,0,0,-1,0,792)" d="M227.786 406.076H384.635V406.318H227.786Z"/>
<path transform="matrix(1,0,0,-1,0,792)" d="M227.786 418.069H384.635V418.311H227.786Z"/>
<path transform="matrix(1,0,0,-1,0,792)" d="M247.68 394.079H384.636V394.328H247.68Z"/>
<path transform="matrix(1,0,0,-1,0,792)" d="M227.769 382.086H384.635V382.336H227.769Z"/>
<path transform="matrix(1,0,0,-1,0,792)" d="M228.152 514.008H384.669V514.25H228.152Z"/>
<path transform="matrix(1,0,0,-1,0,792)" d="M228.116 490.018H384.65699V490.268H228.116Z"/>
<path transform="matrix(1,0,0,-1,0,792)" d="M227.987 502.012H384.674V502.262H227.987Z"/>
<path transform="matrix(1,0,0,-1,0,792)" d="M227.828 336.608H384.636V336.858H227.828Z"/>
<path transform="matrix(1,0,0,-1,0,792)" d="M227.987 348.611H384.637V348.861H227.987Z"/>
<path transform="matrix(1,0,0,-1,0,792)" d="M227.992 276.593H384.638V276.843H227.992Z"/>
<path transform="matrix(1,0,0,-1,0,792)" d="M227.786 264.595H384.635V264.837H227.786Z"/>
<path transform="matrix(1,0,0,-1,0,792)" d="M227.831 324.609H384.65199V324.851H227.831Z"/>
<path transform="matrix(1,0,0,-1,0,792)" d="M227.788 252.588H384.635V252.83699H227.788Z"/>
<path transform="matrix(1,0,0,-1,0,792)" d="M227.769 240.584H384.635V240.834H227.769Z"/>
<path transform="matrix(1,0,0,-1,0,792)" d="M227.578 207.652H384.427V207.894H227.578Z"/>
<path transform="matrix(1,0,0,-1,0,792)" d="M227.578 219.654H384.427V219.89601H227.578Z"/>
<path transform="matrix(1,0,0,-1,0,792)" d="M227.58 195.648H384.428V195.89699H227.58Z"/>
<path transform="matrix(1,0,0,-1,0,792)" d="M227.561 183.647H384.428V183.897H227.561Z"/>
<path transform="matrix(1,0,0,-1,0,792)" d="M228.152 312.606H384.669V312.849H228.152Z"/>
<path transform="matrix(1,0,0,-1,0,792)" d="M228.116 288.596H384.65699V288.846H228.116Z"/>
<path transform="matrix(1,0,0,-1,0,792)" d="M227.987 300.6H384.674V300.849H227.987Z"/>
<text xml:space="preserve" transform="matrix(1 0 -0 1 0 792)" font-size="16" font-family="Helvetica" font-weight="bold"><tspan y="-570.1577" x="228.333 240.78099 251.45299 256.78099 267.45298 274.55699 279.88499 290.55699 300.33299">Calories </tspan></text>
<text xml:space="preserve" transform="matrix(1 0 -0 1 0 792)" font-size="22" font-family="Helvetica" font-weight="bold"><tspan y="-570.1577" x="340.6113 355.2853 369.95933 384.63334">140 </tspan></text>
<text xml:space="preserve" transform="matrix(1 0 -0 1 0 792)" font-size="8.0024" font-family="Helvetica" font-weight="bold"><tspan y="-541.3779" x="227.8184 233.59615 238.93375 242.48682 247.82442 250.48921 253.154 258.4916 263.82923 267.3823">Total Fat </tspan></text>
<text xml:space="preserve" transform="matrix(1 0 -0 1 0 792)" font-size="8.0024" font-family="Helvetica"><tspan y="-541.3779" x="270.0471 273.85624 275.60075 280.4502 285.29966">1.5g </tspan><tspan y="-529.3743" x="237.87743 243.21503 247.66437 249.88904 254.33838 257.00318 261.4525 263.6772 268.12654 272.57588 274.80055 279.69 284.13935 286.364 288.58869 293.03804">Saturated Fat 0g</tspan></text>
<text xml:space="preserve" transform="matrix(1 0 -0 1 0 792)" font-size="8.0024" font-family="Helvetica" font-style="italic"><tspan y="-517.3707" x="227.8184 237.87743 242.76689 245.43169 249.88103 254.33037"> Trans</tspan></text>
<text xml:space="preserve" transform="matrix(1 0 -0 1 0 792)" font-size="8.0024" font-family="Helvetica"><tspan y="-517.3707" x="258.33158 260.55625 265.4457 269.89506 272.11973 274.3444 278.79374 283.24308"> Fat 0g </tspan><tspan y="-505.36714" x="237.87743 243.21503 247.66437 249.4409 253.44211 257.89146 262.3408 266.34199 270.79133 273.016 277.46534 280.13014 284.57948 286.80415 291.25349 295.70283 297.9275 302.81697 307.2663 309.49098 311.71565 315.9249 317.9095 322.35884 326.80818">Polyunsaturated Fat 0.5g </tspan><tspan y="-493.36354" x="237.87743 244.54343 248.99277 253.44211 257.89146 262.3408 266.79014 270.79133 275.24067 277.46534 281.91468 284.57948 289.0288 291.25349 295.70283 300.15217 302.37684 307.2663 311.71565 313.9403 316.16499 320.37425 322.35884 326.56809 331.01744">Monounsaturated Fat 0.5g </tspan></text>
<text xml:space="preserve" transform="matrix(1 0 -0 1 0 792)" font-size="8.0024" font-family="Helvetica" font-weight="bold"><tspan y="-481.35993" x="227.8184 234.04427 239.38187 244.71947 247.38426 252.72187 257.61134 261.1644 266.502 270.05509 275.3927 278.0575">Cholesterol </tspan></text>
<text xml:space="preserve" transform="matrix(1 0 -0 1 0 792)" font-size="8.0024" font-family="Helvetica"><tspan y="-481.35993" x="280.7223 285.17164 291.83763 296.28697">0mg </tspan></text>
<text xml:space="preserve" transform="matrix(1 0 -0 1 0 792)" font-size="8.0024" font-family="Helvetica" font-weight="bold"><tspan y="-469.35633" x="227.8184 233.59615 238.93375 244.27135 246.93614 252.27375 260.27616">Sodium </tspan></text>
<text xml:space="preserve" transform="matrix(1 0 -0 1 0 792)" font-size="8.0024" font-family="Helvetica"><tspan y="-469.35633" x="262.94096 267.3903 271.83964 276.28898 282.95497 287.4043">160mg </tspan></text>
<text xml:space="preserve" transform="matrix(1 0 -0 1 0 792)" font-size="8.0024" font-family="Helvetica" font-weight="bold"><tspan y="-457.35273" x="227.8184 233.156 235.8208 241.1584 246.496 250.04907 252.71387 258.05149 263.3891">Fluoride </tspan></text>
<text xml:space="preserve" transform="matrix(1 0 -0 1 0 792)" font-size="8.0024" font-family="Helvetica"><tspan y="-457.35273" x="266.0539 270.50325 277.16923 281.61857">0mg </tspan></text>
<text xml:space="preserve" transform="matrix(1 0 -0 1 0 792)" font-size="8.0024" font-family="Helvetica" font-weight="bold"><tspan y="-445.34913" x="227.8184 233.59615 238.93375 242.48682 247.82442 250.48921 253.154 259.37989 264.7175 268.27058 273.6082 278.9458 284.28343 289.17289 294.5105 298.06358 303.40119 306.95426 312.29188">Total Carbohydrate </tspan></text>
<text xml:space="preserve" transform="matrix(1 0 -0 1 0 792)" font-size="8.0024" font-family="Helvetica"><tspan y="-445.34913" x="314.95668 319.406 323.85536 328.3047">22g </tspan><tspan y="-433.34553" x="237.87743 243.65517 245.4317 249.88105 252.10572 256.55506 259.21986 263.22105 265.4457 270.33518 272.1117 276.56105 281.01039 283.67518 285.89985 290.34919 294.79853">Dietary Fiber 2g </tspan><tspan y="-421.34193" x="247.8164 253.154 257.60334 259.37986 263.8292 268.27854 270.05506 274.5044 276.72908 281.61854 283.39506 287.8444 292.29374 294.95854 297.1832 301.8566 306.30595 310.75529">Soluble Fiber &#x003c;1g </tspan><tspan y="-409.33833" x="247.8164 250.04108 254.49042 258.4916 262.94096 264.71748 269.1668 273.61616 275.39268 279.842 282.06669 286.95616 288.73268 293.182 297.63136 300.29615 302.5208 306.97016">Insoluble Fiber 1g</tspan><tspan y="-397.33473" x="227.8184 237.87743 242.76689 247.21623 249.4409 253.89025 255.66678 257.89143 263.22904 267.67839 272.12773 276.57707 279.24186 283.24305 285.4677 289.91706 294.3664"> Total Sugars 9g </tspan><tspan y="-385.33113" x="247.81639 250.04106 254.4904 258.4916 260.26814 264.71748 269.1668 273.61616 277.61735 279.842 284.29136 288.7407 290.96537 296.30299 300.75233 305.20167 309.651 314.10035 316.325 321.66264 326.11198 330.5613 335.01066 337.67546 341.67665">Includes 8g Added Sugars </tspan></text>
<text xml:space="preserve" transform="matrix(1 0 -0 1 0 792)" font-size="8.0024" font-family="Helvetica" font-weight="bold"><tspan y="-373.3275" x="227.81839 233.59613 237.1492 242.4868 246.03987 251.37747 254.04227 259.37989">Protein </tspan></text>
<text xml:space="preserve" transform="matrix(1 0 -0 1 0 792)" font-size="8.0024" font-family="Helvetica"><tspan y="-373.3275" x="262.04469 266.49403 270.94337">9g </tspan></text>
<text xml:space="preserve" transform="matrix(1 0 -0 1 0 792)" font-size="8.0024" font-family="Helvetica" font-weight="bold"><tspan y="-541.3299" x="369.94105 375.67878 384.0813">2% </tspan><tspan y="-529.3263" x="369.94105 375.67878 384.0813">0% </tspan><tspan y="-481.32789" x="369.94105 375.67878 384.0813">0% </tspan><tspan y="-469.32429" x="369.94105 375.67878 384.0813">7% </tspan><tspan y="-445.32508" x="369.94105 375.67878 384.0813">8% </tspan><tspan y="-433.32148" x="369.94105 375.67878 384.0813">7% </tspan><tspan y="-385.32307" x="365.24363 369.94105 375.67878 384.0813">16% </tspan><tspan y="-373.31947" x="365.24363 369.94105 375.67878 384.0813">18% </tspan></text>
<text xml:space="preserve" transform="matrix(1 0 -0 1 0 792)" font-size="8.0024" font-family="Helvetica"><tspan y="-352.37718" x="227.8184 233.156 234.93254 237.15721 241.60655 248.27256 250.04909 254.49843 256.72309 262.50083 264.7255 269.17485 275.84083 279.842 284.29136 286.51603 289.18083 293.63017 298.0795 300.30418 302.52885 308.30659 310.97138">Vitamin D 2mcg (80 IU) </tspan><tspan y="-340.37358" x="227.8184 233.59615 238.04549 239.82202 243.82323 245.59976 250.0491 256.7151 258.93977 263.3891 267.83845 272.28779 278.95378 283.4031">Calcium 130mg </tspan><tspan y="-328.36997" x="227.8184 230.04308 232.70787 237.15721 241.60655 243.83123 248.28057 250.50524 254.95458 261.62059 266.06993">Iron 4.5mg </tspan><tspan y="-316.36637" x="227.8184 233.156 237.60535 239.83002 244.27936 248.28057 252.28177 254.0583 258.50764 265.1736 267.3983 271.84764 276.29698 280.7463 287.4123 291.86164">Potassium 110mg </tspan><tspan y="-304.36277" x="227.8184 233.156 234.93254 237.15721 241.60655 248.27256 250.04909 254.49843 256.72309 262.0607 264.28538 268.7347 273.18406 279.85005 283.85124 288.30058">Vitamin A 90mcg </tspan><tspan y="-292.35917" x="227.8184 233.156 234.93254 237.15721 241.60655 248.27256 250.04909 254.49843 256.72309 262.50083 264.7255 269.17485 275.84083 280.29017">Vitamin C 9mg </tspan><tspan y="-280.35557" x="227.8184 232.70787 237.15721 238.93375 243.38309 250.04909 251.82563 256.27497 258.49964 262.7889 264.85353 269.30287 275.96885 280.41819">Thiamin 0.3mg </tspan><tspan y="-268.35197" x="227.8184 233.59615 235.37268 239.82202 244.27136 246.49604 248.27257 252.72191 256.7231 258.49964 262.94898 265.17366 269.46293 271.52754 275.97688 282.64286 287.0922">Riboflavin 0.3mg </tspan><tspan y="-256.34837" x="227.8184 233.59615 235.37268 239.82202 243.82323 245.59976 250.0491 252.27378 256.7231 263.3891 267.83845">Niacin 4mg </tspan><tspan y="-244.34476" x="227.8184 233.156 234.93254 237.15721 241.60655 248.27256 250.04909 254.49843 256.72309">Vitamin B</tspan></text>
<text xml:space="preserve" transform="matrix(1 0 -0 1 0 792)" font-size="4.664" font-family="Helvetica"><tspan y="-242.7769" x="262.0625">6</tspan></text>
<text xml:space="preserve" transform="matrix(1 0 -0 1 0 792)" font-size="8.0024" font-family="Helvetica"><tspan y="-244.4404" x="264.5723 266.79698 271.2463 273.47099 277.92033 284.5863 289.03565"> 0.4mg </tspan><tspan y="-232.4368" x="227.81728 232.70674 237.15608 238.93262 243.38196 245.60663 250.05597 252.28064 256.72999 261.17933 265.62867 272.29466 276.29585 280.74519 282.96986 288.7476 293.63706">Folate 200mcg DFE</tspan><tspan y="-223.4341" x="237.8763 240.54109 244.99044 249.43978 253.88912 260.5551 264.5563 269.00566 271.23033 273.455 277.90434 279.68086 281.45738 285.45857 287.68324 292.13258 296.13377 297.91029 302.35963 305.0244">(120mcg folic acid) </tspan><tspan y="-211.4305" x="227.81728 233.15488 234.93141 237.15608 241.60543 248.27143 250.04796 254.4973 256.72196">Vitamin B</tspan></text>
<text xml:space="preserve" transform="matrix(1 0 -0 1 0 792)" font-size="4.664" font-family="Helvetica"><tspan y="-209.7764" x="262.0625 264.57176">12</tspan></text>
<text xml:space="preserve" transform="matrix(1 0 -0 1 0 792)" font-size="8.0024" font-family="Helvetica"><tspan y="-211.4404" x="267.082 269.30668 273.756 275.98069 280.43003 287.096 291.0972 295.54655"> 0.6mcg </tspan><tspan y="-199.4368" x="227.81423 233.15183 237.60117 242.0505 246.05171 250.50106 254.9504 259.39973 262.0645 266.51387 270.51506 272.73973 277.18907 281.6384 286.08775 292.75373 297.20307">Phosphorus 100mg </tspan><tspan y="-187.4332" x="227.81423 234.48023 238.92957 243.3789 247.82825 252.27759 256.27879 258.0553 262.50465 269.17063 271.3953 275.84465 280.29399 286.95997 291.4093">Magnesium 25mg </tspan><tspan y="-175.4296" x="227.81423 232.70369 234.48023 238.92957 242.93077 245.15544 249.60478 256.27079 260.72013">Zinc 3mg </tspan><tspan y="-163.426" x="227.81423 233.59197 238.0413 242.49065 244.26718 246.04372 250.49306 254.9424 257.16706 261.6164 266.06575 272.73173 277.18107">Choline 60mg </tspan><tspan y="-352.4267" x="368.0243 372.07353 376.56288 383.717">10% </tspan><tspan y="-340.4231" x="368.0243 372.07353 376.56288 383.717">10% </tspan><tspan y="-328.4195" x="367.66419 372.11354 376.56288 383.677">25% </tspan><tspan y="-316.4159" x="372.11354 376.56288 383.677">2% </tspan><tspan y="-304.4123" x="368.0243 372.07353 376.56288 383.717">10% </tspan><tspan y="-292.4087" x="368.0243 372.07353 376.56288 383.717">10% </tspan><tspan y="-280.4051" x="367.66419 372.11354 376.56288 383.677">25% </tspan><tspan y="-268.4015" x="367.66419 372.11354 376.56288 383.677">25% </tspan><tspan y="-256.3979" x="367.66419 372.11354 376.56288 383.677">25% </tspan><tspan y="-244.39429" x="367.66419 372.11354 376.56288 383.677">25% </tspan><tspan y="-232.39069" x="367.66419 372.11354 376.56288 383.677">50% </tspan><tspan y="-211.3924" x="367.66419 372.11354 376.56288 383.677">25% </tspan><tspan y="-199.3888" x="372.11354 376.56288 383.677">8% </tspan><tspan y="-187.3852" x="372.11354 376.56288 383.677">6% </tspan><tspan y="-175.38159" x="367.66419 372.11354 376.56288 383.677">25% </tspan><tspan y="-163.37799" x="367.66419 372.11354 376.56288 383.677">10% </tspan></text>
<text xml:space="preserve" transform="matrix(1 0 -0 1 0 792)" font-size="6" font-family="Helvetica" font-weight="bold"><tspan y="-553.9238" x="336.0229 342.0229 344.02088 348.68888 352.6909 354.68888 356.68687 360.35285 362.35084 367.01884 371.02085 373.01884 377.02085 381.02287 384.35887">% Daily Value* </tspan></text>
<path transform="matrix(1,0,0,-1,0,792)" d="M384.675 363.005H227.982V370.009H384.675Z"/>
<path transform="matrix(1,0,0,-1,0,792)" d="M384.653 562.68H227.98902V565.68H384.653Z"/>
<text xml:space="preserve" transform="matrix(1 0 -0 1 0 792)" font-size="10" font-family="Helvetica" font-weight="bold"><tspan y="-607.4395" x="228.333 235.553 242.22299 246.663 252.773 256.103 262.773 269.44303 272.773 278.883 282.21299 287.77299 294.443 297.77299 314.42298 321.093 323.873 330.543 333.873 340.543 347.213 353.88304 357.213 361.10304 367.77305 374.44306 381.11308">Serving size  3/4 cup (28g)</tspan></text>
<text xml:space="preserve" transform="matrix(1 0 -0 1 0 792)" font-size="10" font-family="Helvetica"><tspan y="-618.1395" x="228.333 233.89299 239.45299 242.23299 247.23299 252.79299 256.123 261.123 263.343 268.90299 274.46299 279.46299 282.24299 287.80299 293.36299 296.69297 299.47297 304.47297 310.03297 315.59297 318.37297 323.93296 326.15296 331.71296 337.27296 340.60295">17 servings per container </tspan></text>
<text xml:space="preserve" transform="matrix(1 0 -0 1 0 792)" font-size="6" font-family="Helvetica" font-weight="bold"><tspan y="-586.731" x="228.333 233.00099 239.00099 243.00299 247.00499 251.00699 253.67099 255.66899 259.671 263.673 266.337 268.335 272.00099 276.003 278.667 282.33299 284.33097 288.33299 292.335">Amount per serving </tspan></text>
<path transform="matrix(1,0,0,-1,388.5674,139.58893)" d="M0 0H-.5-163.987-164.487V-.5-548.407-548.907H-163.987-.5 0V-548.407-.5ZM-.5-548.407H-163.987V-.5H-.5Z"/>
<path transform="matrix(1,0,0,-1,0,792)" d="M227.786 466.036H384.635V466.27903H227.786Z"/>
<path transform="matrix(1,0,0,-1,0,792)" d="M227.667 127.165H384.324V127.415H227.667Z"/>
<text xml:space="preserve" transform="matrix(1 0 -0 1 0 792)" font-size="7.9991" font-family="Helvetica"><tspan y="-117.8896" x="227.749 233.52434 237.97183 239.74764 244.19513 246.85883 248.63463 253.08213 257.08168 259.30543 263.75294 268.20045 270.86415 273.0879 277.5354 280.1991 284.6466 291.30986">Calories per gram:</tspan><tspan y="-108.38667" x="227.749 232.63645 237.08394 239.3077 241.53145 245.89896 248.12271 250.34647 252.57022 254.79398 257.01774 259.8174 262.04118 264.26493 266.48869 268.71244 270.8402 276.61558 281.06309 283.72679 288.1743 292.6218 297.0693 301.06886 305.51637 308.18006 312.62757 314.85133 319.29884 321.52259 325.7701 327.99388 330.21763 332.44139 334.66514 336.8889 339.68858 341.91233 344.13609 346.35984 348.5836 350.80735 352.75114 358.08653 360.7502 365.19773 367.42149 371.869 373.64479 378.0923 380.31605 384.76356">Fat 9     &#x2022;     Carbohydrate 4     &#x2022;      Protein 4 </tspan></text>
<path transform="matrix(1,0,0,-1,0,792)" d="M384.43 157.229H227.77399V160.229H384.43Z"/>
<text xml:space="preserve" transform="matrix(1 0 -0 1 0 792)" font-size="6" font-family="Helvetica"><tspan y="-148.3682" x="231.6421 235.3081 238.6441 241.9801 243.6481 248.9821 250.6501 254.9821 258.3181 259.65013 260.98213 263.98213 265.65013 269.65214 272.98814 274.32014 277.65614 280.99214 282.66014 284.6581 288.9901 292.99214 294.9901 296.6581 298.3261 301.6621 302.9941 304.3261 307.3261 308.9941 311.9941 315.3301 318.6661 320.3341 323.6701 327.0061 331.3381 333.0061 338.0041 341.3401 344.3401 347.6761 349.3441 352.68009 354.34809 357.68409 361.02009 362.68809 364.68608 366.01808 369.35408 372.69007 374.35807 376.02607 377.35807">The % Daily Value (DV) tells you how much a nutrient in</tspan><tspan y="-141.3662" x="231.6421 234.9601 236.61009 239.59209 242.91008 244.89008 247.87207 249.18607 252.50406 255.82205 257.47206 260.79005 262.44004 264.09004 265.74003 269.058 272.376 275.694 277.344 280.326 283.64399 286.96199 288.61198 290.59199 291.90599 295.22398 298.54197 300.19197 303.50996 306.49195 308.14195 309.79194 313.10993 314.75993 318.0779 319.7279 323.0459 326.3639 327.6779 328.99189 331.97389 333.62388 336.94187 338.25587 341.57386 343.22386 344.87385 346.52384 349.84184 351.49183 354.8098 358.1278 361.4458 363.0958 366.0778 369.39579 370.70979 374.02778 376.00779 377.32179 380.63978">a serving of food contributes to a daily diet. 2,000 calories</tspan><tspan y="-134.3642" x="231.6421 234.9781 236.6461 239.9821 243.3181 246.3181 247.9861 249.3181 252.3181 253.9861 257.3221 260.3221 263.6581 266.9941 268.6621 270.3301 273.6661 275.6641 277.3321 280.6681 284.0041 287.3401 290.6761 292.67408 296.01008 297.34208 299.01008 302.34608 305.68208 307.35008 309.34806 310.68006 312.34806 313.68006 317.01606 320.35206 322.02006 325.35606 328.69206 331.69206 333.02406 336.02406 339.36006 341.02806">a day is used for general nutrition advice. </tspan><tspan y="-148.3622" x="227.5621 229.8961">* </tspan></text>
<path transform="matrix(1,0,0,-1,0,792)" d="M227.563 171.645H384.411V171.895H227.563Z"/>
<text xml:space="preserve" transform="matrix(1 0 -0 1 0 792)" font-size="11" font-family="Helvetica" font-weight="bold"><tspan y="-68.5464" x="302.3315 309.66853">3 </tspan></text>
</svg>
