<svg xmlns="http://www.w3.org/2000/svg" xmlns:xlink="http://www.w3.org/1999/xlink" version="1.1" width="612pt" height="792pt" viewBox="0 0 612 792">
<defs>
<clipPath id="clip_0">
<path transform="matrix(1,0,0,-1,0,792)" d="M0 792H612V0H0Z"/>
</clipPath>
</defs>
<path transform="matrix(1,0,0,-1,232.8606,405.089)" stroke-width=".25" stroke-linecap="butt" stroke-miterlimit="4" stroke-linejoin="miter" fill="none" stroke="#000000" d="M0 0H226.91"/>
<path transform="matrix(1,0,0,-1,0,792)" d="M360.655 381.662H347.142V389.336H360.655Z" fill="#ffffff"/>
<text fill-opacity="0" xml:space="preserve" transform="matrix(1 0 -0 1 0 792)" font-size="8.0024" font-family="Helvetica" font-weight="bold"><tspan y="-378.6523" x="305.3057"> </tspan></text>
<text fill-opacity="0" xml:space="preserve" transform="matrix(1 0 -0 1 0 792)" font-size="8.0024" font-family="Helvetica"><tspan y="-351.01203" x="334.05833 386.28999">  </tspan></text>
<text fill-opacity="0" xml:space="preserve" transform="matrix(1 0 -0 1 0 792)" font-size="9" font-family="Helvetica"><tspan y="-400.1875" x="217.9043"> </tspan></text>
<text fill-opacity="0" xml:space="preserve" transform="matrix(1 0 -0 1 0 792)" font-size="8" font-family="Helvetica" font-weight="bold"><tspan y="-414.6089" x="396.3697"> </tspan></text>
<text fill-opacity="0" xml:space="preserve" transform="matrix(1 0 -0 1 0 792)" font-size="8" font-family="Helvetica" font-style="italic"><tspan y="-390.6089" x="347.9297 350.1537 352.3777">   </tspan></text>
<text fill-opacity="0" xml:space="preserve" transform="matrix(1 0 -0 1 0 792)" font-size="8" font-family="Helvetica" font-weight="bold"><tspan y="-378.6089" x="347.9217 350.3057 352.6897 355.0737 357.4577">     </tspan></text>
<text fill-opacity="0" xml:space="preserve" transform="matrix(1 0 -0 1 0 792)" font-size="8" font-family="Helvetica"><tspan y="-378.6089" x="373.2257 411.42573">  </tspan></text>
<text xml:space="preserve" transform="matrix(1 0 -0 1 0 792)" font-size="11" font-family="Helvetica" font-weight="bold"><tspan y="-696.1074" x="132.7501 140.69211 148.02912 155.36612 162.70313 166.36612 173.70313 178.58713 182.25012 190.80812 194.47112 201.19211 208.52912 212.19211 219.52912 226.2501 229.9131 234.19211 241.52912 246.41312 250.07611 258.0181 269.0181 276.3551 280.0181 283.6811 287.3441 294.6811 299.5651 303.2281 307.50709 314.8441 319.7281 327.0651 331.9491 342.9491 350.2861 357.6231 361.2861 368.6231 373.5071 380.84413 384.5071 392.4491 396.1121 402.2281 409.5651 416.9021 420.5651 428.50709 435.8441 443.1811 450.5181 457.8551 465.1921 472.5291 479.25013">Tabular Display for Small or Intermediate-Sized Packages </tspan></text>
<text xml:space="preserve" transform="matrix(1 0 -0 1 0 792)" font-size="10" font-family="Helvetica"><tspan y="-684.1113" x="243.2119 248.7719 254.3319 257.1119 264.3319 270.4419 277.6619 280.4419 286.0019 291.5619 297.1219 299.9019 305.46189 308.79188 311.01188 314.34187 317.67185 323.23185 328.79185 332.12184 335.4518 337.6718 339.8918 343.2218 346.5518 353.2218 356.5518">21 CFR 101.9(j)(13)(ii)(A)(</tspan></text>
<text xml:space="preserve" transform="matrix(1 0 -0 1 0 792)" font-size="10" font-family="Helvetica" font-style="italic"><tspan y="-684.1113" x="359.8919">1</tspan></text>
<text xml:space="preserve" transform="matrix(1 0 -0 1 0 792)" font-size="10" font-family="Helvetica"><tspan y="-684.1113" x="365.4519 368.7819">) </tspan></text>
<text xml:space="preserve" transform="matrix(1 0 -0 1 0 792)" font-size="8" font-family="Helvetica" font-weight="bold"><tspan y="-414.6089" x="232.606 238.382 243.718 247.27 252.606 255.27 257.934 263.27 268.606 272.158">Total Fat </tspan></text>
<text xml:space="preserve" transform="matrix(1 0 -0 1 0 792)" font-size="8" font-family="Helvetica"><tspan y="-414.6089" x="274.822 279.27">2g</tspan><tspan y="-402.6089" x="232.606 234.83 237.054 239.278 244.614 249.062 251.286 253.51 255.734 260.62199 265.06999 267.29399 269.51 273.398">   Sat. Fat 1g</tspan></text>
<text xml:space="preserve" transform="matrix(1 0 -0 1 0 792)" font-size="8" font-family="Helvetica" font-style="italic"><tspan y="-390.6089" x="232.60602 234.83002 237.05402 239.27802 244.16602 246.83002 251.27802 255.72602">   Trans</tspan></text>
<text xml:space="preserve" transform="matrix(1 0 -0 1 0 792)" font-size="8" font-family="Helvetica"><tspan y="-390.6089" x="259.726 261.95 266.838 271.286 273.51 275.726 279.93403 281.91804 287.00605 291.45405"> Fat 0.5g </tspan></text>
<text xml:space="preserve" transform="matrix(1 0 -0 1 0 792)" font-size="8" font-family="Helvetica" font-weight="bold"><tspan y="-378.6089" x="232.60602 238.99002 244.48603 249.98203 252.80603 258.30204 263.35005 267.06205 272.55805 276.27006 281.76606 284.59007">Cholesterol </tspan></text>
<text xml:space="preserve" transform="matrix(1 0 -0 1 0 792)" font-size="8" font-family="Helvetica"><tspan y="-378.6089" x="287.414 291.222 295.66999 302.33399 306.78199">10mg </tspan></text>
<text xml:space="preserve" transform="matrix(1 0 -0 1 0 792)" font-size="8" font-family="Helvetica" font-weight="bold"><tspan y="-366.6089" x="232.606 238.382 243.718 249.054 251.718 257.05403 265.05403">Sodium </tspan></text>
<text xml:space="preserve" transform="matrix(1 0 -0 1 0 792)" font-size="8" font-family="Helvetica"><tspan y="-366.6089" x="267.71803 272.16603 276.614 281.062 287.726 292.174">200mg </tspan></text>
<text xml:space="preserve" transform="matrix(1 0 -0 1 0 792)" font-size="8" font-family="Helvetica" font-weight="bold"><tspan y="-414.6089" x="329.686 335.262 343.50199">3% </tspan><tspan y="-402.6089" x="329.686 335.262 343.50199">5% </tspan><tspan y="-378.6089" x="329.686 335.262 343.50199">3% </tspan><tspan y="-366.6089" x="329.686 335.262 343.50199">9% </tspan><tspan y="-414.6089" x="446.454 452.03 460.27">5% </tspan><tspan y="-402.6089" x="446.454 452.03 460.27">0% </tspan><tspan y="-378.6089" x="441.358 446.694 452.03 460.03">26% </tspan></text>
<path transform="matrix(1,0,0,-1,232.8606,381.089)" stroke-width=".25" stroke-linecap="butt" stroke-miterlimit="4" stroke-linejoin="miter" fill="none" stroke="#000000" d="M0 0H226.91"/>
<path transform="matrix(1,0,0,-1,232.8606,393.089)" stroke-width=".25" stroke-linecap="butt" stroke-miterlimit="4" stroke-linejoin="miter" fill="none" stroke="#000000" d="M0 0H226.91"/>
<path transform="matrix(1,0,0,-1,232.8606,417.089)" stroke-width=".25" stroke-linecap="butt" stroke-miterlimit="4" stroke-linejoin="miter" fill="none" stroke="#000000" d="M0 0H226.91"/>
<path transform="matrix(1,0,0,-1,0,792)" d="M459.771 360.115H232.861V363.117H459.771Z"/>
<path transform="matrix(1,0,0,-1,0,792)" d="M459.771 423.9H232.861V426.902H459.771Z"/>
<text xml:space="preserve" transform="matrix(1 0 -0 1 0 792)" font-size="6" font-family="Helvetica" font-weight="bold"><tspan y="-431.5342" x="325.9355 331.9355 333.93348 338.60148 343.26948 232.85749 237.52548 243.52548 247.52748 251.52948 255.53148 258.19548 259.86347 263.52946 267.53147 270.19548 273.86146 275.85945 279.86146 283.86347 442.70149 448.70149 450.69947 455.36747 460.03547 348.24949 352.91749 358.91749 362.9195 366.9215 370.92353 373.58753 375.25553 378.9215 382.92353 385.58753 389.2535 391.2515 395.2535 399.25553">% DV Amount/serving % DV Amount/serving </tspan></text>
<text xml:space="preserve" transform="matrix(1 0 -0 1 0 792)" font-size="14" font-family="Helvetica" font-weight="bold"><tspan y="-427.2119" x="151.8623 163.24431 172.31632 178.26631 184.21631 188.59832 194.54831 198.9443 208.01631 217.35431">Nutrition </tspan><tspan y="-414.2059" x="151.8623 160.85031 169.83832 178.82633 184.69232 192.89632">Facts </tspan></text>
<g clip-path="url(#clip_0)">
<text xml:space="preserve" transform="matrix(.99999377 0 -0 1.0000063 0 792)" font-size="7.99995" font-family="Helvetica"><tspan y="-349.74983" x="232.60646 237.94245 239.71842 241.9424 246.39038 253.05434 254.83032 259.2783 261.50227 267.27824 269.50224 273.9502 281.06214 283.28614 286.0861 288.3101 294.08607 298.53404 300.31 304.30998 306.08595 310.5339 317.19789 319.42185 323.8698 330.98179 333.20576 336.00575 338.2297 340.45368 343.11769 347.56565 352.0136 354.23759 358.68556 365.79753 368.02149 370.82148 373.04545 378.3814 382.82939 385.05339 389.50135 393.50129 397.50126 399.27726 403.72523 410.38917 412.62113 416.8291 421.27708 428.38905">Vitamin D 0% &#x2022; Calcium 6% &#x2022; Iron 6% &#x2022; Potassium 10% </tspan></text>
</g>
<text xml:space="preserve" transform="matrix(1 0 -0 1 0 792)" font-size="10" font-family="Helvetica" font-weight="bold"><tspan y="-356.3203" x="151.8623 159.6423 166.3123 169.6423 176.3123 180.7523 184.0823 190.7523 196.8623">Calories </tspan></text>
<text xml:space="preserve" transform="matrix(.9883825 0 -0 1.011754 0 792)" font-size="13.837356" font-family="Helvetica" font-weight="bold"><tspan y="-345.68879" x="202.703 211.93253 221.16205">90 </tspan></text>
<text xml:space="preserve" transform="matrix(1 0 -0 1 0 792)" font-size="7" font-family="Helvetica" font-weight="bold"><tspan y="-349.752" x="151.8623 156.53131 161.20032 164.30832 166.63932 170.9163 175.58531 178.69332 182.9703 185.3013 189.9703 194.63932">per serving </tspan></text>
<text xml:space="preserve" transform="matrix(1 0 -0 1 0 792)" font-size="9" font-family="Helvetica"><tspan y="-400.1875" x="151.8623 156.8663 161.8703 166.8743 171.8783 174.3803 176.8823 181.88629 184.38829 188.88829 193.89229 196.88928 201.38928 203.38729 208.39128 213.39528">about 3 servings</tspan><tspan y="-391.1875" x="151.8623 156.8663 161.8703 164.8673 167.3693 171.8693 176.87329 181.87729 184.37929 189.38329 191.38129 196.38529 201.38928">per container</tspan></text>
<text xml:space="preserve" transform="matrix(1 0 -0 1 0 792)" font-size="9" font-family="Helvetica" font-weight="bold"><tspan y="-380.8105" x="152.2763 158.7743 164.77732 168.77332 174.27231 177.2693 183.27231 189.27532 192.27231 197.7713 200.7683 205.7723 211.7753">Serving size </tspan><tspan y="-371.8105" x="152.2763 158.27931 160.78131 166.78432 169.78131 175.78432 181.78733 187.79033 190.78733 194.28833 200.29134 206.29434 212.29735 215.79836">1/3 cup (56g) </tspan></text>
<path transform="matrix(1,0,0,-1,0,792)" d="M348.256 356.849H343.756V428.84H348.256Z" fill="#ffffff"/>
<text xml:space="preserve" transform="matrix(1 0 -0 1 0 792)" font-size="8" font-family="Helvetica" font-weight="bold"><tspan y="-414.6089" x="347.9297 353.7057 359.0417 362.5937 367.9297 370.5937 373.2577 379.4817 384.8177 388.3697 393.7057 396.3697">Total Carb. </tspan></text>
<text xml:space="preserve" transform="matrix(1 0 -0 1 0 792)" font-size="8" font-family="Helvetica"><tspan y="-414.6089" x="398.39369 402.20167 407.28968">15g</tspan><tspan y="-402.6089" x="347.9297 350.1537 352.3777 354.60169 359.4897 361.2657 365.71369 370.16169 372.82569 375.04969 379.49769 383.94569">   Fiber 0g </tspan><tspan y="-390.6089" x="354.5937 359.4817 363.9297 366.1537 370.60169 372.3777 374.60169 379.93769 384.38569 388.83369 393.28169 395.94569 399.94569 402.16969 405.97767 410.42567 414.87367">Total Sugars 14g </tspan><tspan y="-378.6089" x="359.84169 361.90568 366.19367 370.03367 371.64967 374.64967 378.45768 382.74568 387.03367 389.09767 394.27366 398.56166 402.84965 407.13764 411.42564 413.01768 418.19367 422.48167 426.76966 431.05766 433.56166 437.40165">Incl.13g Added Sugars </tspan></text>
<text xml:space="preserve" transform="matrix(1 0 -0 1 0 792)" font-size="8" font-family="Helvetica" font-weight="bold"><tspan y="-366.6089" x="347.92167 353.69767 357.24967 362.58567 366.13768 371.47367 374.13768 379.47367">Protein </tspan></text>
<text xml:space="preserve" transform="matrix(1 0 -0 1 0 792)" font-size="8" font-family="Helvetica"><tspan y="-366.6089" x="382.13768 386.58567 391.03367">3g </tspan></text>
<path transform="matrix(1,0,0,-1,152.8635,382.6584)" stroke-width=".25" stroke-linecap="butt" stroke-miterlimit="4" stroke-linejoin="miter" fill="none" stroke="#000000" d="M0 0H73.835"/>
<path transform="matrix(1,0,0,-1,152.8635,425.0021)" stroke-width=".25" stroke-linecap="butt" stroke-miterlimit="4" stroke-linejoin="miter" fill="none" stroke="#000000" d="M0 0H73.835"/>
<path transform="matrix(1,0,0,-1,464.1204,349.6291)" d="M0 0H-.5-315.128-315.628V-.5-97.563-98.063H-315.128-.5 0V-97.563-.5ZM-.5-97.563H-315.128V-.5H-.5Z"/>
<text xml:space="preserve" transform="matrix(1 0 -0 1 0 792)" font-size="11" font-family="Helvetica" font-weight="bold"><tspan y="-68.5464" x="298.6631 306.0001 313.3371">11 </tspan></text>
</svg>
