<svg xmlns="http://www.w3.org/2000/svg" xmlns:xlink="http://www.w3.org/1999/xlink" version="1.1" width="612pt" height="792pt" viewBox="0 0 612 792">
<text fill-opacity="0" xml:space="preserve" transform="matrix(1 0 -0 1 0 792)" font-size="20.006" font-family="Helvetica" font-weight="bold"><tspan y="-519.3184" x="319.0483"> </tspan></text>
<text fill-opacity="0" xml:space="preserve" transform="matrix(1 0 -0 1 0 792)" font-size="14" font-family="Helvetica" font-weight="bold"><tspan y="-455.8335" x="299.5933"> </tspan></text>
<text fill-opacity="0" xml:space="preserve" transform="matrix(1 0 -0 1 0 792)" font-size="8.0024" font-family="Helvetica" font-weight="bold"><tspan y="-414.0654" x="228.1377"> </tspan></text>
<text fill-opacity="0" xml:space="preserve" transform="matrix(1 0 -0 1 0 792)" font-size="8.0024" font-family="Helvetica" font-style="italic"><tspan y="-401.56565" x="228.1377 235.55593 242.97415 250.39238 257.8106">     </tspan></text>
<text fill-opacity="0" xml:space="preserve" transform="matrix(1 0 -0 1 0 792)" font-size="8.0024" font-family="Helvetica"><tspan y="-401.56565" x="272.05488"> </tspan><tspan y="-351.56666" x="228.1377"> </tspan><tspan y="-339.0669" x="228.1377"> </tspan><tspan y="-326.56715" x="228.1377 238.19672">  </tspan></text>
<text fill-opacity="0" xml:space="preserve" transform="matrix(1 0 -0 1 0 792)" font-size="6" font-family="Helvetica"><tspan y="-273.0463" x="227.2071"> </tspan><tspan y="-265.84629" x="229.5411"> </tspan></text>
<text fill-opacity="0" xml:space="preserve" transform="matrix(1 0 -0 1 0 792)" font-size="8.0024" font-family="Helvetica" font-weight="bold"><tspan y="-414.5926" x="228.1377"> </tspan></text>
<text fill-opacity="0" xml:space="preserve" transform="matrix(1 0 -0 1 0 792)" font-size="8.0024" font-family="Helvetica"><tspan y="-354.5746" x="228.1377"> </tspan><tspan y="-342.57099" x="228.1377"> </tspan></text>
<text fill-opacity="0" xml:space="preserve" transform="matrix(1 0 -0 1 0 792)" font-size="8.0024" font-family="Helvetica" font-weight="bold"><tspan y="-342.57099" x="283.56233"> </tspan></text>
<text fill-opacity="0" xml:space="preserve" transform="matrix(1 0 -0 1 0 792)" font-size="8.0024" font-family="Helvetica"><tspan y="-330.56739" x="228.1377 238.19672">  </tspan></text>
<text fill-opacity="0" xml:space="preserve" transform="matrix(1 0 -0 1 0 792)" font-size="6" font-family="Helvetica"><tspan y="-249.043" x="227.2046"> </tspan><tspan y="-241.843" x="229.5386"> </tspan><tspan y="-243.379" x="383.05464"> </tspan></text>
<text fill-opacity="0" xml:space="preserve" transform="matrix(1 0 -0 1 0 792)" font-size="8.0024" font-family="Helvetica" font-weight="bold"><tspan y="-299.6021" x="284.6106"> </tspan><tspan y="-275.5949" x="241.9258"> </tspan></text>
<text xml:space="preserve" transform="matrix(1 0 -0 1 0 792)" font-size="11" font-family="Helvetica" font-weight="bold"><tspan y="-696.1074" x="253.1395 261.08149 265.96549 273.3025 280.6395 287.9765 295.3135 300.1975 307.53453 311.1975 319.75553 327.09254 331.97654 336.86054 340.52354 347.86054 355.19755 358.86054">Standard Vertical </tspan></text>
<text xml:space="preserve" transform="matrix(1 0 -0 1 0 792)" font-size="10" font-family="Helvetica"><tspan y="-684.1113" x="258.48 264.04 269.6 272.38 279.6 285.71 292.93 295.71 301.27 306.83 312.38999 315.16999 320.72999 324.05998 329.61997 332.94996 336.27995 341.83995 347.39994 350.72993">21 CFR 101.9(d)(12) </tspan></text>
<path transform="matrix(1,0,0,-1,227.668,342.6431)" stroke-width="3" stroke-linecap="butt" stroke-miterlimit="4" stroke-linejoin="miter" fill="none" stroke="#000000" d="M0 0H156.664"/>
<path transform="matrix(1,0,0,-1,227.668,307.5073)" stroke-width="7" stroke-linecap="butt" stroke-miterlimit="4" stroke-linejoin="miter" fill="none" stroke="#000000" d="M0 0H156.664"/>
<text xml:space="preserve" transform="matrix(1 0 -0 1 0 792)" font-size="16" font-family="Helvetica" font-weight="bold"><tspan y="-455.8335" x="227.5933 240.0413 250.7133 256.0413 266.7133 273.8173 279.1453 289.8173 299.5933">Calories </tspan></text>
<text xml:space="preserve" transform="matrix(1 0 -0 1 0 792)" font-size="22" font-family="Helvetica" font-weight="bold"><tspan y="-455.8335" x="341.1597 355.8337 370.50773 385.18174">230 </tspan></text>
<text xml:space="preserve" transform="matrix(1 0 -0 1 0 792)" font-size="6" font-family="Helvetica" font-weight="bold"><tspan y="-471.3623" x="227.2046 231.8726 237.8726 241.8746 245.8766 249.8786 252.5426 254.5406 258.5426 262.54463 265.20863 267.2066 270.8726 274.8746 277.5386 281.2046 283.20259 287.2046 291.2066">Amount per serving </tspan></text>
<text xml:space="preserve" transform="matrix(1 0 -0 1 0 792)" font-size="10" font-family="Helvetica" font-weight="bold"><tspan y="-492.8008" x="227.1411 234.3611 241.0311 245.4711 251.5811 254.9111 261.58113 268.25114 271.58113 277.6911 281.0211 286.5811 293.2511 296.5811 299.91108 303.24107 306.57106 309.90104 313.23103 316.561 314.60099 321.271 324.051 330.721 334.051 340.721 347.39103 354.06105 357.39103 361.28105 367.95106 374.62107 381.29109">Serving size        2/3 cup (55g)</tspan></text>
<text xml:space="preserve" transform="matrix(1 0 -0 1 0 792)" font-size="10" font-family="Helvetica"><tspan y="-503.8908" x="227.5911 233.1511 235.93109 240.93109 246.49109 249.82109 254.82109 257.04109 262.60108 268.16108 273.16108 275.94108 281.50108 287.06108 290.39106 293.17106 298.17106 303.73106 309.29106 312.07106 317.63105 319.85105 325.41105 330.97105 334.30104">8 servings per container </tspan></text>
<text xml:space="preserve" transform="matrix(1 0 -0 1 0 792)" font-size="6" font-family="Helvetica" font-weight="bold"><tspan y="-439.6123" x="336.0171 342.0171 344.01509 348.68309 352.6851 354.68309 356.68107 360.34706 362.34504 367.01304 371.01506 373.01304 377.01506 381.01707 384.35307">% Daily Value* </tspan></text>
<path transform="matrix(1,0,0,-1,388.2451,254.56879)" d="M0 0H-.5-163.987-164.487V-.5-305.524-306.024H-163.987-.5 0V-305.524-.5ZM-.5-305.524H-163.987V-.5H-.5Z"/>
<text xml:space="preserve" transform="matrix(1 0 -0 1 0 792)" font-size="8.0024" font-family="Helvetica" font-weight="bold"><tspan y="-426.5962" x="228.1377 233.91544 239.25304 242.8061 248.1437 250.8085 253.4733 258.8109 264.14854 267.7016">Total Fat </tspan></text>
<text xml:space="preserve" transform="matrix(1 0 -0 1 0 792)" font-size="8.0024" font-family="Helvetica"><tspan y="-426.5962" x="270.3664 274.81575 279.26509">8g </tspan><tspan y="-414.5926" x="238.19672 243.53432 247.98366 250.20833 254.65767 257.32249 261.77183 263.9965 268.44584 272.89518 275.11985 280.0093 284.45866 286.68333 288.908 293.35734">Saturated Fat 1g</tspan></text>
<text xml:space="preserve" transform="matrix(1 0 -0 1 0 792)" font-size="8.0024" font-family="Helvetica" font-style="italic"><tspan y="-402.589" x="228.1377 238.19672 243.08618 245.75098 250.20032 254.64966"> Trans</tspan></text>
<text xml:space="preserve" transform="matrix(1 0 -0 1 0 792)" font-size="8.0024" font-family="Helvetica"><tspan y="-402.589" x="258.65086 260.87553 265.76499 270.21434 272.439 274.66368 279.113 283.56236"> Fat 0g </tspan></text>
<text xml:space="preserve" transform="matrix(1 0 -0 1 0 792)" font-size="8.0024" font-family="Helvetica" font-weight="bold"><tspan y="-390.5854" x="228.1377 234.36356 239.70116 245.03876 247.70355 253.04116 257.93064 261.4837 266.82133 270.3744 275.712 278.3768">Cholesterol </tspan></text>
<text xml:space="preserve" transform="matrix(1 0 -0 1 0 792)" font-size="8.0024" font-family="Helvetica"><tspan y="-390.5854" x="281.0416 285.49095 292.15693 296.60627">0mg </tspan></text>
<text xml:space="preserve" transform="matrix(1 0 -0 1 0 792)" font-size="8.0024" font-family="Helvetica" font-weight="bold"><tspan y="-378.5818" x="228.1377 233.91544 239.25304 244.59064 247.25543 252.59304 260.59544">Sodium </tspan></text>
<text xml:space="preserve" transform="matrix(1 0 -0 1 0 792)" font-size="8.0024" font-family="Helvetica"><tspan y="-378.5818" x="263.26023 267.70957 272.1589 276.60826 283.27424 287.72358">160mg </tspan></text>
<text xml:space="preserve" transform="matrix(1 0 -0 1 0 792)" font-size="8.0024" font-family="Helvetica" font-weight="bold"><tspan y="-366.5782" x="228.1377 233.91544 239.25304 242.8061 248.1437 250.8085 253.4733 259.69917 265.03678 268.58985 273.92747 279.26509 284.6027 289.49217 294.82978 298.38285 303.72047 307.27354 312.61116">Total Carbohydrate </tspan></text>
<text xml:space="preserve" transform="matrix(1 0 -0 1 0 792)" font-size="8.0024" font-family="Helvetica"><tspan y="-366.5782" x="315.27595 319.72529 324.17463 328.62397">37g </tspan><tspan y="-354.5746" x="238.19672 243.97446 245.75099 250.20034 252.425 256.87434 259.53913 263.5403 265.76499 270.65446 272.43098 276.8803 281.32966 283.99446 286.21913 290.66847 295.1178">Dietary Fiber 4g </tspan><tspan y="-342.57099" x="238.19672 243.08618 247.53553 249.7602 254.20954 255.98607 258.21073 263.54835 267.99769 272.44703 276.89637 279.56117 283.56236 285.78703 290.23637 294.6857 299.13505">Total Sugars 12g </tspan><tspan y="-330.56739" x="248.1357 250.36037 254.80971 258.8109 260.58744 265.03678 269.4861 273.93547 277.93666 280.16133 284.61067 289.06 293.50935 295.734 301.07164 305.52098 309.9703 314.41966 318.869 321.09367 326.43128 330.8806 335.32997 339.7793 342.4441 346.44529">Includes 10g Added Sugars </tspan></text>
<text xml:space="preserve" transform="matrix(1 0 -0 1 0 792)" font-size="8.0024" font-family="Helvetica" font-weight="bold"><tspan y="-318.56379" x="228.1377 233.91544 237.4685 242.8061 246.35918 251.69678 254.36157 259.6992">Protein </tspan></text>
<text xml:space="preserve" transform="matrix(1 0 -0 1 0 792)" font-size="8.0024" font-family="Helvetica"><tspan y="-318.56379" x="262.36399 266.81333 271.26268">3g </tspan></text>
<text xml:space="preserve" transform="matrix(1 0 -0 1 0 792)" font-size="8.0024" font-family="Helvetica" font-weight="bold"><tspan y="-426.56419" x="364.8747 370.61244 376.35017 384.7527">10% </tspan><tspan y="-414.56059" x="370.61244 376.35017 384.7527">5% </tspan><tspan y="-390.56138" x="370.61244 376.35017 384.7527">0% </tspan><tspan y="-378.55778" x="370.61244 376.35017 384.7527">7% </tspan><tspan y="-366.55418" x="364.8747 370.61244 376.35017 384.7527">13% </tspan><tspan y="-354.55058" x="364.8747 370.61244 376.35017 384.7527">14% </tspan><tspan y="-330.55137" x="364.8747 370.61244 376.35017 384.7527">20% </tspan></text>
<path transform="matrix(1,0,0,-1,227.668,356.7046)" stroke-width=".25" stroke-linecap="butt" stroke-miterlimit="4" stroke-linejoin="miter" fill="none" stroke="#000000" d="M0 0H156.664M0 0H156.664"/>
<path transform="matrix(1,0,0,-1,227.668,368.707)" stroke-width=".25" stroke-linecap="butt" stroke-miterlimit="4" stroke-linejoin="miter" fill="none" stroke="#000000" d="M0 0H156.664"/>
<path transform="matrix(1,0,0,-1,227.668,380.7095)" stroke-width=".25" stroke-linecap="butt" stroke-miterlimit="4" stroke-linejoin="miter" fill="none" stroke="#000000" d="M0 0H156.664"/>
<path transform="matrix(1,0,0,-1,227.668,392.7119)" stroke-width=".25" stroke-linecap="butt" stroke-miterlimit="4" stroke-linejoin="miter" fill="none" stroke="#000000" d="M0 0H156.664"/>
<path transform="matrix(1,0,0,-1,227.668,404.7144)" stroke-width=".25" stroke-linecap="butt" stroke-miterlimit="4" stroke-linejoin="miter" fill="none" stroke="#000000" d="M0 0H156.664"/>
<path transform="matrix(1,0,0,-1,227.668,416.7168)" stroke-width=".25" stroke-linecap="butt" stroke-miterlimit="4" stroke-linejoin="miter" fill="none" stroke="#000000" d="M0 0H156.664"/>
<path transform="matrix(1,0,0,-1,227.668,428.7192)" stroke-width=".25" stroke-linecap="butt" stroke-miterlimit="4" stroke-linejoin="miter" fill="none" stroke="#000000" d="M0 0H156.664"/>
<path transform="matrix(1,0,0,-1,227.668,440.7217)" stroke-width=".25" stroke-linecap="butt" stroke-miterlimit="4" stroke-linejoin="miter" fill="none" stroke="#000000" d="M0 0H156.664"/>
<path transform="matrix(1,0,0,-1,248.1338,452.7241)" stroke-width=".25" stroke-linecap="butt" stroke-miterlimit="4" stroke-linejoin="miter" fill="none" stroke="#000000" d="M0 0H136.198"/>
<path transform="matrix(1,0,0,-1,227.668,464.7266)" stroke-width=".25" stroke-linecap="butt" stroke-miterlimit="4" stroke-linejoin="miter" fill="none" stroke="#000000" d="M0 0H156.664"/>
<path transform="matrix(1,0,0,-1,227.668,519.71389)" stroke-width=".25" stroke-linecap="butt" stroke-miterlimit="4" stroke-linejoin="miter" fill="none" stroke="#000000" d="M0 0H156.664"/>
<text xml:space="preserve" transform="matrix(1 0 -0 1 0 792)" font-size="6" font-family="Helvetica"><tspan y="-250.3789" x="231.0791 234.7451 238.0811 241.4171 243.0851 248.4191 250.0871 254.4191 257.7551 259.0871 260.4191 263.4191 265.0871 269.0891 272.4251 273.7571 277.0931 280.4291 282.0971 284.0951 288.4271 292.4291 294.4271 296.0951 297.7631 301.0991 302.4311 303.7631 306.7631 308.4311 311.4311 314.7671 318.1031 319.7711 323.1071 326.44309 330.7751 332.44309 337.44108 340.77708 343.77708 347.11308 348.78108 352.11708 353.78507 357.12107 360.45707 362.12507 364.12306 365.45506 368.79106 372.12705 373.79505 375.46305 376.79505">The % Daily Value (DV) tells you how much a nutrient in</tspan><tspan y="-243.3769" x="231.0791 234.3971 236.04709 239.02909 242.34708 244.32707 247.30907 248.62306 251.94106 255.25905 256.90907 260.22706 261.87705 263.52705 265.17704 268.49504 271.81303 275.131 276.781 279.763 283.081 286.399 288.04899 290.029 291.343 294.66099 297.97898 299.62898 302.94697 305.92897 307.57896 309.22895 312.54695 314.19694 317.51493 319.16493 322.4829 325.8009 327.1149 328.4289 331.4109 333.06089 336.37889 337.69288 341.01087 342.66087 344.31086 345.96086 349.27885 350.92884 354.24684 357.56483 360.8828 362.5328 365.5148 368.8328 370.1468 373.46479 375.4448 376.7588 380.07679">a serving of food contributes to a daily diet. 2,000 calories</tspan><tspan y="-236.37491" x="231.0791 234.4151 236.0831 239.4191 242.7551 245.7551 247.4231 248.7551 251.7551 253.4231 256.7591 259.7591 263.0951 266.4311 268.0991 269.7671 273.1031 275.10108 276.76908 280.10508 283.44108 286.77708 290.11308 292.11106 295.44706 296.77906 298.44706 301.78306 305.11906 306.78706 308.78504 310.11705 311.78504 313.11705 316.45304 319.78904 321.45704 324.79304 328.12904 331.12904 332.46104 335.46104 338.79704 340.46504">a day is used for general nutrition advice. </tspan><tspan y="-250.37291" x="226.9991 229.3331">* </tspan></text>
<path transform="matrix(1,0,0,-1,227.6714,480.25)" stroke-width="7" stroke-linecap="butt" stroke-miterlimit="4" stroke-linejoin="miter" fill="none" stroke="#000000" d="M0 0H156.664"/>
<path transform="matrix(1,0,0,-1,227.668,276.9146)" stroke-width=".25" stroke-linecap="butt" stroke-miterlimit="4" stroke-linejoin="miter" fill="none" stroke="#000000" d="M0 0H156.664"/>
<text xml:space="preserve" transform="matrix(1 0 -0 1 0 792)" font-size="8.0024" font-family="Helvetica"><tspan y="-299.6021" x="228.1377 233.4753 235.25183 237.4765 241.92584 248.59185 250.36838 254.81772 257.0424 262.82014 265.0448 269.49415 276.16014 280.16133 284.61067">Vitamin D 2mcg </tspan><tspan y="-287.5985" x="228.1377 233.91544 238.36478 240.14131 244.14252 245.91905 250.3684 257.0344 259.25907 263.7084 268.15776 272.6071 279.27308 283.7224">Calcium 260mg </tspan><tspan y="-275.5949" x="228.1377 230.36237 233.02716 237.4765 241.92584 244.15052 248.59986 255.26586 259.71519">Iron 8mg </tspan><tspan y="-263.5913" x="228.1377 233.4753 237.92464 240.1493 244.59865 248.59986 252.60106 254.3776 258.82695 265.49293 267.7176 272.16694 276.61628 281.0656 287.7316 292.18095">Potassium 240mg </tspan><tspan y="-299.59413" x="367.5395 372.38896 377.2384 384.75267">10% </tspan><tspan y="-287.5905" x="367.5395 372.38896 377.2384 384.75267">20% </tspan><tspan y="-275.5869" x="367.5395 372.38896 377.2384 384.75267">45% </tspan><tspan y="-263.5833" x="372.38896 377.2384 384.75267">6% </tspan></text>
<path transform="matrix(1,0,0,-1,227.668,495.709)" stroke-width=".25" stroke-linecap="butt" stroke-miterlimit="4" stroke-linejoin="miter" fill="none" stroke="#000000" d="M0 0H156.664"/>
<path transform="matrix(1,0,0,-1,227.668,507.7114)" stroke-width=".25" stroke-linecap="butt" stroke-miterlimit="4" stroke-linejoin="miter" fill="none" stroke="#000000" d="M0 0H156.664"/>
<path transform="matrix(1,0,0,-1,227.668,533.166)" stroke-width="3" stroke-linecap="butt" stroke-miterlimit="4" stroke-linejoin="miter" fill="none" stroke="#000000" d="M0 0H156.664"/>
<text xml:space="preserve" transform="matrix(1 0 -0 1 0 792)" font-size="20" font-family="Helvetica" font-weight="bold"><tspan y="-518.9854" x="226.29 242.54999 255.51 264.01 272.51 278.77 287.27 293.55 306.50999 319.84999 326.50999 339.34999 352.18998 365.02998 373.40998 385.12998">Nutrition Facts </tspan></text>
<text xml:space="preserve" transform="matrix(1 0 -0 1 0 792)" font-size="11" font-family="Helvetica" font-weight="bold"><tspan y="-68.5464" x="302.3315 309.66853">1 </tspan></text>
</svg>
