<svg xmlns="http://www.w3.org/2000/svg" xmlns:xlink="http://www.w3.org/1999/xlink" version="1.1" width="612pt" height="792pt" viewBox="0 0 612 792">
<text fill-opacity="0" xml:space="preserve" transform="matrix(1 0 -0 1 0 792)" font-size="8.0024" font-family="Helvetica" font-weight="bold" font-style="italic"><tspan y="-424.6246" x="202.6762 204.90087 207.12554 229.80434">    </tspan></text>
<text fill-opacity="0" xml:space="preserve" transform="matrix(1 0 -0 1 0 792)" font-size="8.0024" font-family="Helvetica" font-weight="bold"><tspan y="-376.6102" x="234.6938"> </tspan></text>
<text fill-opacity="0" xml:space="preserve" transform="matrix(1 0 -0 1 0 792)" font-size="8.0024" font-family="Helvetica"><tspan y="-352.603" x="228.94008"> </tspan></text>
<text fill-opacity="0" xml:space="preserve" transform="matrix(1 0 -0 1 0 792)" font-size="10" font-family="Helvetica" font-weight="bold"><tspan y="-475.5215" x="274.4971 287.40708 290.73707 294.06706 297.39704">     </tspan></text>
<text xml:space="preserve" transform="matrix(1 0 -0 1 0 792)" font-size="11" font-family="Helvetica" font-weight="bold"><tspan y="-696.1074" x="150.1685 158.7265 166.0635 173.40052 177.0635 180.7265 189.2845 196.6215 200.2845 207.6215 218.6215 225.95851 229.6215 238.1795 241.8425 248.56349 255.9005 259.5635 266.9005 273.62153 277.28453 280.9475 288.8895 296.2265 301.1105 304.7735 312.71549 320.0525 324.9365 331.6575 335.3205 342.6575 349.9945 353.6575 360.9945 368.3315 375.66853 379.3315 387.2735 394.6105 399.4945 403.1575 411.7155 419.05253 426.38954 431.27354 438.61054 442.27354 449.61054 456.94755 461.83155">Dual Column Display, Per Serving and Per Container </tspan></text>
<text xml:space="preserve" transform="matrix(1 0 -0 1 0 792)" font-size="10" font-family="Helvetica"><tspan y="-684.1113" x="258.2095 263.7695 269.3295 272.1095 279.3295 285.43949 292.6595 295.43949 300.99949 306.55949 312.11949 314.89949 320.45948 323.78947 329.34947 332.67945 336.00944 341.56944 344.8994 348.2394 350.4594 353.7894">21 CFR 101.9(e)(6)(i) </tspan></text>
<path transform="matrix(1,0,0,-1,202.6841,285.1816)" stroke-width="7" stroke-linecap="butt" stroke-miterlimit="4" stroke-linejoin="miter" fill="none" stroke="#000000" d="M0 0H206.635"/>
<path transform="matrix(1,0,0,-1,202.6782,321.0391)" stroke-width="3" stroke-linecap="butt" stroke-miterlimit="4" stroke-linejoin="miter" fill="none" stroke="#000000" d="M0 0H206.523"/>
<path transform="matrix(1,0,0,-1,202.6782,334.5713)" stroke-width=".25" stroke-linecap="butt" stroke-miterlimit="4" stroke-linejoin="miter" fill="none" stroke="#000000" d="M0 0H206.523"/>
<path transform="matrix(1,0,0,-1,202.6782,346.5737)" stroke-width=".25" stroke-linecap="butt" stroke-miterlimit="4" stroke-linejoin="miter" fill="none" stroke="#000000" d="M0 0H206.523"/>
<path transform="matrix(1,0,0,-1,202.6782,358.5762)" stroke-width=".25" stroke-linecap="butt" stroke-miterlimit="4" stroke-linejoin="miter" fill="none" stroke="#000000" d="M0 0H206.523"/>
<path transform="matrix(1,0,0,-1,202.6782,370.5786)" stroke-width=".25" stroke-linecap="butt" stroke-miterlimit="4" stroke-linejoin="miter" fill="none" stroke="#000000" d="M0 0H206.523"/>
<path transform="matrix(1,0,0,-1,202.6782,382.5811)" stroke-width=".25" stroke-linecap="butt" stroke-miterlimit="4" stroke-linejoin="miter" fill="none" stroke="#000000" d="M0 0H206.523"/>
<path transform="matrix(1,0,0,-1,202.6782,394.5835)" stroke-width=".25" stroke-linecap="butt" stroke-miterlimit="4" stroke-linejoin="miter" fill="none" stroke="#000000" d="M0 0H206.523"/>
<path transform="matrix(1,0,0,-1,202.6782,406.5859)" stroke-width=".25" stroke-linecap="butt" stroke-miterlimit="4" stroke-linejoin="miter" fill="none" stroke="#000000" d="M0 0H206.523"/>
<path transform="matrix(1,0,0,-1,202.6782,418.5884)" stroke-width=".25" stroke-linecap="butt" stroke-miterlimit="4" stroke-linejoin="miter" fill="none" stroke="#000000" d="M0 0H206.523"/>
<path transform="matrix(1,0,0,-1,215.7515,430.5908)" stroke-width=".25" stroke-linecap="butt" stroke-miterlimit="4" stroke-linejoin="miter" fill="none" stroke="#000000" d="M0 0H193.45"/>
<path transform="matrix(1,0,0,-1,202.6782,442.5933)" stroke-width=".25" stroke-linecap="butt" stroke-miterlimit="4" stroke-linejoin="miter" fill="none" stroke="#000000" d="M0 0H206.523"/>
<path transform="matrix(1,0,0,-1,202.6782,454.5957)" stroke-width=".25" stroke-linecap="butt" stroke-miterlimit="4" stroke-linejoin="miter" fill="none" stroke="#000000" d="M0 0H206.523"/>
<path transform="matrix(1,0,0,-1,202.6782,485.4395)" stroke-width=".25" stroke-linecap="butt" stroke-miterlimit="4" stroke-linejoin="miter" fill="none" stroke="#000000" d="M0 0H206.523"/>
<path transform="matrix(1,0,0,-1,202.6782,497.4419)" stroke-width=".25" stroke-linecap="butt" stroke-miterlimit="4" stroke-linejoin="miter" fill="none" stroke="#000000" d="M0 0H206.523"/>
<text xml:space="preserve" transform="matrix(1 0 -0 1 0 792)" font-size="8.0024" font-family="Helvetica"><tspan y="-448.7358" x="284.5728 289.1822 293.79158">5g </tspan><tspan y="-436.7322" x="284.5728 289.1822 293.79158">2g </tspan><tspan y="-424.7286" x="284.5728 289.1822 293.79158">0g </tspan><tspan y="-412.725" x="284.5728 288.62205 293.2314 300.05747 304.66685">15mg </tspan><tspan y="-400.7214" x="284.5728 289.1822 293.79158 298.40095 305.227 309.83638">240mg </tspan><tspan y="-388.7178" x="284.5728 289.1822 293.79158 298.40095">35g </tspan><tspan y="-376.7142" x="284.5728 289.1822 293.79158">6g </tspan><tspan y="-364.7106" x="284.5728 289.1822 293.79158">7g </tspan><tspan y="-352.707" x="284.5728 289.1822 293.79158">4g </tspan><tspan y="-340.7034" x="284.5728 289.1822 293.79158">9g </tspan></text>
<text xml:space="preserve" transform="matrix(1 0 -0 1 0 792)" font-size="8.0024" font-family="Helvetica" font-weight="bold"><tspan y="-448.6958" x="331.93904 337.5167 345.75917">6% </tspan><tspan y="-436.6922" x="327.40168 331.93904 337.5167 345.75917">10% </tspan><tspan y="-412.693" x="331.93904 337.5167 345.75917">5% </tspan><tspan y="-400.6894" x="327.40168 331.93904 337.5167 345.75917">10% </tspan><tspan y="-388.6858" x="327.08158 331.779 337.51673 345.91926">13% </tspan><tspan y="-376.6822" x="327.32167 332.57923 337.5167 345.119">21% </tspan><tspan y="-352.68299" x="331.93904 337.5167 345.75917">8% </tspan><tspan y="-448.67979" x="390.9247 395.8622 401.19984 409.20225">13% </tspan><tspan y="-436.67619" x="390.28453 395.62214 401.1998 409.44227">20% </tspan><tspan y="-412.67698" x="391.08476 395.6221 401.19978 409.44224">10% </tspan><tspan y="-400.67338" x="391.00474 396.2623 401.19978 408.80207">21% </tspan><tspan y="-388.66978" x="390.12446 395.6221 401.19978 409.44224">25% </tspan><tspan y="-376.66618" x="390.2845 395.6221 401.19978 409.44224">43% </tspan><tspan y="-352.66697" x="390.92469 395.6221 401.19978 409.44224">16% </tspan></text>
<text xml:space="preserve" transform="matrix(1 0 -0 1 0 792)" font-size="8.0024" font-family="Helvetica"><tspan y="-448.67176" x="351.51289 355.5621 360.17149 364.78086">10g </tspan><tspan y="-436.66816" x="351.51289 356.12226 360.73164">4g </tspan><tspan y="-424.66456" x="351.51289 356.12226 360.73164">0g </tspan><tspan y="-412.66096" x="351.51289 356.12226 360.73164 367.55769 372.16706">30mg </tspan><tspan y="-400.65736" x="351.51289 356.12226 360.73164 365.341 372.16706 376.77644">480mg </tspan><tspan y="-388.65376" x="351.51289 356.12226 360.73164 365.341">70g </tspan><tspan y="-376.65016" x="351.51289 355.5621 360.17149 364.78086">12g </tspan><tspan y="-364.64656" x="351.51289 355.5621 360.17149 364.78086">14g </tspan><tspan y="-352.64295" x="351.51289 356.12226 360.73164">8g </tspan><tspan y="-340.63935" x="351.51289 355.5621 360.17149 364.78086">18g </tspan></text>
<text xml:space="preserve" transform="matrix(1 0 -0 1 0 792)" font-size="8.0024" font-family="Helvetica" font-weight="bold"><tspan y="-448.63175" x="202.67626 208.454 213.7916 217.34467 222.68227 225.34706 228.01186 233.34946 238.68706">Total Fat</tspan></text>
<text xml:space="preserve" transform="matrix(1 0 -0 1 0 792)" font-size="8.0024" font-family="Helvetica"><tspan y="-436.62815" x="202.67626 204.90093 207.1256 209.35027 214.68787 219.1372 221.36188 225.81122 228.47602 232.92536 235.15003 239.59937 244.0487 246.27338 251.16284 255.61219 257.83686">   Saturated Fat </tspan></text>
<text xml:space="preserve" transform="matrix(1 0 -0 1 0 792)" font-size="8.0024" font-family="Helvetica" font-style="italic"><tspan y="-424.62455" x="209.35025 214.23972 216.90451 221.35385 225.80319 229.8044">Trans </tspan></text>
<text xml:space="preserve" transform="matrix(1 0 -0 1 0 792)" font-size="8.0024" font-family="Helvetica"><tspan y="-424.62455" x="232.02907 236.91854 241.36788 243.59255">Fat </tspan></text>
<text xml:space="preserve" transform="matrix(1 0 -0 1 0 792)" font-size="8.0024" font-family="Helvetica" font-weight="bold"><tspan y="-412.62095" x="202.67626 208.90212 214.23972 219.57732 222.24211 227.57971 232.46918 236.02225 241.35985 244.91292 250.25052 252.91532">Cholesterol </tspan><tspan y="-400.61735" x="202.67626 208.454 213.7916 219.1292 221.79399 227.13159 235.13399">Sodium </tspan><tspan y="-388.61375" x="202.67626 208.454 213.7916 217.34467 222.68227 225.34706 228.01186 234.23772 239.57532 243.12839 248.46599">Total Carb.</tspan></text>
<text xml:space="preserve" transform="matrix(1 0 -0 1 0 792)" font-size="8.0024" font-family="Helvetica"><tspan y="-376.61015" x="202.67626 204.90093 207.1256 209.35027 215.128 216.90454 221.35388 223.57855 228.0279 230.69269 234.6939 236.91857 241.80803 243.58457 248.0339 252.48325">   Dietary Fiber</tspan><tspan y="-364.60655" x="202.67626 204.90093 207.1256 209.35027 214.23973 218.68907 220.91374 225.36309 227.13962 229.36429 234.70189 239.15123 243.60057 248.04991 250.7147">   Total Sugars</tspan><tspan y="-352.60295" x="202.67626 204.74088 206.8055 208.87012 210.93474 212.99936 215.06398 217.1286 221.4179 225.25905 226.87554 229.95726 235.13481 239.4241 243.7134 248.00269 252.29198 254.3566 259.53416 263.82344 268.1127 272.40199 274.90675 278.7479">      Incl.Added Sugars </tspan></text>
<text xml:space="preserve" transform="matrix(1 0 -0 1 0 792)" font-size="8.0024" font-family="Helvetica" font-weight="bold"><tspan y="-340.59934" x="202.67626 208.454 212.00707 217.34467 220.89774 226.23534 228.90013 234.23773">Protein </tspan></text>
<text xml:space="preserve" transform="matrix(1 0 -0 1 0 792)" font-size="6" font-family="Helvetica" font-weight="bold"><tspan y="-461.103" x="324.8506 330.8506 332.84858 337.51658 342.18458 345.52058 388.53459 394.53459 396.53257 401.20057 405.86857 409.20457">% DV* % DV* </tspan></text>
<text xml:space="preserve" transform="matrix(1 0 -0 1 0 792)" font-size="8.0024" font-family="Helvetica"><tspan y="-321.7939" x="284.5728 289.1822 296.00825 300.1695 304.77888">5mcg </tspan><tspan y="-309.7903" x="284.5728 289.1822 293.79158 298.40095 305.227 309.83638">200mg </tspan><tspan y="-297.7867" x="284.5728 289.02217 295.8482 300.45759">1mg </tspan><tspan y="-285.7831" x="284.5728 289.1822 293.79158 298.40095 305.227 309.83638">470mg </tspan><tspan y="-321.78593" x="351.5209 355.8102 360.25956 366.92555 370.92674 375.37608">10mcg </tspan><tspan y="-309.78233" x="351.5209 355.97026 360.4196 364.86894 371.5349 375.98426">400mg </tspan><tspan y="-297.77873" x="351.5209 355.97026 362.63624 367.08558">2mg </tspan><tspan y="-285.77513" x="351.5209 355.97026 360.4196 364.86894 371.5349 375.98426">940mg </tspan><tspan y="-321.77793" x="328.96214 333.41148 337.8608 344.97496">25% </tspan><tspan y="-309.77433" x="328.96214 333.41148 337.8608 344.97496">15% </tspan><tspan y="-297.77073" x="333.41148 337.8608 344.97496">6% </tspan><tspan y="-285.76713" x="328.96214 333.41148 337.8608 344.97496">10% </tspan><tspan y="-321.76994" x="392.34114 396.79048 401.2398 408.35395">50% </tspan><tspan y="-309.76634" x="392.34114 396.79048 401.2398 408.35395">30% </tspan><tspan y="-297.76274" x="392.34114 396.79048 401.2398 408.35395">10% </tspan><tspan y="-285.75914" x="392.34114 396.79048 401.2398 408.35395">20% </tspan><tspan y="-321.76194" x="202.68424 208.02184 209.79837 212.02304 216.47238 223.13838 224.91492 229.36426 231.58893 237.36667">Vitamin D </tspan><tspan y="-309.75834" x="202.68424 208.46198 212.91132 214.68785 218.68906 220.46559 224.91493 231.58094">Calcium </tspan><tspan y="-297.75474" x="202.68424 204.9089 207.5737 212.02304 216.47238">Iron </tspan><tspan y="-285.75114" x="202.68424 208.02184 212.47118 214.69585 219.14519 223.1464 227.1476 228.92414 233.37348 240.03948">Potassium </tspan></text>
<text xml:space="preserve" transform="matrix(1 0 -0 1 0 792)" font-size="6" font-family="Helvetica"><tspan y="-270.8789" x="206.3271 209.9931 213.3291 216.6651 218.3331 223.6671 225.3351 229.6671 233.0031 234.3351 235.6671 238.6671 240.3351 244.3371 247.6731 249.0051 252.3411 255.6771 257.3451 259.34309 263.67509 267.6771 269.67509 271.34309 273.01109 276.34709 277.67909 279.01109 282.01109 283.67909 286.67909 290.01509 293.35108 295.01908 298.35508 301.69108 306.02308 307.69108 312.68907 316.02507 319.02507 322.36106 324.02906 327.36506 329.03306 332.36906 335.70506 337.37306 339.37104 340.70304 344.03904 347.37504 349.04304 350.71104 352.04304 355.37904 357.04704 360.38304 362.05104 365.05104 368.38703 370.385 373.385 374.717 378.053 381.389 383.057 386.393 388.061">The % Daily Value (DV) tells you how much a nutrient in a serving of </tspan><tspan y="-263.8769" x="206.3271 207.9951 211.3311 214.6671 218.0031 219.6711 222.6711 226.0071 229.3431 231.0111 233.0091 234.3411 237.6771 241.01309 242.68529 246.02129 249.02129 250.68929 252.35729 255.69329 257.3613 260.6973 262.3653 265.7013 269.0373 270.3693 271.7013 274.7013 276.3693 279.7053 281.0373 284.3733 286.0413 287.7093 289.3773 292.7133 294.3813 297.7173 301.05329 304.38929 306.05729 309.05729 312.39329 313.72529 317.06129 319.05928 320.39128 323.72727 326.72727 328.39527 331.73127 333.39927 336.73527 340.07127 343.07127 344.73927 346.07127 349.07127 350.73927 354.07527 357.07527 360.41127 363.74726 365.41526 367.08326 370.41926 372.41725 374.08525 377.42124 380.75724 384.09324 387.42924 389.42723 392.7632 394.0952">food contributes to a daily diet. 2,000 calories a day is used for general </tspan><tspan y="-256.87489" x="206.3271 209.6631 212.9991 214.6671 216.6651 217.9971 219.6651 220.9971 224.3331 227.6691 229.3371 232.6731 236.0091 239.0091 240.3411 243.34709 246.68309 248.35109">nutrition advice. </tspan><tspan y="-270.87287" x="202.2471 204.5811">* </tspan></text>
<path transform="matrix(1,0,0,-1,202.6841,457.9316)" stroke-width="7" stroke-linecap="butt" stroke-miterlimit="4" stroke-linejoin="miter" fill="none" stroke="#000000" d="M0 0H206.635"/>
<path transform="matrix(1,0,0,-1,281.5688,508.3125)" stroke-width="4.25" stroke-linecap="butt" stroke-miterlimit="4" stroke-linejoin="miter" fill="none" stroke="#ffffff" d="M0 0V217.098"/>
<text xml:space="preserve" transform="matrix(1 0 -0 1 0 792)" font-size="16" font-family="Helvetica" font-weight="bold"><tspan y="-475.5215" x="202.4971 214.9451 225.6171 230.9451 241.6171 248.7211 254.0491 264.7211 274.4971">Calories </tspan></text>
<text xml:space="preserve" transform="matrix(1 0 -0 1 0 792)" font-size="22" font-family="Helvetica" font-weight="bold"><tspan y="-475.5215" x="301.3271 316.0011 330.6751 345.34913">220 </tspan><tspan y="-475.6315" x="365.2811 379.9551 394.62913 409.30314">440 </tspan></text>
<text xml:space="preserve" transform="matrix(1 0 -0 1 0 792)" font-size="6" font-family="Helvetica" font-weight="bold"><tspan y="-495.356" x="364.8721 369.2041 373.20613 375.87013 377.8681 381.87013 385.87214 389.87416 392.53816 396.54017 398.53816 402.54017 406.54219 409.20619 308.5261 312.8581 316.8601 319.5241 321.5221 325.18809 329.1901 331.8541 335.52009 337.51808 341.52009 345.5221">Per container Per serving </tspan></text>
<path transform="matrix(1,0,0,-1,0,792)" d="M202.678 282.431H409.202V282.681H202.678Z" fill="#6dcff6"/>
<text xml:space="preserve" transform="matrix(1 0 -0 1 0 792)" font-size="26" font-family="Helvetica" font-weight="bold"><tspan y="-539.0937" x="202.355 223.493 240.341 251.391 262.441 270.57899 281.62898 289.79298 306.64097 323.98298 332.64097 349.33296 366.02497 382.71699 393.611 408.847">Nutrition Facts </tspan></text>
<text xml:space="preserve" transform="matrix(1 0 -0 1 0 792)" font-size="10" font-family="Helvetica"><tspan y="-525.1445" x="203.8164 209.3764 212.1564 217.1564 222.7164 226.0464 231.0464 233.2664 238.8264 244.3864 249.3864 252.1664 257.7264 263.2864 266.6164 269.3964 274.3964 279.9564 285.5164 288.2964 293.85639 296.0764 301.63639 307.19639">2 servings per container</tspan></text>
<text xml:space="preserve" transform="matrix(1 0 -0 1 0 792)" font-size="10" font-family="Helvetica" font-weight="bold"><tspan y="-514.1445" x="203.8164 211.0364 217.7064 222.14641 228.25641 231.58641 238.25641 244.9264 248.25641 254.36641 257.6964 263.2564 269.92643 341.3464 348.01643 351.3464 358.01643 364.68644 371.35646 374.68644 378.57646 385.24647 391.91648 398.5865 405.2565 409.1465">Serving size 1 cup (255g) </tspan></text>
<path transform="matrix(1,0,0,-1,202.6782,256.0562)" stroke-width=".25" stroke-linecap="butt" stroke-miterlimit="4" stroke-linejoin="miter" fill="none" stroke="#000000" d="M0 0H206.523"/>
<path transform="matrix(1,0,0,-1,281.5688,508.3125)" stroke-width="4.25" stroke-linecap="butt" stroke-miterlimit="4" stroke-linejoin="miter" fill="none" stroke="#ffffff" d="M0 0V217.098"/>
<path transform="matrix(1,0,0,-1,348.5498,508.3125)" stroke-width="4.25" stroke-linecap="butt" stroke-miterlimit="4" stroke-linejoin="miter" fill="none" stroke="#ffffff" d="M0 0V217.098"/>
<path transform="matrix(1,0,0,-1,202.6782,510.8447)" stroke-width="3" stroke-linecap="butt" stroke-miterlimit="4" stroke-linejoin="miter" fill="none" stroke="#000000" d="M0 0H206.523"/>
<path transform="matrix(1,0,0,-1,348.5498,508.3125)" stroke-width=".25" stroke-linecap="butt" stroke-miterlimit="4" stroke-linejoin="miter" fill="none" stroke="#000000" d="M0 0V217.098"/>
<path transform="matrix(1,0,0,-1,281.5688,508.3125)" stroke-width=".25" stroke-linecap="butt" stroke-miterlimit="4" stroke-linejoin="miter" fill="none" stroke="#000000" d="M0 0V217.098"/>
<path transform="matrix(1,0,0,-1,412.814,229.40631)" d="M0 0H-.5-213.131-213.631V-.5-309.2-309.7H-213.131-.5 0V-309.2-.5ZM-.5-309.2H-213.13V-.5H-.5Z"/>
<path transform="matrix(1,0,0,-1,202.6782,473.437)" stroke-width=".25" stroke-linecap="butt" stroke-miterlimit="4" stroke-linejoin="miter" fill="none" stroke="#000000" d="M0 0H206.523"/>
<text xml:space="preserve" transform="matrix(1 0 -0 1 0 792)" font-size="11" font-family="Helvetica" font-weight="bold"><tspan y="-68.5464" x="302.3315 309.66853">6 </tspan></text>
</svg>
